{"glyphs":{"0":{"ha":754,"x_min":58,"x_max":733,"o":"m 314 -14 q 180 28 238 -14 q 90 149 122 69 q 58 338 58 228 q 110 630 58 481 q 259 878 163 779 q 483 978 356 978 q 668 886 603 978 q 733 615 733 794 q 676 300 733 444 q 523 71 619 156 q 314 -14 426 -14 m 360 92 q 465 150 418 92 q 540 315 513 208 q 568 563 568 422 q 536 792 568 710 q 439 874 504 874 q 331 810 381 874 q 253 635 282 746 q 224 389 224 524 q 260 165 224 238 q 360 92 296 92 z "},"1":{"ha":554,"x_min":58,"x_max":479,"o":"m 72 0 q 58 15 58 0 q 74 63 58 33 q 113 103 89 92 q 140 114 115 104 q 179 131 171 124 q 206 165 199 143 q 217 212 214 188 q 221 244 219 236 l 304 782 l 282 768 q 189 713 218 728 q 142 697 160 697 q 117 708 126 697 q 100 740 108 718 q 96 754 96 749 q 107 768 96 761 q 227 842 174 807 q 379 950 281 876 q 393 962 382 953 q 419 975 404 971 q 454 979 433 979 q 479 978 469 979 l 360 193 q 347 149 356 171 q 328 119 338 128 l 328 117 q 363 112 340 115 q 400 108 386 108 q 438 115 419 108 q 460 122 456 122 q 472 110 472 122 q 453 69 472 94 q 343 0 406 0 q 293 8 329 0 q 201 22 246 22 q 113 11 150 22 q 72 0 76 0 z "},"2":{"ha":646,"x_min":-14,"x_max":597,"o":"m 3 0 q -14 21 -14 0 q -5 54 -14 38 q 24 92 4 71 l 86 157 q 268 358 201 278 q 380 526 335 438 q 425 706 425 615 q 318 847 425 847 q 149 756 228 847 q 113 731 128 731 q 96 747 96 731 q 104 781 96 763 q 115 803 113 799 q 236 929 160 881 q 393 978 313 978 q 538 915 483 978 q 593 744 593 851 q 554 584 593 667 q 433 399 515 501 q 214 157 351 297 l 214 156 q 239 157 224 157 q 324 150 272 157 q 428 143 407 143 q 561 199 532 143 q 568 211 565 206 q 574 219 571 217 q 579 222 576 222 q 592 209 588 222 q 597 175 597 196 q 570 86 597 126 q 497 23 543 46 q 397 0 451 0 q 275 18 356 0 q 138 38 183 38 q 79 31 101 38 q 33 11 57 24 q 3 0 11 0 z "},"3":{"ha":629,"x_min":-17,"x_max":597,"o":"m 206 -14 q 92 10 140 -14 q 17 65 43 33 q -15 124 -10 97 q -17 138 -17 128 q 4 195 -17 167 q 53 242 25 224 q 99 260 82 260 q 106 257 104 260 q 110 244 108 254 q 128 160 118 192 q 167 106 139 128 q 244 83 194 83 q 370 138 324 83 q 417 293 417 192 q 383 427 417 381 q 282 474 349 474 q 224 471 249 474 q 214 469 219 469 q 203 488 201 469 q 225 547 210 539 q 289 558 233 550 q 392 614 344 565 q 439 753 439 663 q 416 840 439 813 q 343 868 393 868 q 273 853 306 868 q 206 804 240 838 q 184 785 193 793 q 169 778 175 778 q 157 796 157 778 q 175 851 157 817 q 276 942 210 907 q 414 978 342 978 q 548 926 499 978 q 597 782 597 874 q 556 640 597 700 q 428 533 515 581 l 428 532 q 536 455 499 508 q 574 328 574 401 q 521 158 574 238 q 383 33 468 79 q 206 -14 297 -14 z "},"4":{"ha":688,"x_min":7,"x_max":704,"o":"m 342 0 q 317 5 324 0 q 311 24 310 10 l 354 278 l 88 278 q 14 336 7 278 l 21 382 l 136 529 q 322 803 274 707 q 328 813 325 807 q 333 822 331 819 q 342 824 336 824 q 381 803 363 824 q 399 758 399 783 q 396 740 399 751 q 229 494 382 694 l 151 396 l 378 396 l 454 863 q 483 915 458 888 q 540 960 507 942 q 604 978 572 978 q 626 961 626 978 q 613 926 626 953 q 593 851 600 899 l 517 394 l 558 394 q 613 401 590 394 q 660 418 635 407 q 689 428 682 428 q 704 410 704 428 q 681 356 704 388 q 618 301 657 324 q 533 278 579 278 l 496 278 l 458 40 q 418 11 456 22 q 342 0 381 0 z "},"5":{"ha":656,"x_min":-28,"x_max":725,"o":"m 210 -14 q 92 9 147 -14 q 5 67 38 32 q -28 135 -28 101 q -6 192 -28 163 q 46 240 17 221 q 93 260 75 260 q 103 256 100 260 q 107 244 106 253 q 123 163 113 196 q 162 106 133 129 q 244 83 190 83 q 374 140 328 83 q 421 294 421 196 q 394 412 421 365 q 307 490 367 458 q 142 551 247 522 l 286 964 q 383 963 338 967 q 438 957 429 958 q 543 950 496 950 q 663 964 621 950 q 711 978 704 978 q 725 967 725 978 q 699 910 725 949 q 622 842 672 872 q 500 813 571 813 q 425 818 481 813 q 342 824 367 824 l 286 658 q 502 538 428 615 q 576 347 576 460 q 525 169 576 253 q 389 36 474 86 q 210 -14 304 -14 z "},"6":{"ha":653,"x_min":58,"x_max":674,"o":"m 321 -14 q 192 24 251 -14 q 95 137 132 61 q 58 322 58 213 q 126 625 58 472 q 319 878 193 778 q 611 978 444 978 q 658 973 643 978 q 674 954 674 968 q 663 939 674 943 q 629 932 653 935 q 381 810 476 908 q 242 525 285 711 q 393 581 315 581 q 503 545 454 581 q 578 449 551 510 q 606 314 606 389 q 567 150 606 225 q 464 31 529 75 q 321 -14 399 -14 m 339 79 q 417 129 388 79 q 447 268 447 179 q 419 410 447 357 q 342 464 390 464 q 285 450 315 464 q 225 410 254 436 q 217 307 217 382 q 250 143 217 207 q 339 79 283 79 z "},"7":{"ha":619,"x_min":76,"x_max":719,"o":"m 142 -14 q 129 -10 132 -14 q 126 8 126 -6 q 172 245 126 108 q 286 507 218 382 q 515 826 381 679 l 504 826 q 397 838 461 826 q 294 849 333 849 q 197 836 236 849 q 121 804 158 824 q 106 797 117 803 q 88 792 94 792 q 76 813 76 792 q 106 884 76 849 q 188 942 135 919 q 310 964 242 964 q 414 951 357 964 q 532 938 481 938 q 603 942 574 938 q 675 957 633 947 q 708 964 700 964 q 717 960 715 964 q 719 947 719 957 q 710 915 719 931 q 681 881 700 900 q 564 757 604 804 q 486 651 524 710 q 407 501 449 592 q 335 306 357 393 q 293 64 314 218 q 263 22 290 39 q 200 -5 235 4 q 142 -14 165 -14 z "},"8":{"ha":658,"x_min":63,"x_max":626,"o":"m 286 -14 q 124 44 186 -14 q 63 201 63 103 q 110 366 63 289 q 257 504 158 443 q 174 623 196 578 q 153 717 153 668 q 188 850 153 790 q 284 944 224 910 q 415 978 344 978 q 567 922 507 978 q 626 775 626 865 q 584 644 626 704 q 450 526 542 583 q 539 388 510 453 q 568 258 568 322 q 531 121 568 183 q 428 22 493 58 q 286 -14 364 -14 m 394 590 q 490 775 490 668 q 466 856 490 828 q 401 885 442 885 q 328 853 357 885 q 300 768 300 822 q 321 688 300 725 q 394 590 342 650 m 296 78 q 376 117 344 78 q 407 218 407 157 q 311 443 407 322 q 226 343 257 401 q 196 215 196 285 q 223 114 196 150 q 296 78 250 78 z "},"9":{"ha":651,"x_min":72,"x_max":644,"o":"m 128 -14 q 72 10 72 -14 q 81 24 72 21 q 117 33 89 28 q 325 158 240 56 q 451 432 410 260 q 307 389 382 389 q 151 456 208 389 q 93 636 93 524 q 133 806 93 728 q 242 931 172 885 q 394 978 311 978 q 576 890 507 978 q 644 644 644 803 q 572 326 644 479 q 378 80 499 174 q 128 -14 258 -14 m 357 496 q 468 551 410 496 q 479 675 479 608 q 381 882 479 882 q 290 824 325 882 q 256 658 256 765 q 283 539 256 582 q 357 496 310 496 z "},"\u0000":{"ha":0,"x_min":0,"x_max":0,"o":""},"\r":{"ha":389,"x_min":0,"x_max":0,"o":""}," ":{"ha":389,"x_min":0,"x_max":0,"o":""},"A":{"ha":797,"x_min":-72,"x_max":790,"o":"m 586 -14 q 531 9 550 -14 q 500 83 511 32 q 485 188 489 131 q 481 325 482 244 l 453 311 l 308 311 q 246 194 286 246 q 157 115 206 142 l 157 114 q 199 106 176 106 q 235 113 215 106 q 258 119 254 119 q 267 107 267 119 q 253 69 267 89 q 203 17 231 35 q 149 0 175 0 q 88 11 132 0 q 24 22 40 22 q -26 11 3 22 q -60 0 -54 0 q -69 4 -65 0 q -72 14 -72 8 q -60 56 -72 29 q -31 89 -47 82 q 10 103 -18 96 q 100 164 64 122 q 163 267 136 206 q 229 443 189 328 q 297 628 269 561 q 364 757 325 696 q 457 863 403 818 l 457 864 q 408 869 444 864 q 328 876 350 876 q 206 848 260 876 q 119 765 153 819 q 102 743 107 749 q 89 738 97 738 q 78 754 78 738 q 83 788 78 771 q 184 926 108 874 q 368 978 260 978 q 489 964 411 978 q 610 950 569 950 q 706 964 667 950 l 706 963 q 647 763 667 894 q 626 451 626 631 q 644 169 626 292 q 656 133 647 143 q 683 122 665 122 q 716 130 700 122 q 754 151 732 138 q 782 167 775 167 q 790 151 790 167 q 778 114 790 135 q 692 25 749 64 q 586 -14 636 -14 m 481 428 q 497 646 485 554 q 532 825 508 738 l 531 825 q 430 692 472 778 q 357 476 388 606 l 344 428 l 481 428 z "},"B":{"ha":801,"x_min":44,"x_max":767,"o":"m 58 0 q 44 19 44 0 q 60 67 44 46 q 101 108 75 88 q 140 146 129 131 q 156 193 150 161 l 232 701 q 260 755 236 728 q 318 799 285 782 q 385 817 351 817 q 407 803 407 817 q 394 769 407 794 q 374 690 382 743 l 353 546 l 468 546 q 566 613 529 560 q 603 738 603 667 q 560 841 603 808 q 425 874 517 874 q 240 835 311 874 q 113 738 168 796 q 85 711 94 718 q 67 704 76 704 q 51 722 51 704 q 58 751 51 728 q 142 863 83 811 q 288 947 200 915 q 482 978 376 978 q 692 924 618 978 q 767 768 767 871 q 610 524 767 617 q 715 422 678 479 q 751 299 751 365 q 697 145 751 214 q 558 38 643 76 q 382 0 472 0 q 251 13 349 0 q 164 21 182 21 q 89 7 138 21 q 58 0 68 0 m 400 121 q 542 158 493 121 q 590 267 590 194 q 479 440 590 379 l 335 440 l 300 200 q 292 163 297 176 q 278 136 288 150 l 279 135 q 334 125 299 129 q 400 121 369 121 z "},"C":{"ha":775,"x_min":72,"x_max":789,"o":"m 347 -14 q 144 76 215 -14 q 72 342 72 165 q 145 667 72 521 q 338 895 218 813 q 596 978 458 978 q 736 945 683 978 q 789 856 789 913 q 761 768 789 819 q 738 737 749 749 q 713 725 726 725 q 696 735 700 725 q 689 763 692 746 q 683 789 686 779 q 554 874 663 874 q 388 810 460 874 q 276 635 315 747 q 238 382 238 524 q 280 179 238 244 q 414 114 322 114 q 558 163 504 114 q 654 285 613 211 q 683 308 667 308 q 697 290 697 308 q 689 250 697 278 q 560 57 653 128 q 347 -14 468 -14 z "},"D":{"ha":876,"x_min":38,"x_max":842,"o":"m 53 0 q 38 15 38 0 q 48 55 38 31 q 81 99 58 79 q 124 140 115 126 q 143 201 133 154 l 231 699 q 258 753 235 725 q 317 799 282 781 q 385 817 351 817 q 400 813 396 817 q 404 803 404 810 q 393 767 404 794 q 372 689 382 739 l 281 179 q 258 122 276 147 l 258 121 q 357 114 294 114 q 529 169 457 114 q 639 322 601 224 q 676 547 676 419 q 608 798 676 718 q 394 878 539 878 q 236 848 304 878 q 115 756 168 818 q 90 731 99 738 q 69 724 82 724 q 53 742 53 724 q 60 772 53 751 q 202 922 101 867 q 444 978 303 978 q 737 871 632 978 q 842 558 842 764 q 781 276 842 403 q 608 74 721 149 q 347 0 496 0 q 231 11 300 0 q 150 19 172 19 q 88 10 115 19 q 53 0 61 0 z "},"E":{"ha":711,"x_min":38,"x_max":756,"o":"m 51 0 q 38 17 38 0 q 74 92 38 51 q 115 153 103 125 q 143 260 128 182 l 239 844 l 232 844 q 142 832 175 844 q 88 804 110 819 q 60 789 65 789 q 50 803 50 789 q 53 824 50 810 q 139 925 68 886 q 318 964 210 964 q 436 957 367 964 q 569 950 547 950 q 656 956 624 950 q 710 970 688 963 q 742 978 733 978 q 752 975 749 978 q 756 964 756 972 q 734 910 756 942 q 671 856 713 879 q 569 832 629 832 q 513 835 557 832 q 388 840 446 840 l 342 554 l 610 554 q 619 550 615 554 q 624 540 624 546 q 606 502 624 529 q 564 453 589 475 q 514 431 539 431 q 471 436 507 431 q 371 447 415 447 l 322 447 l 279 189 q 270 158 275 172 q 264 138 265 144 l 264 136 q 400 119 339 119 q 588 160 518 119 q 619 174 608 174 q 632 157 632 174 q 599 84 632 121 q 508 24 565 47 q 382 0 451 0 q 306 6 349 0 q 254 13 264 11 q 153 24 179 24 q 88 12 115 24 q 51 0 60 0 z "},"F":{"ha":704,"x_min":38,"x_max":763,"o":"m 46 0 q 38 17 38 0 q 49 51 38 35 q 81 89 60 68 q 113 124 103 110 q 130 165 122 139 q 146 244 138 192 l 246 844 l 239 844 q 149 832 182 844 q 94 804 117 819 q 67 789 72 789 q 57 803 57 789 q 60 824 57 810 q 146 925 75 886 q 325 964 217 964 q 443 957 374 964 q 576 950 554 950 q 663 956 631 950 q 717 970 694 963 q 749 978 740 978 q 759 975 756 978 q 763 964 763 972 q 741 910 763 942 q 678 856 719 879 q 576 832 636 832 q 519 835 564 832 q 394 840 453 840 l 343 526 l 611 526 q 625 517 625 526 q 608 476 625 504 q 565 425 590 447 q 515 403 540 403 q 474 408 507 403 q 371 421 411 421 l 324 421 l 285 182 q 253 122 279 149 l 253 121 q 308 107 272 107 q 348 115 329 107 q 372 122 367 122 q 385 110 385 122 q 367 72 385 94 q 258 0 311 0 q 226 4 244 0 q 201 10 207 8 q 135 22 164 22 q 78 11 104 22 q 46 0 51 0 z "},"G":{"ha":819,"x_min":72,"x_max":789,"o":"m 321 -354 q 216 -338 263 -354 q 143 -297 169 -322 q 117 -250 117 -272 q 138 -198 117 -229 q 185 -144 158 -167 q 228 -121 213 -121 q 238 -128 236 -121 q 284 -217 254 -182 q 379 -253 314 -253 q 456 -228 426 -253 q 503 -145 485 -203 q 536 17 522 -87 l 546 86 q 335 0 457 0 q 142 86 211 0 q 72 343 72 172 q 144 665 72 519 q 337 894 217 810 q 597 978 457 978 q 737 945 685 978 q 789 856 789 913 q 761 768 789 819 q 738 737 749 749 q 713 725 726 725 q 696 735 700 725 q 689 763 692 746 q 683 789 686 779 q 554 874 663 874 q 387 809 458 874 q 276 633 315 744 q 238 385 238 522 q 278 188 238 249 q 401 128 318 128 q 565 224 510 128 l 594 431 q 624 493 599 467 q 681 533 649 519 q 740 547 714 547 q 756 544 751 547 q 761 533 761 542 q 746 498 761 525 q 725 422 731 471 l 686 99 q 564 -235 660 -115 q 321 -354 468 -354 z "},"H":{"ha":978,"x_min":31,"x_max":1219,"o":"m 679 -14 q 603 88 603 -14 q 608 144 603 100 l 653 451 l 354 451 l 307 181 q 275 119 300 138 l 275 117 q 328 107 301 107 q 365 115 347 107 q 389 122 383 122 q 400 110 400 122 q 382 72 400 94 q 327 16 350 32 q 281 0 304 0 q 226 10 268 0 q 158 22 186 22 q 103 11 129 22 q 72 0 78 0 q 63 17 63 0 q 107 89 63 50 q 138 124 128 110 q 154 165 147 139 q 171 244 161 192 l 268 840 q 236 844 258 840 q 186 849 214 849 q 119 838 146 849 q 69 797 92 826 q 56 781 63 788 q 42 775 49 775 q 31 789 31 775 q 33 807 31 799 q 35 818 35 815 q 103 924 47 883 q 238 964 158 964 q 290 961 254 964 q 357 957 322 957 q 419 961 369 957 q 454 964 444 964 q 403 765 417 853 l 372 569 l 672 569 l 706 761 q 788 1028 736 931 q 922 1170 839 1126 q 1133 1219 1004 1214 q 1182 1225 1165 1219 q 1198 1231 1192 1228 q 1208 1233 1204 1233 q 1219 1218 1219 1233 q 1193 1167 1219 1193 q 1113 1133 1167 1142 q 1038 1125 1099 1132 q 932 1038 978 1118 q 861 797 886 958 l 765 181 q 761 149 761 160 q 767 129 761 135 q 782 124 772 124 q 850 163 811 124 q 868 178 860 171 q 883 185 876 185 q 892 169 892 185 q 858 94 892 139 q 774 18 824 50 q 679 -14 724 -14 z "},"I":{"ha":553,"x_min":38,"x_max":563,"o":"m 49 0 q 38 14 38 0 q 53 63 38 33 q 92 103 69 92 q 117 115 97 106 q 144 131 138 124 q 165 168 158 142 q 178 244 172 194 l 265 858 q 208 854 238 858 q 154 846 179 851 q 121 840 129 840 q 108 856 108 840 q 119 892 108 872 q 236 964 156 964 l 307 964 q 458 968 406 964 q 551 975 558 975 q 563 961 563 975 q 551 932 563 950 q 535 903 544 921 q 514 878 525 885 q 482 869 503 872 l 447 867 q 414 864 433 867 l 317 193 q 306 149 314 169 q 286 119 297 129 l 286 117 q 357 108 342 108 q 399 115 383 108 q 418 122 415 122 q 429 110 429 122 q 411 69 429 99 q 301 0 363 0 q 250 8 286 0 q 163 22 200 22 q 86 11 118 22 q 49 0 54 0 z "},"J":{"ha":660,"x_min":-76,"x_max":653,"o":"m 136 -293 q 14 -259 61 -293 q -53 -183 -33 -225 q -76 -114 -74 -142 q -52 -58 -76 -89 q 3 -6 -28 -28 q 51 15 35 15 q 65 -3 64 15 q 108 -142 78 -96 q 196 -187 138 -187 q 302 -117 264 -187 q 364 121 340 -46 l 465 825 l 457 825 q 392 833 439 825 q 275 846 319 846 q 195 835 232 846 q 128 797 158 825 q 113 784 122 793 q 96 775 104 775 q 86 790 86 775 q 89 815 86 801 q 172 924 107 883 q 324 964 236 964 q 426 957 364 964 q 483 953 444 956 q 547 950 522 950 q 653 964 594 950 q 603 765 617 865 l 524 201 q 448 -62 503 49 q 313 -233 393 -174 q 136 -293 232 -293 z "},"K":{"ha":885,"x_min":31,"x_max":1206,"o":"m 651 -14 q 573 35 611 -14 q 476 193 535 83 l 350 436 l 307 178 q 275 115 300 136 l 275 114 q 328 106 292 106 q 366 113 349 106 q 389 121 383 121 q 400 108 400 121 q 385 71 400 93 q 331 13 354 28 q 282 -3 308 -3 q 226 8 265 -3 q 164 19 188 19 q 107 8 133 19 q 76 -3 81 -3 q 67 14 67 -3 q 78 49 67 33 q 110 86 89 65 q 152 142 140 114 q 175 242 164 171 l 272 840 q 238 844 264 840 q 186 849 213 849 q 119 838 146 849 q 69 797 92 826 q 56 781 63 788 q 42 775 49 775 q 31 789 31 775 q 33 807 31 799 q 35 818 35 815 q 78 910 47 881 q 156 949 110 940 q 279 957 201 957 l 357 957 q 414 961 368 957 q 447 964 436 964 q 404 778 424 885 l 381 625 l 561 844 q 725 1026 656 957 q 869 1140 794 1094 q 990 1194 935 1182 q 1119 1208 1044 1206 q 1165 1214 1150 1208 q 1182 1219 1175 1217 q 1193 1222 1189 1222 q 1206 1207 1206 1222 q 1174 1151 1206 1179 q 1097 1121 1142 1124 q 1010 1106 1047 1118 q 919 1056 972 1094 q 717 854 825 986 l 451 533 l 629 213 q 668 152 653 169 q 703 135 683 135 q 749 158 728 135 q 785 207 771 182 q 801 230 794 224 q 817 236 808 236 q 828 215 828 236 q 799 122 828 176 q 729 26 771 67 q 651 -14 688 -14 z "},"L":{"ha":703,"x_min":-62,"x_max":696,"o":"m -50 0 q -60 3 -57 0 q -62 17 -62 7 q -27 103 -62 64 q 49 143 8 143 l 79 143 q 124 286 110 188 l 200 746 q 242 861 211 808 q 328 964 272 914 q 432 1036 378 1011 q 551 1061 486 1061 q 608 1056 583 1061 q 663 1042 633 1051 q 696 1024 696 1031 q 675 994 696 1013 q 626 961 654 975 q 582 947 599 947 q 549 956 575 947 q 493 964 522 964 q 425 946 449 964 q 381 885 397 925 q 351 769 364 846 l 267 251 q 218 136 254 176 l 218 135 q 305 125 251 129 q 401 121 358 121 q 524 133 482 121 q 608 175 567 146 q 638 189 622 189 q 649 169 649 189 q 610 92 649 132 q 504 26 571 53 q 357 0 438 0 q 211 11 317 0 q 60 24 114 24 q 4 19 24 24 q -29 7 -15 14 q -50 0 -43 0 z "},"M":{"ha":1106,"x_min":31,"x_max":1347,"o":"m 53 0 q 44 17 44 0 q 55 53 44 36 q 88 89 65 69 q 119 124 110 111 q 137 160 129 136 q 156 232 144 183 l 282 840 l 274 840 q 244 843 267 840 q 186 849 217 849 q 119 838 146 849 q 69 797 92 826 q 56 781 63 788 q 43 775 49 775 q 31 789 31 775 q 33 811 31 803 q 101 923 47 882 q 238 964 156 964 q 290 961 254 964 q 357 957 322 957 q 419 961 369 957 q 454 964 444 964 q 451 901 451 928 q 464 783 451 850 q 504 594 476 715 l 547 410 q 560 361 557 382 q 749 709 703 619 q 828 868 796 799 q 854 924 844 901 q 955 1096 910 1038 q 1063 1185 1000 1154 q 1151 1213 1104 1206 q 1261 1219 1199 1219 q 1308 1225 1293 1219 q 1325 1231 1318 1228 q 1336 1233 1332 1233 q 1347 1218 1347 1233 q 1313 1161 1347 1189 q 1239 1133 1278 1133 q 1164 1128 1193 1132 q 1107 1111 1135 1124 q 1026 1021 1054 1086 q 981 826 999 956 q 963 693 971 767 q 949 540 956 619 q 914 203 931 338 q 903 155 913 176 q 882 122 894 133 l 882 121 q 938 107 910 107 q 977 115 957 107 q 1003 122 997 122 q 1010 119 1008 122 q 1013 108 1013 117 q 996 72 1013 90 q 888 0 940 0 q 833 10 868 0 q 807 17 829 11 q 763 22 785 22 q 708 11 733 22 q 676 0 682 0 q 667 17 667 0 q 711 89 667 54 l 736 108 q 759 128 753 121 q 767 153 765 136 l 769 182 q 800 487 792 424 q 818 638 808 550 l 817 638 q 696 422 758 544 q 594 200 633 300 q 523 100 564 149 q 467 51 482 51 q 460 56 463 51 q 458 69 458 61 q 441 216 447 169 q 414 357 435 263 q 385 479 404 399 q 358 604 367 560 l 357 606 l 272 185 q 263 155 271 181 q 244 119 256 129 l 244 117 q 294 107 271 107 q 331 115 315 107 q 353 122 347 122 q 364 108 364 122 q 347 72 364 96 q 294 15 317 31 q 244 0 272 0 q 197 11 225 0 q 142 22 164 22 q 83 11 110 22 q 53 0 57 0 z "},"N":{"ha":960,"x_min":31,"x_max":1235,"o":"m 611 -14 q 598 -10 601 -14 q 594 1 594 -7 q 600 33 594 6 q 613 126 613 86 q 596 206 613 167 q 517 358 568 256 l 429 533 q 385 639 407 574 l 382 639 l 307 181 q 275 119 300 138 l 275 117 q 328 107 301 107 q 365 115 347 107 q 389 122 382 122 q 400 110 400 122 q 382 72 400 94 q 331 15 354 31 q 282 0 308 0 q 229 11 265 0 q 167 22 190 22 q 111 11 138 22 q 79 0 85 0 q 71 17 71 0 q 114 89 71 49 q 147 125 136 110 q 164 165 157 140 q 179 244 171 190 l 281 840 l 272 840 q 244 843 264 840 q 186 849 214 849 q 119 838 146 849 q 69 797 92 826 q 56 781 63 788 q 42 775 49 775 q 31 789 31 775 q 33 807 31 799 q 35 818 35 815 q 103 924 47 883 q 238 964 158 964 q 290 961 254 964 q 357 957 322 957 q 419 961 369 957 q 454 964 444 964 q 444 901 444 936 q 469 776 444 839 q 558 583 493 714 l 631 439 l 650 399 q 669 357 661 376 l 672 357 l 739 775 q 803 1008 763 921 q 904 1146 844 1096 q 1011 1201 956 1188 q 1149 1219 1067 1215 q 1197 1225 1181 1219 q 1213 1231 1206 1228 q 1225 1233 1221 1233 q 1235 1218 1235 1233 q 1202 1160 1235 1185 q 1126 1133 1169 1135 q 1036 1119 1068 1129 q 975 1076 1004 1108 q 917 972 940 1039 q 875 797 893 904 l 767 165 q 733 84 760 126 q 673 14 707 42 q 611 -14 639 -14 z "},"O":{"ha":858,"x_min":72,"x_max":824,"o":"m 332 -14 q 139 79 206 -14 q 72 317 72 172 q 135 617 72 463 q 310 875 199 772 q 558 978 422 978 q 755 883 686 978 q 824 626 824 789 q 753 310 824 458 q 569 74 683 163 q 332 -14 456 -14 m 394 93 q 537 165 476 93 q 628 351 597 238 q 658 588 658 465 q 620 796 658 721 q 507 871 582 871 q 370 802 432 871 q 273 617 308 733 q 238 367 238 501 q 394 93 238 93 z "},"P":{"ha":785,"x_min":58,"x_max":765,"o":"m 67 0 q 58 17 58 0 q 101 89 58 49 q 142 144 131 117 q 165 244 154 171 l 239 699 q 268 753 243 726 q 328 799 293 781 q 394 817 363 817 q 417 803 417 817 q 405 772 417 796 q 385 689 393 749 l 350 476 q 403 472 371 472 q 560 533 501 472 q 618 694 618 594 q 567 828 618 785 q 411 871 515 871 q 121 758 240 871 q 104 742 115 753 q 86 727 93 731 q 72 724 79 724 q 61 728 64 724 q 58 740 58 732 q 65 768 58 753 q 139 870 88 822 q 269 948 190 918 q 447 978 349 978 q 678 916 592 978 q 765 744 765 854 q 709 565 765 650 q 554 425 653 479 q 336 367 456 371 l 304 182 q 294 149 303 165 q 274 121 285 132 l 274 119 q 329 107 293 107 q 368 115 349 107 q 393 122 388 122 q 402 119 400 122 q 404 110 404 117 q 399 91 404 100 q 388 72 394 82 q 279 0 332 0 q 247 4 265 0 q 222 10 228 8 q 156 22 185 22 q 99 11 125 22 q 67 0 72 0 z "},"Q":{"ha":851,"x_min":44,"x_max":1007,"o":"m 992 -132 q 1003 -137 1000 -132 q 1006 -151 1007 -143 q 976 -239 1006 -187 q 888 -329 946 -290 q 747 -368 829 -368 q 532 -283 632 -368 q 326 -12 432 -197 q 304 -14 319 -14 q 111 79 178 -14 q 44 317 44 172 q 108 617 44 463 q 283 875 171 772 q 531 978 394 978 q 727 883 658 978 q 796 626 796 789 q 751 372 796 493 q 630 159 707 250 q 458 24 553 68 q 627 -196 554 -133 q 783 -258 700 -258 q 887 -233 842 -258 q 961 -164 932 -208 q 970 -149 964 -158 q 981 -135 976 -139 q 992 -132 985 -132 m 210 367 q 367 93 210 93 q 509 165 449 93 q 600 351 569 238 q 631 588 631 465 q 592 796 631 721 q 479 871 554 871 q 342 802 404 871 q 245 617 281 733 q 210 367 210 501 z "},"R":{"ha":847,"x_min":58,"x_max":851,"o":"m 694 -14 q 544 121 600 -14 l 457 331 q 430 389 439 374 q 401 413 421 404 q 343 422 382 422 l 304 182 q 272 121 297 143 l 272 119 q 322 107 293 107 q 358 115 340 107 q 382 122 375 122 q 393 110 393 122 q 379 72 393 96 q 279 0 338 0 q 249 4 267 0 q 224 10 231 8 q 156 22 183 22 q 100 11 125 22 q 69 0 75 0 q 58 17 58 0 q 103 89 58 50 q 144 145 132 118 q 169 244 157 172 l 242 699 q 271 753 246 726 q 330 799 296 781 q 396 817 364 817 q 414 813 410 817 q 418 803 418 810 q 404 768 418 794 q 382 689 390 742 l 351 490 q 404 486 372 486 q 553 540 503 486 q 604 694 604 594 q 560 828 604 785 q 410 871 515 871 q 251 842 325 871 q 121 758 178 813 q 104 742 115 753 q 86 727 93 731 q 72 724 79 724 q 61 728 64 724 q 58 740 58 732 q 65 768 58 753 q 140 872 88 824 q 271 949 192 919 q 450 978 350 978 q 672 916 592 978 q 751 742 751 854 q 688 570 751 644 q 511 457 624 496 q 600 364 574 426 l 672 189 q 704 134 689 147 q 740 121 719 121 q 810 160 782 121 q 821 175 815 168 q 833 182 826 182 q 851 149 851 182 q 831 69 851 107 q 774 9 810 32 q 694 -14 738 -14 z "},"S":{"ha":654,"x_min":3,"x_max":640,"o":"m 222 -14 q 106 11 156 -14 q 31 73 57 36 q 3 146 6 110 q 23 222 3 181 q 71 292 43 263 q 114 321 99 321 q 124 304 121 321 q 147 176 135 219 q 185 109 158 132 q 267 86 213 86 q 380 125 342 86 q 418 231 418 164 q 401 308 418 275 q 342 396 385 342 l 210 551 q 167 619 179 588 q 156 689 156 650 q 192 828 156 761 q 298 936 228 894 q 465 978 368 978 q 594 946 547 978 q 640 856 640 914 q 633 809 640 832 q 615 768 626 786 q 588 735 600 744 q 563 725 576 725 q 542 738 547 725 q 533 775 536 751 q 505 856 529 828 q 421 885 481 885 q 324 853 358 885 q 289 772 289 822 q 300 719 289 743 q 335 667 311 694 l 468 514 q 539 410 517 460 q 561 304 561 360 q 514 147 561 221 q 388 30 467 74 q 222 -14 310 -14 z "},"T":{"ha":842,"x_min":65,"x_max":983,"o":"m 236 0 q 225 17 225 0 q 271 89 225 49 q 311 144 300 118 q 336 244 322 171 l 440 839 l 357 839 q 222 818 258 839 q 185 742 185 797 q 196 682 185 707 q 207 651 207 657 q 187 604 207 635 q 142 550 167 574 q 101 526 117 526 q 92 531 96 526 q 88 538 89 536 q 65 651 65 585 q 110 810 65 739 q 235 923 154 882 q 418 964 315 964 l 715 964 q 834 982 800 964 q 868 1047 868 1000 q 854 1106 868 1079 q 840 1139 840 1132 q 859 1181 840 1150 q 900 1237 878 1211 q 933 1263 922 1263 q 940 1260 938 1263 q 944 1257 943 1258 q 974 1197 964 1233 q 983 1119 983 1160 q 887 914 983 989 q 629 839 790 839 l 589 839 l 474 182 q 440 121 464 140 l 440 119 q 496 107 464 107 q 535 115 515 107 q 561 122 556 122 q 570 119 568 122 q 572 110 572 117 q 565 86 572 97 q 557 72 558 75 q 497 16 524 32 q 446 0 471 0 q 416 4 433 0 q 392 10 399 8 q 322 22 351 22 q 267 11 292 22 q 236 0 242 0 z "},"U":{"ha":932,"x_min":24,"x_max":928,"o":"m 418 -14 q 231 64 297 -14 q 164 272 164 142 q 174 375 164 325 l 257 840 q 228 844 250 840 q 179 849 207 849 q 112 838 139 849 q 63 797 85 826 q 49 781 56 788 q 35 775 42 775 q 24 789 24 775 q 26 807 24 799 q 28 818 28 815 q 97 924 40 883 q 231 964 153 964 q 282 961 246 964 q 350 957 314 957 q 386 959 369 957 q 410 961 403 961 q 444 964 432 964 q 388 747 417 917 l 322 371 q 313 268 313 317 q 453 100 313 100 q 598 179 546 100 q 681 446 650 258 l 747 863 q 776 916 751 889 q 837 960 801 943 q 904 978 872 978 q 922 975 917 978 q 928 963 928 972 q 918 936 928 953 q 892 851 899 897 l 825 425 q 746 193 804 293 q 602 40 688 93 q 418 -14 517 -14 z "},"V":{"ha":858,"x_min":49,"x_max":865,"o":"m 364 -14 q 347 -7 350 -14 q 342 12 343 0 q 342 31 342 24 q 307 419 338 174 q 242 774 276 665 q 220 813 231 799 q 188 826 210 826 q 133 797 156 826 q 85 710 111 768 q 73 689 78 694 q 60 683 68 683 q 49 706 49 683 q 78 829 49 765 q 158 935 108 893 q 264 978 207 978 q 339 947 307 978 q 394 838 371 915 q 453 527 429 726 q 476 182 476 328 q 647 503 590 371 q 704 726 704 636 q 693 793 704 771 q 663 831 682 815 q 678 875 656 838 q 732 945 700 913 q 788 978 764 978 q 826 956 807 978 q 855 901 844 935 q 864 832 865 868 q 826 676 863 774 q 724 464 790 579 l 522 121 q 506 96 517 114 q 483 58 496 78 q 426 8 461 29 q 364 -14 392 -14 z "},"W":{"ha":1068,"x_min":49,"x_max":1082,"o":"m 228 -14 q 213 -10 215 -14 q 213 6 210 -6 q 246 340 239 244 q 253 576 253 436 q 249 734 253 682 q 232 808 244 786 q 193 831 219 831 q 133 799 157 831 q 85 713 108 768 q 74 692 79 697 q 60 686 68 686 q 51 692 53 686 q 49 710 49 697 q 78 832 49 769 q 158 936 108 894 q 264 978 207 978 q 346 935 318 978 q 384 808 374 892 q 394 582 394 724 q 389 400 394 450 l 390 400 l 536 700 l 593 819 q 637 880 610 851 q 690 926 664 908 q 731 943 717 943 q 739 932 740 943 q 725 782 725 846 q 739 465 725 685 q 751 293 749 311 l 753 293 q 765 320 757 303 q 783 358 774 338 l 851 501 q 907 639 888 581 q 926 740 926 697 q 916 793 926 775 q 895 819 906 811 q 883 831 885 828 q 902 877 879 840 q 956 946 925 914 q 1004 978 986 978 q 1037 959 1018 978 q 1069 910 1056 940 q 1082 849 1082 881 q 1067 775 1082 817 q 1019 658 1053 733 l 769 128 q 690 15 739 60 q 643 -14 658 -14 q 628 -3 631 -14 q 625 30 625 8 q 625 60 625 51 q 604 392 625 144 q 589 597 593 517 l 588 597 q 500 432 540 519 q 432 280 460 344 q 397 199 404 215 l 365 124 q 272 6 331 50 q 256 -5 269 4 q 228 -14 243 -14 z "},"X":{"ha":888,"x_min":-58,"x_max":921,"o":"m 43 -14 q -28 3 1 -14 q -58 38 -58 19 q -35 87 -58 54 q 16 144 -11 119 q 51 163 43 168 q 76 144 65 150 q 106 138 88 138 q 217 210 154 138 q 354 444 281 283 l 365 465 l 301 718 q 275 806 286 782 q 242 831 264 831 q 194 800 214 831 q 156 717 175 769 q 131 690 146 690 q 122 696 125 690 q 119 717 119 701 q 144 831 119 769 q 213 935 169 893 q 307 978 256 978 q 417 864 389 978 l 476 629 l 510 690 q 663 909 590 840 q 813 978 735 978 q 869 968 844 978 q 907 946 893 958 q 921 925 921 933 q 894 881 921 914 q 839 823 868 849 q 804 803 810 797 q 776 820 786 815 q 751 825 767 825 q 719 817 733 825 q 688 789 704 808 q 603 669 651 747 q 514 508 556 590 l 581 258 q 615 163 599 190 q 660 135 631 135 q 712 160 685 135 q 760 235 739 186 q 769 254 765 249 q 783 260 774 260 q 796 236 796 260 q 767 126 796 185 q 690 26 738 67 q 590 -14 642 -14 q 531 8 557 -14 q 481 89 506 31 q 428 256 457 147 l 408 328 l 403 318 q 228 72 324 158 q 43 -14 133 -14 z "},"Y":{"ha":808,"x_min":65,"x_max":881,"o":"m 185 0 q 175 17 175 0 q 187 52 175 35 q 218 89 199 69 q 258 140 249 118 q 281 229 268 163 l 303 344 q 314 475 314 404 q 299 649 314 564 q 254 790 283 735 q 185 844 225 844 q 100 763 138 844 q 76 740 90 740 q 67 745 69 740 q 65 761 65 750 q 88 856 65 804 q 151 942 111 907 q 238 978 190 978 q 369 875 315 978 q 444 589 424 772 l 446 589 q 601 876 515 775 q 782 978 686 978 q 851 962 821 978 q 881 931 881 946 q 860 878 881 917 q 817 810 840 840 q 782 788 793 781 q 765 803 779 789 q 725 817 750 817 q 619 749 674 817 q 519 576 564 682 q 454 361 475 471 l 422 186 q 390 121 414 144 l 390 119 q 446 107 411 107 q 485 115 465 107 q 510 122 504 122 q 522 110 522 122 q 518 92 522 100 q 504 72 514 85 q 396 0 449 0 q 363 4 382 0 q 339 10 344 8 q 272 22 301 22 q 216 11 242 22 q 185 0 190 0 z "},"Z":{"ha":746,"x_min":-7,"x_max":760,"o":"m 22 0 q 1 17 8 0 q -7 51 -7 33 q 7 93 -7 69 q 92 204 19 115 q 160 289 119 242 l 563 792 l 553 792 q 506 797 528 792 q 454 814 485 803 q 388 833 417 826 q 321 840 360 840 q 157 772 217 840 q 142 752 150 764 q 126 740 133 740 q 111 768 111 740 q 113 788 111 781 q 186 917 126 871 q 342 964 246 964 q 404 958 376 964 q 481 940 432 953 q 601 919 554 919 q 668 931 643 919 q 710 956 693 942 q 732 969 728 969 q 751 952 742 969 q 760 919 760 935 q 748 882 760 901 q 718 839 736 863 l 203 196 l 206 194 q 279 210 236 210 q 328 202 304 210 q 386 181 351 194 q 457 154 429 163 q 515 146 485 146 q 632 218 597 146 q 644 240 639 235 q 656 246 649 246 q 674 203 674 246 q 647 97 674 143 q 576 25 619 50 q 483 0 532 0 q 422 10 451 0 q 343 39 392 19 q 259 69 290 60 q 194 79 228 79 q 117 63 150 79 q 51 18 85 46 q 22 0 28 0 z "},"a":{"ha":654,"x_min":24,"x_max":613,"o":"m 115 -14 q 48 29 72 -14 q 24 144 24 72 q 80 381 24 260 q 233 581 136 501 q 443 661 331 661 q 515 653 479 661 q 572 632 550 644 q 556 582 560 601 q 550 557 551 563 q 522 405 540 507 q 486 210 503 303 q 478 146 478 168 q 483 124 478 131 q 497 117 488 117 q 540 145 521 117 q 582 225 560 174 q 589 239 585 233 q 600 244 593 244 q 613 225 613 244 q 611 210 613 215 q 575 105 604 157 q 503 19 546 53 q 417 -14 461 -14 q 360 13 381 -14 q 340 83 340 39 q 343 117 340 94 l 350 164 l 347 164 q 230 36 296 86 q 115 -14 164 -14 m 194 124 q 273 178 225 124 q 363 315 321 232 q 418 479 404 397 l 428 533 q 364 554 393 554 q 274 499 319 554 q 201 358 229 444 q 172 181 172 271 q 177 135 172 147 q 194 124 182 124 z "},"b":{"ha":606,"x_min":31,"x_max":624,"o":"m 199 -14 q 159 -11 176 -14 q 138 -7 142 -8 q 86 0 113 0 q 33 -7 54 0 l 31 -7 q 58 114 49 56 l 144 636 q 214 924 174 810 q 318 1106 254 1039 q 421 1175 368 1156 q 536 1204 474 1194 q 593 1215 579 1211 q 611 1218 607 1218 q 624 1203 624 1218 q 613 1174 624 1192 q 588 1140 603 1157 q 557 1124 572 1129 q 519 1119 542 1119 q 445 1099 481 1117 q 381 1036 410 1082 q 320 885 346 983 q 268 593 294 788 l 253 481 l 256 481 q 365 612 306 563 q 479 661 425 661 q 579 483 579 661 q 528 235 579 350 q 390 53 478 121 q 199 -14 303 -14 m 264 94 q 352 141 314 94 q 411 265 390 188 q 432 431 432 342 q 425 497 432 475 q 400 518 418 518 q 326 467 369 518 q 247 337 282 417 q 201 175 213 257 l 193 117 q 264 94 225 94 z "},"c":{"ha":510,"x_min":24,"x_max":500,"o":"m 171 -14 q 63 37 103 -14 q 24 175 24 88 q 78 395 24 281 q 222 585 133 510 q 403 661 310 661 q 473 644 446 661 q 500 597 500 626 q 476 533 500 576 q 453 514 465 514 q 436 522 443 514 q 351 560 399 560 q 259 521 300 560 q 195 415 218 482 q 172 264 172 347 q 192 155 172 189 q 257 121 213 121 q 388 224 331 121 q 399 244 394 239 q 411 249 404 249 q 425 224 425 249 q 388 120 425 176 q 291 25 350 64 q 171 -14 232 -14 z "},"d":{"ha":643,"x_min":24,"x_max":907,"o":"m 115 -14 q 48 29 72 -14 q 24 144 24 72 q 79 378 24 257 q 228 581 135 500 q 428 661 321 661 l 432 661 q 513 944 476 849 q 611 1103 550 1039 q 712 1176 664 1157 q 821 1204 760 1194 q 879 1215 865 1211 q 896 1218 893 1218 q 907 1203 907 1218 q 897 1173 907 1190 q 874 1140 888 1156 q 843 1124 858 1128 q 804 1119 828 1119 q 674 1033 725 1114 q 622 904 643 985 q 557 590 601 824 q 515 363 557 586 q 486 210 489 225 q 478 146 478 168 q 483 124 478 131 q 497 117 488 117 q 540 144 521 117 q 582 225 558 172 q 586 233 583 226 q 592 242 589 239 q 600 244 596 244 q 611 219 611 244 q 582 117 611 172 q 507 24 553 63 q 417 -14 461 -14 q 360 13 381 -14 q 340 83 340 39 q 343 117 340 94 l 350 164 l 347 164 q 230 36 296 86 q 115 -14 164 -14 m 194 124 q 273 178 225 124 q 363 315 321 232 q 418 479 404 397 l 428 533 q 364 554 393 554 q 274 499 319 554 q 201 358 229 444 q 172 181 172 271 q 177 135 172 147 q 194 124 182 124 z "},"e":{"ha":503,"x_min":24,"x_max":479,"o":"m 178 -14 q 65 35 106 -14 q 24 174 24 85 q 77 392 24 278 q 213 584 131 507 q 379 661 296 661 q 452 635 425 661 q 479 558 479 608 q 439 430 479 496 q 328 308 399 364 q 171 217 258 251 q 256 121 175 121 q 340 149 300 121 q 410 224 379 176 q 422 242 417 236 q 433 249 428 249 q 444 243 442 249 q 447 224 447 238 q 408 122 447 179 q 306 26 368 65 q 178 -14 243 -14 m 206 331 q 268 352 236 331 q 321 408 300 374 q 342 483 342 443 q 301 533 342 533 q 224 479 258 533 q 179 335 189 425 q 206 331 188 331 z "},"f":{"ha":568,"x_min":-228,"x_max":738,"o":"m -107 -554 q -162 -547 -146 -554 q -199 -515 -178 -539 q -228 -458 -228 -478 q -210 -444 -228 -444 q -169 -453 -199 -444 q -78 -468 -117 -468 q 35 -440 -8 -468 q 105 -343 78 -412 q 151 -142 132 -274 l 253 533 l 188 533 q 133 524 156 533 q 106 514 111 514 q 93 526 93 514 q 100 554 93 540 q 151 620 117 593 q 222 647 185 647 l 271 647 l 274 672 q 458 1106 324 969 q 552 1176 507 1157 q 651 1204 597 1196 q 708 1215 694 1211 q 725 1218 721 1218 q 738 1203 738 1218 q 727 1173 738 1190 q 701 1140 717 1156 q 672 1123 688 1126 q 633 1119 657 1119 q 540 1076 578 1119 q 472 937 501 1033 q 414 672 442 840 l 410 647 l 467 647 q 532 657 508 647 q 561 667 556 667 q 575 653 575 667 q 569 626 575 642 q 520 563 556 592 q 447 533 485 533 l 393 533 l 318 42 q 169 -410 272 -265 q -107 -554 65 -554 z "},"g":{"ha":618,"x_min":-175,"x_max":583,"o":"m 15 -554 q -89 -524 -46 -554 q -153 -449 -132 -494 q -175 -360 -175 -404 q -151 -276 -175 -311 q -97 -224 -126 -242 q -56 -207 -68 -207 q -49 -221 -49 -207 q -19 -390 -49 -342 q 83 -437 10 -437 q 179 -409 142 -437 q 246 -324 217 -381 q 279 -220 267 -281 q 318 17 292 -160 q 338 119 329 86 q 350 164 347 151 l 347 164 q 226 36 293 86 q 110 -14 158 -14 q 44 28 68 -14 q 21 142 21 71 q 81 378 21 257 q 240 581 140 500 q 454 661 340 661 q 525 653 490 661 q 583 632 560 644 l 561 557 q 480 213 493 322 q 465 92 467 103 q 426 -137 444 -56 q 384 -270 408 -218 q 318 -375 360 -322 q 167 -510 246 -465 q 15 -554 88 -554 m 192 124 q 269 178 222 124 q 358 315 317 232 q 414 479 400 397 l 424 533 q 358 554 390 554 q 270 499 314 554 q 198 358 226 444 q 169 181 169 271 q 174 135 169 147 q 192 124 178 124 z "},"h":{"ha":667,"x_min":21,"x_max":622,"o":"m 43 -14 q 21 0 21 -14 q 31 39 21 7 q 49 100 44 79 q 99 411 63 174 l 135 636 q 205 915 163 801 q 311 1100 247 1029 q 408 1174 361 1156 q 525 1204 454 1193 q 583 1215 569 1211 q 601 1218 597 1218 q 613 1203 613 1218 q 602 1173 613 1190 q 576 1140 592 1156 q 510 1119 554 1119 q 435 1096 467 1115 q 374 1033 403 1076 q 310 876 333 972 q 261 590 286 779 l 243 457 l 244 457 q 496 661 390 661 q 549 638 531 661 q 567 563 567 615 q 554 457 567 522 q 514 253 526 313 q 496 144 496 154 q 514 117 496 117 q 553 144 535 117 q 593 225 571 171 q 610 244 600 244 q 622 218 622 244 q 592 115 622 169 q 515 23 561 60 q 422 -14 468 -14 q 353 78 353 -14 q 361 165 353 114 q 386 297 369 217 q 406 406 397 351 q 417 493 415 460 l 417 501 q 401 526 417 526 q 337 477 378 526 q 258 354 296 428 q 208 213 221 281 l 186 100 q 131 22 176 58 q 43 -14 86 -14 z "},"i":{"ha":417,"x_min":44,"x_max":374,"o":"m 215 708 q 203 712 206 708 q 201 725 200 715 l 221 835 q 260 906 229 879 q 347 933 290 933 l 358 933 q 372 918 374 933 l 353 808 q 225 708 336 708 l 215 708 m 157 -14 q 89 78 89 -14 q 96 144 89 103 l 163 481 q 165 511 165 506 q 153 531 165 531 q 124 510 140 531 q 81 444 107 490 q 74 433 79 442 q 65 419 69 424 q 57 415 61 415 q 44 438 44 415 q 78 530 44 476 q 161 622 111 583 q 258 661 211 661 q 317 583 317 661 q 307 507 317 561 l 238 149 q 235 133 235 138 q 250 117 235 117 q 291 146 268 117 q 335 225 314 175 q 351 244 342 244 q 364 221 364 244 q 332 117 364 172 q 252 24 300 63 q 157 -14 204 -14 z "},"j":{"ha":375,"x_min":-347,"x_max":376,"o":"m 218 708 q 206 725 201 708 l 224 835 q 262 907 231 881 q 350 933 293 933 l 361 933 q 373 930 369 933 q 375 918 376 926 l 357 808 q 317 735 349 763 q 229 708 286 708 l 218 708 m -146 -554 q -260 -521 -215 -554 q -326 -444 -306 -487 q -347 -368 -347 -400 q -324 -312 -347 -337 q -272 -273 -301 -287 q -229 -258 -243 -258 q -222 -264 -224 -258 q -221 -279 -221 -269 q -103 -465 -221 -465 q -28 -435 -58 -465 q 26 -333 3 -404 q 69 -132 49 -261 l 167 481 q 169 513 169 506 q 158 531 169 531 q 88 444 133 531 q 81 433 86 442 q 72 419 76 424 q 63 415 68 415 q 50 438 50 415 q 83 530 50 476 q 165 622 117 583 q 260 661 214 661 q 303 643 289 661 q 318 583 318 625 q 310 507 318 553 l 222 -64 q 144 -330 197 -219 q 15 -497 90 -440 q -146 -554 -60 -554 z "},"k":{"ha":633,"x_min":21,"x_max":613,"o":"m 43 -14 q 21 0 21 -14 q 31 35 21 7 q 49 100 42 63 l 135 636 q 206 921 163 810 q 311 1100 250 1032 q 408 1174 363 1156 q 525 1204 454 1193 q 582 1215 567 1211 q 601 1218 597 1218 q 613 1203 613 1218 q 602 1173 613 1190 q 576 1140 592 1156 q 551 1124 564 1128 q 510 1119 538 1121 q 435 1096 467 1115 q 374 1033 403 1076 q 315 883 338 975 q 261 590 293 790 l 224 357 l 225 357 l 257 408 q 367 567 321 513 q 447 642 413 622 q 518 661 481 661 q 586 641 561 661 q 611 586 611 621 q 599 535 611 560 q 572 511 588 511 q 554 519 567 511 q 528 537 542 531 q 496 543 515 543 q 432 522 460 543 q 368 451 404 501 l 301 357 q 460 121 408 121 q 536 189 488 121 q 551 210 544 203 q 565 217 557 217 q 578 196 578 217 q 576 179 578 185 q 546 94 572 140 q 484 17 519 49 q 417 -14 449 -14 q 339 38 376 -14 q 257 182 301 89 l 228 243 q 200 196 206 208 l 182 100 q 131 23 175 60 q 43 -14 86 -14 z "},"l":{"ha":365,"x_min":38,"x_max":589,"o":"m 113 -14 q 38 96 38 -14 q 43 163 38 129 l 126 672 q 198 972 156 860 q 311 1140 240 1085 q 394 1183 353 1172 q 501 1204 435 1194 q 558 1215 544 1211 q 575 1218 571 1218 q 589 1203 589 1218 q 578 1173 589 1190 q 553 1140 568 1156 q 523 1123 538 1126 q 486 1119 508 1119 q 385 1078 425 1119 q 326 974 350 1043 q 282 782 301 906 l 185 169 q 183 146 183 160 q 188 123 183 129 q 200 117 192 117 q 239 146 221 117 q 279 225 257 175 q 286 239 282 233 q 296 244 290 244 q 308 221 308 244 q 278 118 308 174 q 201 24 247 63 q 113 -14 156 -14 z "},"m":{"ha":976,"x_min":44,"x_max":932,"o":"m 99 -14 q 76 0 76 -14 q 83 28 76 7 q 103 100 99 72 q 134 263 114 153 q 164 451 154 372 q 171 511 171 500 q 160 529 171 529 q 85 444 131 529 q 72 424 79 433 q 58 415 65 415 q 44 439 44 415 q 77 530 44 476 q 158 622 110 583 q 250 661 206 661 q 294 642 278 661 q 311 581 311 622 q 300 457 311 526 l 301 457 q 413 605 353 549 q 526 661 472 661 q 597 564 597 661 q 590 494 597 539 l 589 486 l 590 486 q 699 615 644 568 q 803 661 753 661 q 874 561 874 661 q 861 457 874 519 q 833 318 838 338 q 814 215 825 274 q 803 144 803 156 q 821 117 803 117 q 860 144 842 117 q 899 225 878 172 q 918 244 907 244 q 928 235 925 244 q 931 210 932 225 q 894 108 925 160 q 818 21 863 56 q 729 -14 774 -14 q 660 78 660 -14 q 693 299 660 135 q 713 406 704 353 q 724 493 722 460 l 724 501 q 708 526 724 526 q 659 490 689 526 q 599 393 629 453 q 550 271 569 333 l 507 44 q 458 5 503 24 q 382 -14 414 -14 q 367 -9 369 -14 q 367 8 364 -4 q 408 218 368 14 q 451 493 447 422 l 451 504 q 438 526 451 526 q 378 478 414 526 q 310 356 342 429 q 264 213 278 282 l 242 100 q 188 22 233 58 q 99 -14 143 -14 z "},"n":{"ha":724,"x_min":44,"x_max":682,"o":"m 99 -14 q 76 1 76 -14 q 83 31 76 7 q 103 100 90 49 q 131 246 113 140 q 164 451 149 351 q 171 508 171 496 q 158 529 171 529 q 126 508 146 529 q 85 444 107 486 q 72 424 79 433 q 58 415 65 415 q 44 439 44 415 q 77 530 44 476 q 158 622 110 583 q 250 661 206 661 q 294 642 278 661 q 311 581 311 622 q 300 457 311 526 l 301 457 q 551 661 450 661 q 622 563 622 661 q 610 457 622 519 q 564 227 576 294 q 551 146 551 160 q 568 117 551 117 q 647 225 607 117 q 665 244 656 244 q 679 210 682 244 q 643 108 674 161 q 567 21 613 56 q 476 -14 522 -14 q 408 78 408 -14 q 417 165 408 114 q 442 297 425 217 q 462 406 453 351 q 472 493 471 460 l 472 504 q 458 526 472 526 q 393 477 435 526 q 315 354 351 428 q 264 213 278 281 l 242 100 q 188 22 233 58 q 99 -14 143 -14 z "},"o":{"ha":557,"x_min":24,"x_max":525,"o":"m 164 -14 q 61 34 99 -14 q 24 172 24 82 q 80 399 24 285 q 222 587 136 513 q 388 661 307 661 q 489 613 453 661 q 525 476 525 564 q 472 254 525 369 q 334 63 418 139 q 164 -14 250 -14 m 239 107 q 310 148 278 107 q 360 258 342 189 q 378 410 378 328 q 363 510 378 479 q 315 540 347 540 q 245 502 278 540 q 192 397 213 464 q 172 249 172 331 q 239 107 172 107 z "},"p":{"ha":631,"x_min":-417,"x_max":600,"o":"m -192 -554 q -312 -524 -261 -554 q -390 -453 -364 -494 q -417 -383 -417 -412 q -395 -328 -417 -353 q -346 -287 -374 -303 q -301 -272 -318 -272 q -293 -276 -296 -272 q -287 -293 -290 -281 q -241 -427 -271 -389 q -156 -465 -211 -465 q -67 -433 -103 -465 q -7 -331 -32 -401 q 36 -139 18 -260 l 128 447 q 133 504 133 482 q 119 529 133 529 q 88 509 104 529 q 49 443 72 489 q 37 424 43 432 q 24 415 31 415 q 8 439 8 415 q 40 528 8 475 q 118 622 71 582 q 208 661 165 661 q 254 641 238 661 q 271 581 271 621 q 258 457 271 554 l 260 457 q 378 606 313 551 q 500 661 444 661 q 573 617 546 661 q 600 483 600 572 q 547 238 600 353 q 412 55 493 124 q 253 -14 331 -14 q 199 -3 229 -14 l 175 -129 q 102 -353 154 -257 q -26 -501 50 -449 q -192 -554 -101 -554 m 285 94 q 373 141 335 94 q 432 265 411 188 q 453 431 453 342 q 446 497 453 475 q 421 518 439 518 q 347 467 390 518 q 268 337 303 417 q 222 175 233 257 l 214 117 q 285 94 246 94 z "},"q":{"ha":617,"x_min":24,"x_max":586,"o":"m 201 -551 q 190 -547 192 -551 q 188 -531 188 -542 q 224 -464 188 -504 q 260 -414 250 -431 q 276 -375 271 -397 q 292 -294 282 -353 l 368 189 l 367 189 q 239 42 310 97 q 115 -14 168 -14 q 48 28 72 -14 q 24 142 24 71 q 83 378 24 257 q 243 581 143 500 q 457 661 343 661 q 528 653 493 661 q 586 632 564 644 q 570 582 579 614 q 557 526 561 550 l 425 -318 q 365 -443 415 -396 l 365 -444 l 407 -446 q 455 -435 436 -446 q 479 -425 474 -425 q 489 -440 489 -425 q 472 -486 489 -460 q 424 -530 451 -514 q 367 -546 396 -546 q 332 -543 360 -546 q 288 -540 304 -540 q 234 -546 261 -540 q 201 -551 207 -551 m 194 124 q 273 178 225 124 q 363 315 321 232 q 418 479 404 397 l 428 533 q 364 554 393 554 q 274 499 319 554 q 201 358 229 444 q 172 181 172 271 q 177 135 172 147 q 194 124 182 124 z "},"r":{"ha":561,"x_min":44,"x_max":596,"o":"m 100 -14 q 76 3 76 -14 q 87 34 76 10 q 107 110 97 58 l 131 243 q 169 493 168 457 l 169 506 q 157 529 169 529 q 85 444 131 529 q 72 424 79 433 q 58 415 65 415 q 44 439 44 415 q 77 528 44 475 q 158 622 110 582 q 250 661 206 661 q 310 582 310 661 q 299 465 310 565 l 300 465 q 410 615 358 568 q 515 661 463 661 q 574 640 551 661 q 596 581 596 619 q 578 507 596 543 q 536 448 561 471 q 493 425 511 425 q 486 439 482 425 q 490 475 490 458 q 458 511 490 511 q 353 439 406 511 q 272 231 301 367 q 244 96 251 144 q 190 22 238 57 q 100 -14 142 -14 z "},"s":{"ha":515,"x_min":-7,"x_max":481,"o":"m 135 -14 q 58 3 89 -14 q 13 42 28 19 q -3 85 -1 65 q 10 137 -7 110 q 56 186 26 164 q 81 200 74 200 q 91 194 86 200 q 100 178 96 188 q 135 113 114 138 q 196 88 156 88 q 251 106 229 88 q 272 153 272 124 q 260 197 272 171 q 214 272 247 222 l 185 314 q 134 397 147 369 q 121 451 121 424 q 153 556 121 507 q 240 633 186 604 q 354 661 293 661 q 444 640 408 661 q 481 582 481 618 q 457 522 481 556 q 428 500 439 500 q 419 503 422 500 q 413 510 417 506 q 407 519 410 515 q 324 565 375 565 q 269 550 290 565 q 249 507 249 535 q 260 467 249 486 q 294 419 271 449 l 318 389 l 350 347 q 390 280 378 310 q 403 214 403 250 q 360 95 403 147 q 255 15 318 43 q 135 -14 192 -14 z "},"t":{"ha":479,"x_min":31,"x_max":475,"o":"m 193 -14 q 125 15 147 -14 q 103 108 103 44 q 114 215 103 149 l 171 540 l 58 540 q 37 544 43 540 q 31 554 31 547 q 49 589 31 567 q 90 629 67 611 q 128 647 113 647 l 192 647 l 203 719 q 260 811 213 771 q 354 851 308 851 q 372 847 365 851 q 379 835 379 843 q 365 805 379 829 q 344 738 351 781 l 329 647 l 447 647 q 469 645 464 647 q 475 636 475 643 q 456 599 475 622 q 411 558 436 576 q 374 540 386 540 l 311 540 l 256 210 q 246 135 246 161 q 252 108 246 115 q 271 100 258 100 q 357 175 317 100 q 365 190 361 185 q 375 194 369 194 q 389 171 389 194 q 361 91 389 135 q 288 17 333 47 q 193 -14 243 -14 z "},"u":{"ha":726,"x_min":44,"x_max":681,"o":"m 182 -14 q 110 96 110 -14 q 122 213 110 138 l 165 467 q 171 514 171 494 q 158 532 171 532 q 128 513 144 532 q 85 444 113 494 q 72 424 79 433 q 58 415 65 415 q 44 439 44 415 q 78 528 44 475 q 159 622 111 582 q 251 661 207 661 q 298 642 282 661 q 314 589 314 624 q 311 561 314 581 l 251 163 l 251 149 q 254 133 251 138 q 265 128 257 128 q 341 179 297 128 q 422 310 385 231 q 475 472 460 390 l 489 544 q 540 628 499 596 q 632 661 582 661 q 648 658 643 661 q 653 647 653 656 q 646 625 653 642 q 631 563 639 608 q 560 200 618 514 q 553 143 553 169 q 569 117 553 117 q 607 141 592 117 q 651 225 622 165 q 668 244 658 244 q 681 221 681 244 q 651 119 681 175 q 574 25 621 64 q 479 -14 526 -14 q 414 68 414 -14 q 428 181 414 107 l 425 182 q 306 43 371 100 q 182 -14 240 -14 z "},"v":{"ha":633,"x_min":31,"x_max":613,"o":"m 243 -14 q 220 -5 226 -14 q 212 26 214 4 q 208 103 210 47 q 199 304 204 226 q 175 482 189 435 q 136 529 161 529 q 78 467 104 529 q 62 438 68 444 q 46 431 56 431 q 31 454 31 431 q 51 539 31 489 q 108 625 72 589 q 189 661 144 661 q 281 590 251 661 q 322 385 310 518 q 331 274 329 294 q 335 201 331 246 q 338 168 335 176 q 350 160 340 160 q 410 208 375 160 q 469 324 444 257 q 494 444 494 392 q 486 498 494 478 q 465 534 478 518 q 451 558 451 550 q 469 601 451 576 q 510 643 486 625 q 553 661 535 661 q 594 633 575 661 q 613 551 613 606 q 547 316 613 450 q 392 84 481 182 q 243 -14 303 -14 z "},"w":{"ha":817,"x_min":31,"x_max":810,"o":"m 174 -14 q 149 1 149 -14 q 155 22 149 7 q 164 65 161 38 q 169 175 169 103 q 160 396 169 265 q 147 501 153 474 q 122 529 142 529 q 99 515 108 529 q 74 467 89 501 q 59 439 65 447 q 44 431 53 431 q 31 453 31 431 q 51 544 31 494 q 106 627 71 593 q 182 661 140 661 q 279 546 258 661 q 300 251 290 475 q 422 568 378 410 q 531 661 494 661 q 541 656 539 661 q 543 638 543 650 l 544 472 l 560 225 q 652 385 622 325 q 682 493 682 446 q 676 522 682 511 q 660 545 671 533 q 649 565 649 557 q 666 602 649 579 q 708 643 683 625 q 751 661 732 661 q 792 634 775 661 q 810 567 810 607 q 796 498 810 531 q 740 389 782 465 q 704 325 724 363 l 583 106 q 524 28 564 69 q 450 -14 485 -14 q 431 3 431 -14 q 433 18 431 8 q 438 33 436 28 q 450 93 450 74 q 445 213 450 124 q 432 374 440 303 l 431 374 q 370 251 396 313 q 317 96 344 189 q 247 15 285 44 q 174 -14 210 -14 z "},"x":{"ha":669,"x_min":-50,"x_max":663,"o":"m 56 -14 q -44 31 -11 -14 q 4 104 -50 40 l 24 128 q 44 142 36 142 q 56 135 51 142 q 78 115 69 121 q 103 108 88 108 q 150 133 128 108 q 210 218 172 157 l 264 307 l 214 479 q 195 525 204 513 q 174 538 186 538 q 148 522 158 538 q 122 472 138 507 q 108 446 114 453 q 94 439 103 439 q 79 461 79 439 q 98 544 79 496 q 151 626 117 592 q 231 661 186 661 q 301 619 274 661 q 360 464 328 576 l 375 486 q 483 619 438 576 q 575 661 528 661 q 619 652 597 661 q 658 631 642 643 q 663 624 663 626 q 651 601 663 617 q 601 539 631 571 q 563 507 571 507 q 553 513 561 507 q 532 519 546 519 q 481 491 508 519 q 401 385 454 463 l 386 360 q 450 153 413 231 q 489 110 467 110 q 513 124 503 110 q 540 174 524 139 q 556 199 550 192 q 569 207 561 207 q 581 202 578 207 q 583 182 583 197 q 563 98 583 144 q 508 19 542 51 q 436 -14 474 -14 q 369 25 399 -14 q 303 169 339 64 l 294 194 l 286 181 q 169 32 224 78 q 56 -14 115 -14 z "},"y":{"ha":724,"x_min":-79,"x_max":703,"o":"m 110 -554 q 6 -524 49 -554 q -58 -448 -37 -493 q -79 -358 -79 -403 q -56 -276 -79 -311 q -5 -224 -33 -242 q 38 -207 24 -207 q 46 -211 43 -207 q 49 -229 49 -215 q 77 -389 50 -340 q 178 -437 104 -437 q 343 -324 290 -437 q 363 -264 356 -296 q 390 -142 371 -232 l 422 14 l 450 144 l 447 144 q 346 28 394 69 q 260 -14 297 -14 q 186 163 183 -14 l 194 479 q 191 526 196 514 q 172 539 186 539 q 147 526 158 539 q 117 482 135 513 q 97 452 103 460 q 83 444 92 444 q 72 449 75 444 q 69 467 69 454 q 97 552 69 506 q 166 630 124 599 q 251 661 208 661 q 314 624 296 661 q 332 508 332 588 q 331 454 332 474 l 324 278 q 321 210 321 222 q 326 157 321 171 q 343 143 332 143 q 399 190 367 143 q 463 313 432 238 q 511 465 493 388 l 531 547 q 585 626 540 590 q 675 661 631 661 q 703 643 703 661 q 697 626 703 638 q 686 597 692 614 q 647 453 668 551 l 574 92 l 560 25 q 518 -164 533 -104 q 480 -273 503 -224 q 415 -375 457 -322 q 265 -508 346 -461 q 110 -554 185 -554 z "},"z":{"ha":593,"x_min":4,"x_max":568,"o":"m 17 0 q 7 4 10 0 q 8 17 4 8 l 53 121 q 85 144 69 128 q 129 196 101 161 l 157 231 l 388 507 q 318 525 360 508 q 279 539 296 535 q 242 543 263 543 q 135 497 178 543 q 113 482 119 482 q 101 499 101 482 q 106 525 101 508 q 163 615 118 583 q 275 647 208 647 q 368 633 313 647 q 453 619 421 619 q 498 624 481 619 q 533 638 515 629 q 558 647 550 647 q 568 632 568 647 q 560 603 568 618 l 508 503 q 483 472 494 488 q 461 444 471 457 q 410 379 432 406 l 244 185 q 208 143 225 160 l 208 142 q 293 131 249 140 q 329 125 301 129 q 386 121 357 121 q 447 129 428 121 q 476 157 467 138 q 481 165 479 160 q 488 169 483 169 q 503 155 497 169 q 510 121 510 140 q 463 34 510 68 q 344 0 415 0 q 264 10 313 0 q 213 18 240 14 q 158 22 186 22 q 63 11 103 22 q 17 0 22 0 z "},"Á":{"ha":797,"x_min":-72,"x_max":790,"o":"m 586 -14 q 531 9 550 -14 q 500 83 511 32 q 485 188 489 131 q 481 325 482 244 l 453 311 l 308 311 q 246 194 286 246 q 157 115 206 142 l 157 114 q 199 106 176 106 q 235 113 215 106 q 258 119 254 119 q 267 107 267 119 q 253 69 267 89 q 203 17 231 35 q 149 0 175 0 q 88 11 132 0 q 24 22 40 22 q -26 11 3 22 q -60 0 -54 0 q -69 4 -65 0 q -72 14 -72 8 q -60 56 -72 29 q -31 89 -47 82 q 10 103 -18 96 q 100 164 64 122 q 163 267 136 206 q 229 443 189 328 q 297 628 269 561 q 364 757 325 696 q 457 863 403 818 l 457 864 q 408 869 444 864 q 328 876 350 876 q 206 848 260 876 q 119 765 153 819 q 102 743 107 749 q 89 738 97 738 q 78 754 78 738 q 83 788 78 771 q 184 926 108 874 q 368 978 260 978 q 489 964 411 978 q 610 950 569 950 q 706 964 667 950 l 706 963 q 647 763 667 894 q 626 451 626 631 q 644 169 626 292 q 656 133 647 143 q 683 122 665 122 q 716 130 700 122 q 754 151 732 138 q 782 167 775 167 q 790 151 790 167 q 778 114 790 135 q 692 25 749 64 q 586 -14 636 -14 m 481 428 q 497 646 485 554 q 532 825 508 738 l 531 825 q 430 692 472 778 q 357 476 388 606 l 344 428 l 481 428 m 457 1042 q 439 1057 439 1042 q 444 1069 439 1064 q 458 1078 449 1074 q 478 1092 467 1083 q 539 1150 517 1118 q 583 1249 561 1182 q 610 1277 590 1269 q 668 1285 631 1285 q 697 1278 689 1285 q 704 1256 704 1272 q 667 1163 704 1211 q 574 1081 631 1115 q 461 1042 517 1046 l 457 1042 z "},"Â":{"ha":797,"x_min":-72,"x_max":790,"o":"m 586 -14 q 531 9 550 -14 q 500 83 511 32 q 485 188 489 131 q 481 325 482 244 l 453 311 l 308 311 q 246 194 286 246 q 157 115 206 142 l 157 114 q 199 106 176 106 q 235 113 215 106 q 258 119 254 119 q 267 107 267 119 q 253 69 267 89 q 203 17 231 35 q 149 0 175 0 q 88 11 132 0 q 24 22 40 22 q -26 11 3 22 q -60 0 -54 0 q -69 4 -65 0 q -72 14 -72 8 q -60 56 -72 29 q -31 89 -47 82 q 10 103 -18 96 q 100 164 64 122 q 163 267 136 206 q 229 443 189 328 q 297 628 269 561 q 364 757 325 696 q 457 863 403 818 l 457 864 q 408 869 444 864 q 328 876 350 876 q 206 848 260 876 q 119 765 153 819 q 102 743 107 749 q 89 738 97 738 q 78 754 78 738 q 83 788 78 771 q 184 926 108 874 q 368 978 260 978 q 489 964 411 978 q 610 950 569 950 q 706 964 667 950 l 706 963 q 647 763 667 894 q 626 451 626 631 q 644 169 626 292 q 656 133 647 143 q 683 122 665 122 q 716 130 700 122 q 754 151 732 138 q 782 167 775 167 q 790 151 790 167 q 778 114 790 135 q 692 25 749 64 q 586 -14 636 -14 m 481 428 q 497 646 485 554 q 532 825 508 738 l 531 825 q 430 692 472 778 q 357 476 388 606 l 344 428 l 481 428 m 688 1042 q 665 1051 672 1042 q 569 1204 626 1099 l 561 1193 q 463 1092 499 1124 q 401 1061 426 1061 q 382 1071 382 1061 q 400 1094 382 1081 q 483 1177 435 1122 q 558 1267 531 1232 q 589 1301 575 1289 q 624 1314 603 1314 q 647 1308 639 1314 q 667 1285 656 1301 q 707 1218 689 1243 q 765 1147 725 1193 q 774 1128 774 1138 q 765 1104 774 1117 q 736 1072 756 1092 q 688 1042 701 1042 z "},"Ä":{"ha":797,"x_min":-72,"x_max":792,"o":"m 586 -14 q 531 9 550 -14 q 500 83 511 32 q 485 188 489 131 q 481 325 482 244 l 453 311 l 308 311 q 246 194 286 246 q 157 115 206 142 l 157 114 q 199 106 176 106 q 235 113 215 106 q 258 119 254 119 q 267 107 267 119 q 253 69 267 89 q 203 17 231 35 q 149 0 175 0 q 88 11 132 0 q 24 22 40 22 q -26 11 3 22 q -60 0 -54 0 q -69 4 -65 0 q -72 14 -72 8 q -60 56 -72 29 q -31 89 -47 82 q 10 103 -18 96 q 100 164 64 122 q 163 267 136 206 q 229 443 189 328 q 297 628 269 561 q 364 757 325 696 q 457 863 403 818 l 457 864 q 408 869 444 864 q 328 876 350 876 q 206 848 260 876 q 119 765 153 819 q 102 743 107 749 q 89 738 97 738 q 78 754 78 738 q 83 788 78 771 q 184 926 108 874 q 368 978 260 978 q 489 964 411 978 q 610 950 569 950 q 706 964 667 950 l 706 963 q 647 763 667 894 q 626 451 626 631 q 644 169 626 292 q 656 133 647 143 q 683 122 665 122 q 716 130 700 122 q 754 151 732 138 q 782 167 775 167 q 790 151 790 167 q 778 114 790 135 q 692 25 749 64 q 586 -14 636 -14 m 481 428 q 497 646 485 554 q 532 825 508 738 l 531 825 q 430 692 472 778 q 357 476 388 606 l 344 428 l 481 428 m 450 1042 q 408 1058 425 1042 q 392 1099 392 1074 q 424 1169 392 1136 q 494 1201 457 1201 q 534 1187 518 1201 q 550 1147 550 1172 q 519 1076 550 1110 q 450 1042 488 1042 m 690 1042 q 649 1058 667 1042 q 632 1099 632 1074 q 664 1169 632 1136 q 736 1201 696 1201 q 776 1187 760 1201 q 792 1147 792 1172 q 760 1076 792 1110 q 690 1042 728 1042 z "},"À":{"ha":797,"x_min":-72,"x_max":790,"o":"m 586 -14 q 531 9 550 -14 q 500 83 511 32 q 485 188 489 131 q 481 325 482 244 l 453 311 l 308 311 q 246 194 286 246 q 157 115 206 142 l 157 114 q 199 106 176 106 q 235 113 215 106 q 258 119 254 119 q 267 107 267 119 q 253 69 267 89 q 203 17 231 35 q 149 0 175 0 q 88 11 132 0 q 24 22 40 22 q -26 11 3 22 q -60 0 -54 0 q -69 4 -65 0 q -72 14 -72 8 q -60 56 -72 29 q -31 89 -47 82 q 10 103 -18 96 q 100 164 64 122 q 163 267 136 206 q 229 443 189 328 q 297 628 269 561 q 364 757 325 696 q 457 863 403 818 l 457 864 q 408 869 444 864 q 328 876 350 876 q 206 848 260 876 q 119 765 153 819 q 102 743 107 749 q 89 738 97 738 q 78 754 78 738 q 83 788 78 771 q 184 926 108 874 q 368 978 260 978 q 489 964 411 978 q 610 950 569 950 q 706 964 667 950 l 706 963 q 647 763 667 894 q 626 451 626 631 q 644 169 626 292 q 656 133 647 143 q 683 122 665 122 q 716 130 700 122 q 754 151 732 138 q 782 167 775 167 q 790 151 790 167 q 778 114 790 135 q 692 25 749 64 q 586 -14 636 -14 m 481 428 q 497 646 485 554 q 532 825 508 738 l 531 825 q 430 692 472 778 q 357 476 388 606 l 344 428 l 481 428 m 692 1042 q 579 1081 636 1046 q 485 1163 522 1115 q 449 1256 449 1211 q 456 1278 449 1272 q 485 1285 464 1285 q 543 1277 522 1285 q 571 1249 564 1269 q 615 1151 593 1183 q 676 1092 638 1118 q 698 1078 689 1083 q 712 1068 707 1072 q 717 1057 717 1064 q 710 1044 717 1049 q 692 1042 703 1040 z "},"Å":{"ha":797,"x_min":-72,"x_max":790,"o":"m 586 -14 q 531 9 550 -14 q 500 83 511 32 q 485 188 489 131 q 481 325 482 244 l 453 311 l 308 311 q 246 194 286 246 q 157 115 206 142 l 157 114 q 199 106 176 106 q 235 113 215 106 q 258 119 254 119 q 267 107 267 119 q 253 69 267 89 q 203 17 231 35 q 149 0 175 0 q 88 11 132 0 q 24 22 40 22 q -26 11 3 22 q -60 0 -54 0 q -69 4 -65 0 q -72 14 -72 8 q -60 56 -72 29 q -31 89 -47 82 q 10 103 -18 96 q 100 164 64 122 q 163 267 136 206 q 229 443 189 328 q 297 628 269 561 q 364 757 325 696 q 457 863 403 818 l 457 864 q 408 869 444 864 q 328 876 350 876 q 206 848 260 876 q 119 765 153 819 q 102 743 107 749 q 89 738 97 738 q 78 754 78 738 q 83 788 78 771 q 184 926 108 874 q 368 978 260 978 q 489 964 411 978 q 610 950 569 950 q 706 964 667 950 l 706 963 q 647 763 667 894 q 626 451 626 631 q 644 169 626 292 q 656 133 647 143 q 683 122 665 122 q 716 130 700 122 q 754 151 732 138 q 782 167 775 167 q 790 151 790 167 q 778 114 790 135 q 692 25 749 64 q 586 -14 636 -14 m 481 428 q 497 646 485 554 q 532 825 508 738 l 531 825 q 430 692 472 778 q 357 476 388 606 l 344 428 l 481 428 m 567 1042 q 483 1067 514 1042 q 451 1138 451 1093 q 474 1216 451 1179 q 535 1276 496 1253 q 624 1299 575 1299 q 708 1274 678 1299 q 738 1201 738 1249 q 715 1124 738 1161 q 654 1065 693 1088 q 567 1042 615 1042 m 581 1099 q 628 1123 610 1099 q 647 1188 647 1147 q 637 1228 647 1213 q 610 1243 626 1243 q 560 1217 581 1243 q 540 1151 540 1190 q 551 1113 540 1128 q 581 1099 563 1099 z "},"Ã":{"ha":797,"x_min":-72,"x_max":790,"o":"m 586 -14 q 531 9 550 -14 q 500 83 511 32 q 485 188 489 131 q 481 325 482 244 l 453 311 l 308 311 q 246 194 286 246 q 157 115 206 142 l 157 114 q 199 106 176 106 q 235 113 215 106 q 258 119 254 119 q 267 107 267 119 q 253 69 267 89 q 203 17 231 35 q 149 0 175 0 q 88 11 132 0 q 24 22 40 22 q -26 11 3 22 q -60 0 -54 0 q -69 4 -65 0 q -72 14 -72 8 q -60 56 -72 29 q -31 89 -47 82 q 10 103 -18 96 q 100 164 64 122 q 163 267 136 206 q 229 443 189 328 q 297 628 269 561 q 364 757 325 696 q 457 863 403 818 l 457 864 q 408 869 444 864 q 328 876 350 876 q 206 848 260 876 q 119 765 153 819 q 102 743 107 749 q 89 738 97 738 q 78 754 78 738 q 83 788 78 771 q 184 926 108 874 q 368 978 260 978 q 489 964 411 978 q 610 950 569 950 q 706 964 667 950 l 706 963 q 647 763 667 894 q 626 451 626 631 q 644 169 626 292 q 656 133 647 143 q 683 122 665 122 q 716 130 700 122 q 754 151 732 138 q 782 167 775 167 q 790 151 790 167 q 778 114 790 135 q 692 25 749 64 q 586 -14 636 -14 m 481 428 q 497 646 485 554 q 532 825 508 738 l 531 825 q 430 692 472 778 q 357 476 388 606 l 344 428 l 481 428 m 408 1042 q 394 1058 394 1042 q 432 1177 394 1126 q 522 1228 469 1228 q 567 1218 549 1228 q 610 1190 586 1208 q 644 1165 628 1174 q 679 1157 660 1157 q 731 1199 713 1157 q 742 1222 738 1215 q 756 1228 746 1228 q 769 1208 769 1228 q 751 1126 769 1165 q 701 1065 732 1088 q 633 1042 669 1042 q 585 1052 606 1042 q 542 1082 565 1063 q 508 1105 522 1097 q 479 1113 494 1113 q 456 1104 465 1113 q 436 1075 447 1096 q 428 1059 433 1069 q 419 1045 424 1049 q 408 1042 415 1042 z "},"Æ":{"ha":1067,"x_min":-72,"x_max":1111,"o":"m 926 832 q 894 833 910 832 q 865 836 879 835 q 742 844 799 844 l 696 554 l 964 554 q 978 540 978 554 q 961 502 978 529 q 919 453 944 475 q 868 431 894 431 q 829 436 863 431 q 790 442 822 438 q 725 447 758 447 l 679 447 l 633 188 q 630 168 632 183 q 618 135 628 153 l 618 132 q 664 125 626 131 q 754 119 701 119 q 942 160 872 119 q 975 174 967 174 q 988 157 988 174 q 954 84 988 121 q 864 24 921 47 q 738 0 807 0 q 610 13 704 0 q 508 24 535 24 q 442 12 469 24 q 407 0 415 0 q 396 3 399 0 q 393 17 393 7 q 429 92 393 54 q 472 153 460 125 q 497 260 485 182 l 507 319 l 486 311 l 308 311 q 246 194 286 246 q 157 115 206 142 l 157 114 q 199 106 176 106 q 233 113 213 106 q 258 119 253 119 q 267 106 267 119 q 253 69 267 89 q 205 17 232 35 q 150 0 178 0 q 88 11 132 0 q 24 22 40 22 q -31 8 0 22 q -58 0 -53 0 q -68 4 -64 0 q -72 14 -72 8 q -60 56 -72 29 q -31 89 -47 82 q 10 103 -18 97 q 129 204 83 128 q 229 443 175 281 q 297 628 269 560 q 364 756 325 696 q 457 861 403 817 l 457 863 q 408 868 444 863 q 328 876 361 876 q 206 848 260 876 q 119 765 153 819 q 111 753 117 761 q 101 741 106 744 q 89 738 96 738 q 78 754 78 738 q 83 788 78 776 q 185 926 108 875 q 367 978 263 978 q 444 971 407 978 q 488 963 482 964 q 593 949 557 949 q 632 951 613 949 q 658 956 651 954 q 733 964 700 964 q 817 958 761 964 q 926 950 881 950 q 1069 971 1011 950 q 1097 978 1088 978 q 1111 963 1111 978 q 1089 908 1111 939 q 1025 854 1067 876 q 926 832 983 832 m 596 844 l 589 844 q 452 731 513 835 q 357 472 392 628 l 347 428 l 525 428 l 596 844 z "},"Ç":{"ha":775,"x_min":72,"x_max":789,"o":"m 596 978 q 736 945 683 978 q 789 856 789 913 q 761 768 789 819 q 738 737 749 749 q 713 725 726 725 q 696 735 700 725 q 689 763 692 746 q 683 789 686 779 q 554 874 663 874 q 388 810 460 874 q 276 635 315 747 q 238 382 238 524 q 280 179 238 244 q 414 114 322 114 q 558 163 504 114 q 654 285 613 211 q 683 308 667 308 q 697 290 697 308 q 689 250 697 278 q 580 74 657 142 q 400 -10 503 6 l 375 -57 q 478 -172 478 -90 q 433 -276 478 -235 q 310 -317 388 -317 q 249 -306 274 -317 q 225 -279 225 -296 q 244 -265 225 -265 q 283 -262 253 -264 q 334 -243 314 -261 q 354 -185 354 -225 q 342 -140 354 -156 q 300 -117 331 -125 q 280 -111 285 -114 q 275 -100 275 -108 l 275 -86 q 299 -37 275 -76 l 313 -12 q 135 88 197 -1 q 72 342 72 178 q 145 667 72 521 q 338 895 218 813 q 596 978 458 978 z "},"Ð":{"ha":899,"x_min":44,"x_max":864,"o":"m 467 978 q 759 871 654 978 q 864 558 864 764 q 803 276 864 403 q 631 74 743 149 q 369 0 518 0 q 253 11 322 0 q 172 19 194 19 q 110 10 138 19 q 75 0 83 0 q 60 15 60 0 q 70 55 60 31 q 103 99 81 79 q 147 140 138 126 q 165 201 156 154 l 201 407 l 126 407 q 87 403 106 407 q 60 400 68 400 q 48 403 51 400 q 44 417 44 407 q 66 456 44 435 q 119 492 88 478 q 178 507 150 507 l 219 507 l 253 699 q 281 753 257 725 q 339 799 304 781 q 407 817 374 817 q 422 813 418 817 q 426 803 426 810 q 415 767 426 794 q 394 689 404 739 l 361 507 l 467 507 q 506 510 488 507 q 532 514 524 514 q 547 496 547 514 q 526 457 547 478 q 474 422 506 436 q 415 407 443 407 l 343 407 l 303 179 q 281 122 299 147 l 281 121 q 379 114 317 114 q 551 169 479 114 q 661 322 624 224 q 699 547 699 419 q 630 798 699 718 q 417 878 561 878 q 258 848 326 878 q 138 756 190 818 q 113 731 121 738 q 92 724 104 724 q 75 742 75 724 q 82 772 75 751 q 224 922 124 867 q 467 978 325 978 z "},"É":{"ha":711,"x_min":38,"x_max":756,"o":"m 51 0 q 38 17 38 0 q 74 92 38 51 q 115 153 103 125 q 143 260 128 182 l 239 844 l 232 844 q 142 832 175 844 q 88 804 110 819 q 60 789 65 789 q 50 803 50 789 q 53 824 50 810 q 139 925 68 886 q 318 964 210 964 q 436 957 367 964 q 569 950 547 950 q 656 956 624 950 q 710 970 688 963 q 742 978 733 978 q 752 975 749 978 q 756 964 756 972 q 734 910 756 942 q 671 856 713 879 q 569 832 629 832 q 513 835 557 832 q 388 840 446 840 l 342 554 l 610 554 q 619 550 615 554 q 624 540 624 546 q 606 502 624 529 q 564 453 589 475 q 514 431 539 431 q 471 436 507 431 q 371 447 415 447 l 322 447 l 279 189 q 270 158 275 172 q 264 138 265 144 l 264 136 q 400 119 339 119 q 588 160 518 119 q 619 174 608 174 q 632 157 632 174 q 599 84 632 121 q 508 24 565 47 q 382 0 451 0 q 306 6 349 0 q 254 13 264 11 q 153 24 179 24 q 88 12 115 24 q 51 0 60 0 m 385 1042 q 367 1057 367 1042 q 372 1069 367 1064 q 385 1078 376 1074 q 406 1092 394 1083 q 467 1150 444 1118 q 511 1249 489 1182 q 538 1277 518 1269 q 596 1285 558 1285 q 624 1278 617 1285 q 632 1256 632 1272 q 595 1163 632 1211 q 501 1081 558 1115 q 389 1042 444 1046 l 385 1042 z "},"Ê":{"ha":711,"x_min":38,"x_max":756,"o":"m 51 0 q 38 17 38 0 q 74 92 38 51 q 115 153 103 125 q 143 260 128 182 l 239 844 l 232 844 q 142 832 175 844 q 88 804 110 819 q 60 789 65 789 q 50 803 50 789 q 53 824 50 810 q 139 925 68 886 q 318 964 210 964 q 436 957 367 964 q 569 950 547 950 q 656 956 624 950 q 710 970 688 963 q 742 978 733 978 q 752 975 749 978 q 756 964 756 972 q 734 910 756 942 q 671 856 713 879 q 569 832 629 832 q 513 835 557 832 q 388 840 446 840 l 342 554 l 610 554 q 619 550 615 554 q 624 540 624 546 q 606 502 624 529 q 564 453 589 475 q 514 431 539 431 q 471 436 507 431 q 371 447 415 447 l 322 447 l 279 189 q 270 158 275 172 q 264 138 265 144 l 264 136 q 400 119 339 119 q 588 160 518 119 q 619 174 608 174 q 632 157 632 174 q 599 84 632 121 q 508 24 565 47 q 382 0 451 0 q 306 6 349 0 q 254 13 264 11 q 153 24 179 24 q 88 12 115 24 q 51 0 60 0 m 624 1042 q 601 1051 608 1042 q 506 1204 563 1099 l 497 1193 q 399 1092 435 1124 q 338 1061 363 1061 q 318 1071 318 1061 q 336 1094 318 1081 q 419 1177 371 1122 q 494 1267 467 1232 q 525 1301 511 1289 q 560 1314 539 1314 q 583 1308 575 1314 q 603 1285 592 1301 q 643 1218 625 1243 q 701 1147 661 1193 q 710 1128 710 1138 q 701 1104 710 1117 q 672 1072 692 1092 q 624 1042 638 1042 z "},"Ë":{"ha":711,"x_min":38,"x_max":756,"o":"m 51 0 q 38 17 38 0 q 74 92 38 51 q 115 153 103 125 q 143 260 128 182 l 239 844 l 232 844 q 142 832 175 844 q 88 804 110 819 q 60 789 65 789 q 50 803 50 789 q 53 824 50 810 q 139 925 68 886 q 318 964 210 964 q 436 957 367 964 q 569 950 547 950 q 656 956 624 950 q 710 970 688 963 q 742 978 733 978 q 752 975 749 978 q 756 964 756 972 q 734 910 756 942 q 671 856 713 879 q 569 832 629 832 q 513 835 557 832 q 388 840 446 840 l 342 554 l 610 554 q 619 550 615 554 q 624 540 624 546 q 606 502 624 529 q 564 453 589 475 q 514 431 539 431 q 471 436 507 431 q 371 447 415 447 l 322 447 l 279 189 q 270 158 275 172 q 264 138 265 144 l 264 136 q 400 119 339 119 q 588 160 518 119 q 619 174 608 174 q 632 157 632 174 q 599 84 632 121 q 508 24 565 47 q 382 0 451 0 q 306 6 349 0 q 254 13 264 11 q 153 24 179 24 q 88 12 115 24 q 51 0 60 0 m 386 1042 q 344 1058 361 1042 q 328 1099 328 1074 q 360 1169 328 1136 q 431 1201 393 1201 q 470 1187 454 1201 q 486 1147 486 1172 q 455 1076 486 1110 q 386 1042 424 1042 m 626 1042 q 585 1058 603 1042 q 568 1099 568 1074 q 600 1169 568 1136 q 672 1201 632 1201 q 712 1187 696 1201 q 728 1147 728 1172 q 696 1076 728 1110 q 626 1042 664 1042 z "},"È":{"ha":711,"x_min":38,"x_max":756,"o":"m 51 0 q 38 17 38 0 q 74 92 38 51 q 115 153 103 125 q 143 260 128 182 l 239 844 l 232 844 q 142 832 175 844 q 88 804 110 819 q 60 789 65 789 q 50 803 50 789 q 53 824 50 810 q 139 925 68 886 q 318 964 210 964 q 436 957 367 964 q 569 950 547 950 q 656 956 624 950 q 710 970 688 963 q 742 978 733 978 q 752 975 749 978 q 756 964 756 972 q 734 910 756 942 q 671 856 713 879 q 569 832 629 832 q 513 835 557 832 q 388 840 446 840 l 342 554 l 610 554 q 619 550 615 554 q 624 540 624 546 q 606 502 624 529 q 564 453 589 475 q 514 431 539 431 q 471 436 507 431 q 371 447 415 447 l 322 447 l 279 189 q 270 158 275 172 q 264 138 265 144 l 264 136 q 400 119 339 119 q 588 160 518 119 q 619 174 608 174 q 632 157 632 174 q 599 84 632 121 q 508 24 565 47 q 382 0 451 0 q 306 6 349 0 q 254 13 264 11 q 153 24 179 24 q 88 12 115 24 q 51 0 60 0 m 532 1042 q 419 1081 476 1046 q 326 1163 363 1115 q 289 1256 289 1211 q 297 1278 289 1272 q 325 1285 304 1285 q 383 1277 363 1285 q 411 1249 404 1269 q 456 1151 433 1183 q 517 1092 478 1118 q 538 1078 529 1083 q 552 1068 547 1072 q 557 1057 557 1064 q 550 1044 557 1049 q 532 1042 543 1040 z "},"Í":{"ha":553,"x_min":38,"x_max":563,"o":"m 49 0 q 38 14 38 0 q 53 63 38 33 q 92 103 69 92 q 117 115 97 106 q 144 131 138 124 q 165 168 158 142 q 178 244 172 194 l 265 858 q 208 854 238 858 q 154 846 179 851 q 121 840 129 840 q 108 856 108 840 q 119 892 108 872 q 236 964 156 964 l 307 964 q 458 968 406 964 q 551 975 558 975 q 563 961 563 975 q 551 932 563 950 q 535 903 544 921 q 514 878 525 885 q 482 869 503 872 l 447 867 q 414 864 433 867 l 317 193 q 306 149 314 169 q 286 119 297 129 l 286 117 q 357 108 342 108 q 399 115 383 108 q 418 122 415 122 q 429 110 429 122 q 411 69 429 99 q 301 0 363 0 q 250 8 286 0 q 163 22 200 22 q 86 11 118 22 q 49 0 54 0 m 251 1042 q 233 1057 233 1042 q 238 1069 233 1064 q 252 1078 243 1074 q 272 1092 261 1083 q 333 1150 311 1118 q 378 1249 356 1182 q 405 1277 385 1269 q 463 1285 425 1285 q 491 1278 483 1285 q 499 1256 499 1272 q 462 1163 499 1211 q 368 1081 425 1115 q 256 1042 311 1046 l 251 1042 z "},"Î":{"ha":553,"x_min":38,"x_max":568,"o":"m 49 0 q 38 14 38 0 q 53 63 38 33 q 92 103 69 92 q 117 115 97 106 q 144 131 138 124 q 165 168 158 142 q 178 244 172 194 l 265 858 q 208 854 238 858 q 154 846 179 851 q 121 840 129 840 q 108 856 108 840 q 119 892 108 872 q 236 964 156 964 l 307 964 q 458 968 406 964 q 551 975 558 975 q 563 961 563 975 q 551 932 563 950 q 535 903 544 921 q 514 878 525 885 q 482 869 503 872 l 447 867 q 414 864 433 867 l 317 193 q 306 149 314 169 q 286 119 297 129 l 286 117 q 357 108 342 108 q 399 115 383 108 q 418 122 415 122 q 429 110 429 122 q 411 69 429 99 q 301 0 363 0 q 250 8 286 0 q 163 22 200 22 q 86 11 118 22 q 49 0 54 0 m 482 1042 q 460 1051 467 1042 q 364 1204 421 1099 l 356 1193 q 257 1092 293 1124 q 196 1061 221 1061 q 176 1071 176 1061 q 194 1094 176 1081 q 277 1177 229 1122 q 353 1267 325 1232 q 383 1301 369 1289 q 418 1314 397 1314 q 442 1308 433 1314 q 461 1285 450 1301 q 501 1218 483 1243 q 560 1147 519 1193 q 568 1128 568 1138 q 559 1104 568 1117 q 531 1072 550 1092 q 482 1042 496 1042 z "},"Ï":{"ha":553,"x_min":38,"x_max":586,"o":"m 49 0 q 38 14 38 0 q 53 63 38 33 q 92 103 69 92 q 117 115 97 106 q 144 131 138 124 q 165 168 158 142 q 178 244 172 194 l 265 858 q 208 854 238 858 q 154 846 179 851 q 121 840 129 840 q 108 856 108 840 q 119 892 108 872 q 236 964 156 964 l 307 964 q 458 968 406 964 q 551 975 558 975 q 563 961 563 975 q 551 932 563 950 q 535 903 544 921 q 514 878 525 885 q 482 869 503 872 l 447 867 q 414 864 433 867 l 317 193 q 306 149 314 169 q 286 119 297 129 l 286 117 q 357 108 342 108 q 399 115 383 108 q 418 122 415 122 q 429 110 429 122 q 411 69 429 99 q 301 0 363 0 q 250 8 286 0 q 163 22 200 22 q 86 11 118 22 q 49 0 54 0 m 244 1042 q 203 1058 219 1042 q 186 1099 186 1074 q 219 1169 186 1136 q 289 1201 251 1201 q 328 1187 313 1201 q 344 1147 344 1172 q 313 1076 344 1110 q 244 1042 282 1042 m 485 1042 q 444 1058 461 1042 q 426 1099 426 1074 q 458 1169 426 1136 q 531 1201 490 1201 q 570 1187 554 1201 q 586 1147 586 1172 q 554 1076 586 1110 q 485 1042 522 1042 z "},"Ì":{"ha":553,"x_min":38,"x_max":563,"o":"m 49 0 q 38 14 38 0 q 53 63 38 33 q 92 103 69 92 q 117 115 97 106 q 144 131 138 124 q 165 168 158 142 q 178 244 172 194 l 265 858 q 208 854 238 858 q 154 846 179 851 q 121 840 129 840 q 108 856 108 840 q 119 892 108 872 q 236 964 156 964 l 307 964 q 458 968 406 964 q 551 975 558 975 q 563 961 563 975 q 551 932 563 950 q 535 903 544 921 q 514 878 525 885 q 482 869 503 872 l 447 867 q 414 864 433 867 l 317 193 q 306 149 314 169 q 286 119 297 129 l 286 117 q 357 108 342 108 q 399 115 383 108 q 418 122 415 122 q 429 110 429 122 q 411 69 429 99 q 301 0 363 0 q 250 8 286 0 q 163 22 200 22 q 86 11 118 22 q 49 0 54 0 m 486 1042 q 374 1081 431 1046 q 280 1163 317 1115 q 243 1256 243 1211 q 251 1278 243 1272 q 279 1285 258 1285 q 338 1277 317 1285 q 365 1249 358 1269 q 410 1151 388 1183 q 471 1092 432 1118 q 492 1078 483 1083 q 506 1068 501 1072 q 511 1057 511 1064 q 504 1044 511 1049 q 486 1042 497 1040 z "},"Ñ":{"ha":960,"x_min":31,"x_max":1235,"o":"m 611 -14 q 598 -10 601 -14 q 594 1 594 -7 q 600 33 594 6 q 613 126 613 86 q 596 206 613 167 q 517 358 568 256 l 429 533 q 385 639 407 574 l 382 639 l 307 181 q 275 119 300 138 l 275 117 q 328 107 301 107 q 365 115 347 107 q 389 122 382 122 q 400 110 400 122 q 382 72 400 94 q 331 15 354 31 q 282 0 308 0 q 229 11 265 0 q 167 22 190 22 q 111 11 138 22 q 79 0 85 0 q 71 17 71 0 q 114 89 71 49 q 147 125 136 110 q 164 165 157 140 q 179 244 171 190 l 281 840 l 272 840 q 244 843 264 840 q 186 849 214 849 q 119 838 146 849 q 69 797 92 826 q 56 781 63 788 q 42 775 49 775 q 31 789 31 775 q 33 807 31 799 q 35 818 35 815 q 103 924 47 883 q 238 964 158 964 q 290 961 254 964 q 357 957 322 957 q 419 961 369 957 q 454 964 444 964 q 444 901 444 936 q 469 776 444 839 q 558 583 493 714 l 631 439 l 650 399 q 669 357 661 376 l 672 357 l 739 775 q 803 1008 763 921 q 904 1146 844 1096 q 1011 1201 956 1188 q 1149 1219 1067 1215 q 1197 1225 1181 1219 q 1213 1231 1206 1228 q 1225 1233 1221 1233 q 1235 1218 1235 1233 q 1202 1160 1235 1185 q 1126 1133 1169 1135 q 1036 1119 1068 1129 q 975 1076 1004 1108 q 917 972 940 1039 q 875 797 893 904 l 767 165 q 733 84 760 126 q 673 14 707 42 q 611 -14 639 -14 m 438 1042 q 424 1058 424 1042 q 461 1177 424 1126 q 551 1228 499 1228 q 597 1218 578 1228 q 639 1190 615 1208 q 673 1165 657 1174 q 708 1157 689 1157 q 760 1199 742 1157 q 771 1222 767 1215 q 785 1228 775 1228 q 799 1208 799 1228 q 780 1126 799 1165 q 730 1065 761 1088 q 663 1042 699 1042 q 615 1052 635 1042 q 571 1082 594 1063 q 538 1105 551 1097 q 508 1113 524 1113 q 485 1104 494 1113 q 465 1075 476 1096 q 458 1059 463 1069 q 449 1045 453 1049 q 438 1042 444 1042 z "},"Ó":{"ha":858,"x_min":72,"x_max":824,"o":"m 332 -14 q 139 79 206 -14 q 72 317 72 172 q 135 617 72 463 q 310 875 199 772 q 558 978 422 978 q 755 883 686 978 q 824 626 824 789 q 753 310 824 458 q 569 74 683 163 q 332 -14 456 -14 m 394 93 q 537 165 476 93 q 628 351 597 238 q 658 588 658 465 q 620 796 658 721 q 507 871 582 871 q 370 802 432 871 q 273 617 308 733 q 238 367 238 501 q 394 93 238 93 m 467 1042 q 449 1057 449 1042 q 453 1069 449 1064 q 467 1078 458 1074 q 488 1092 476 1083 q 549 1150 526 1118 q 593 1249 571 1182 q 620 1277 600 1269 q 678 1285 640 1285 q 706 1278 699 1285 q 714 1256 714 1272 q 677 1163 714 1211 q 583 1081 640 1115 q 471 1042 526 1046 l 467 1042 z "},"Ô":{"ha":858,"x_min":72,"x_max":824,"o":"m 332 -14 q 139 79 206 -14 q 72 317 72 172 q 135 617 72 463 q 310 875 199 772 q 558 978 422 978 q 755 883 686 978 q 824 626 824 789 q 753 310 824 458 q 569 74 683 163 q 332 -14 456 -14 m 394 93 q 537 165 476 93 q 628 351 597 238 q 658 588 658 465 q 620 796 658 721 q 507 871 582 871 q 370 802 432 871 q 273 617 308 733 q 238 367 238 501 q 394 93 238 93 m 697 1042 q 675 1051 682 1042 q 579 1204 636 1099 l 571 1193 q 472 1092 508 1124 q 411 1061 436 1061 q 392 1071 392 1061 q 410 1094 392 1081 q 492 1177 444 1122 q 568 1267 540 1232 q 599 1301 585 1289 q 633 1314 613 1314 q 657 1308 649 1314 q 676 1285 665 1301 q 717 1218 699 1243 q 775 1147 735 1193 q 783 1128 783 1138 q 774 1104 783 1117 q 746 1072 765 1092 q 697 1042 711 1042 z "},"Ö":{"ha":858,"x_min":72,"x_max":824,"o":"m 332 -14 q 139 79 206 -14 q 72 317 72 172 q 135 617 72 463 q 310 875 199 772 q 558 978 422 978 q 755 883 686 978 q 824 626 824 789 q 753 310 824 458 q 569 74 683 163 q 332 -14 456 -14 m 394 93 q 537 165 476 93 q 628 351 597 238 q 658 588 658 465 q 620 796 658 721 q 507 871 582 871 q 370 802 432 871 q 273 617 308 733 q 238 367 238 501 q 394 93 238 93 m 460 1042 q 418 1058 435 1042 q 401 1099 401 1074 q 434 1169 401 1136 q 504 1201 467 1201 q 544 1187 528 1201 q 560 1147 560 1172 q 528 1076 560 1110 q 460 1042 497 1042 m 700 1042 q 659 1058 676 1042 q 642 1099 642 1074 q 674 1169 642 1136 q 746 1201 706 1201 q 785 1187 769 1201 q 801 1147 801 1172 q 769 1076 801 1110 q 700 1042 738 1042 z "},"Ò":{"ha":858,"x_min":72,"x_max":824,"o":"m 332 -14 q 139 79 206 -14 q 72 317 72 172 q 135 617 72 463 q 310 875 199 772 q 558 978 422 978 q 755 883 686 978 q 824 626 824 789 q 753 310 824 458 q 569 74 683 163 q 332 -14 456 -14 m 394 93 q 537 165 476 93 q 628 351 597 238 q 658 588 658 465 q 620 796 658 721 q 507 871 582 871 q 370 802 432 871 q 273 617 308 733 q 238 367 238 501 q 394 93 238 93 m 701 1042 q 589 1081 646 1046 q 495 1163 532 1115 q 458 1256 458 1211 q 466 1278 458 1272 q 494 1285 474 1285 q 553 1277 532 1285 q 581 1249 574 1269 q 625 1151 603 1183 q 686 1092 647 1118 q 708 1078 699 1083 q 722 1068 717 1072 q 726 1057 726 1064 q 719 1044 726 1049 q 701 1042 713 1040 z "},"Ø":{"ha":863,"x_min":35,"x_max":888,"o":"m 63 -110 q 35 -96 35 -110 q 38 -85 35 -89 l 142 78 q 90 185 108 122 q 72 321 72 247 q 135 620 72 467 q 313 876 197 774 q 579 978 429 978 q 694 944 644 978 l 754 1039 q 797 1064 764 1053 q 861 1075 831 1075 q 888 1060 888 1075 q 883 1049 888 1056 l 767 864 q 825 625 825 771 q 755 310 825 457 q 569 74 685 163 q 321 -14 453 -14 q 222 10 265 -14 l 167 -76 q 126 -99 158 -89 q 63 -110 93 -110 m 613 811 q 515 871 578 871 q 373 802 436 871 q 274 618 310 733 q 238 368 238 503 q 250 242 238 301 l 613 811 m 393 93 q 538 167 478 93 q 629 351 599 242 q 660 561 660 461 q 651 688 660 618 l 299 135 q 393 93 336 93 z "},"Õ":{"ha":858,"x_min":72,"x_max":824,"o":"m 332 -14 q 139 79 206 -14 q 72 317 72 172 q 135 617 72 463 q 310 875 199 772 q 558 978 422 978 q 755 883 686 978 q 824 626 824 789 q 753 310 824 458 q 569 74 683 163 q 332 -14 456 -14 m 394 93 q 537 165 476 93 q 628 351 597 238 q 658 588 658 465 q 620 796 658 721 q 507 871 582 871 q 370 802 432 871 q 273 617 308 733 q 238 367 238 501 q 394 93 238 93 m 418 1042 q 404 1058 404 1042 q 442 1177 404 1126 q 532 1228 479 1228 q 577 1218 558 1228 q 619 1190 596 1208 q 653 1165 638 1174 q 689 1157 669 1157 q 740 1199 722 1157 q 751 1222 747 1215 q 765 1228 756 1228 q 779 1208 779 1228 q 760 1126 779 1165 q 710 1065 742 1088 q 643 1042 679 1042 q 595 1052 615 1042 q 551 1082 575 1063 q 518 1105 532 1097 q 489 1113 504 1113 q 466 1104 475 1113 q 446 1075 457 1096 q 438 1059 443 1069 q 429 1045 433 1049 q 418 1042 425 1042 z "},"Œ":{"ha":1182,"x_min":72,"x_max":1226,"o":"m 322 -14 q 190 28 247 -14 q 103 145 133 69 q 72 321 72 221 q 135 619 72 465 q 312 876 199 774 q 568 978 425 978 q 704 935 651 978 q 763 958 736 951 q 818 964 789 964 q 906 958 839 964 q 1043 950 992 950 q 1128 956 1096 950 q 1183 970 1160 963 q 1213 978 1206 978 q 1224 975 1221 978 q 1226 963 1226 972 q 1204 908 1226 939 q 1140 854 1182 876 q 1042 832 1099 832 q 1010 833 1025 832 q 981 836 994 835 q 858 844 917 844 l 811 554 l 1079 554 q 1093 540 1093 554 q 1076 502 1093 529 q 1035 453 1060 475 q 983 431 1010 431 q 944 436 978 431 q 840 447 874 447 l 794 447 l 749 188 q 733 136 746 160 l 733 135 q 778 126 742 133 q 871 119 815 119 q 981 131 933 119 q 1057 160 1029 142 q 1092 174 1082 174 q 1103 157 1103 174 q 1069 84 1103 121 q 979 24 1036 47 q 853 0 922 0 q 781 6 817 0 q 740 13 746 11 q 651 24 676 24 q 581 12 611 24 q 544 0 551 0 q 531 15 531 0 q 540 56 531 38 q 431 5 490 24 q 322 -14 372 -14 m 394 93 q 537 165 476 93 q 628 351 597 238 q 658 588 658 465 q 620 796 658 721 q 507 871 582 871 q 370 802 432 871 q 273 617 308 733 q 238 367 238 501 q 394 93 238 93 z "},"Þ":{"ha":790,"x_min":49,"x_max":753,"o":"m 294 182 q 284 149 293 165 q 264 121 275 132 l 264 119 q 318 107 283 107 q 357 115 338 107 q 382 122 376 122 q 394 110 394 122 q 390 91 394 100 q 378 72 385 82 q 319 16 346 32 q 268 0 293 0 q 235 4 254 0 q 211 10 217 8 q 144 22 174 22 q 89 11 115 22 q 57 0 63 0 q 49 17 49 0 q 92 89 49 49 q 132 143 119 115 q 157 244 144 171 l 279 1014 q 308 1068 283 1042 q 366 1112 332 1094 q 432 1129 400 1129 q 451 1126 446 1129 q 457 1114 457 1124 q 442 1077 457 1106 q 421 1003 426 1049 l 401 881 q 436 882 413 882 q 666 820 579 882 q 753 651 753 758 q 688 474 753 558 q 521 336 624 390 q 310 271 418 282 l 294 182 m 403 775 q 386 778 397 775 l 324 381 q 375 375 351 375 q 494 403 442 375 q 578 484 547 432 q 608 603 608 536 q 577 708 608 671 q 503 758 546 744 q 403 775 460 771 z "},"Ú":{"ha":932,"x_min":24,"x_max":928,"o":"m 418 -14 q 231 64 297 -14 q 164 272 164 142 q 174 375 164 325 l 257 840 q 228 844 250 840 q 179 849 207 849 q 112 838 139 849 q 63 797 85 826 q 49 781 56 788 q 35 775 42 775 q 24 789 24 775 q 26 807 24 799 q 28 818 28 815 q 97 924 40 883 q 231 964 153 964 q 282 961 246 964 q 350 957 314 957 q 386 959 369 957 q 410 961 403 961 q 444 964 432 964 q 388 747 417 917 l 322 371 q 313 268 313 317 q 453 100 313 100 q 598 179 546 100 q 681 446 650 258 l 747 863 q 776 916 751 889 q 837 960 801 943 q 904 978 872 978 q 922 975 917 978 q 928 963 928 972 q 918 936 928 953 q 892 851 899 897 l 825 425 q 746 193 804 293 q 602 40 688 93 q 418 -14 517 -14 m 493 1042 q 475 1057 475 1042 q 480 1069 475 1064 q 494 1078 485 1074 q 514 1092 503 1083 q 575 1150 553 1118 q 619 1249 597 1182 q 647 1277 626 1269 q 704 1285 667 1285 q 733 1278 725 1285 q 740 1256 740 1272 q 703 1163 740 1211 q 610 1081 667 1115 q 497 1042 553 1046 l 493 1042 z "},"Û":{"ha":932,"x_min":24,"x_max":928,"o":"m 418 -14 q 231 64 297 -14 q 164 272 164 142 q 174 375 164 325 l 257 840 q 228 844 250 840 q 179 849 207 849 q 112 838 139 849 q 63 797 85 826 q 49 781 56 788 q 35 775 42 775 q 24 789 24 775 q 26 807 24 799 q 28 818 28 815 q 97 924 40 883 q 231 964 153 964 q 282 961 246 964 q 350 957 314 957 q 386 959 369 957 q 410 961 403 961 q 444 964 432 964 q 388 747 417 917 l 322 371 q 313 268 313 317 q 453 100 313 100 q 598 179 546 100 q 681 446 650 258 l 747 863 q 776 916 751 889 q 837 960 801 943 q 904 978 872 978 q 922 975 917 978 q 928 963 928 972 q 918 936 928 953 q 892 851 899 897 l 825 425 q 746 193 804 293 q 602 40 688 93 q 418 -14 517 -14 m 724 1042 q 701 1051 708 1042 q 606 1204 663 1099 l 597 1193 q 499 1092 535 1124 q 438 1061 463 1061 q 418 1071 418 1061 q 436 1094 418 1081 q 519 1177 471 1122 q 594 1267 567 1232 q 625 1301 611 1289 q 660 1314 639 1314 q 683 1308 675 1314 q 703 1285 692 1301 q 743 1218 725 1243 q 801 1147 761 1193 q 810 1128 810 1138 q 801 1104 810 1117 q 772 1072 792 1092 q 724 1042 738 1042 z "},"Ü":{"ha":932,"x_min":24,"x_max":928,"o":"m 418 -14 q 231 64 297 -14 q 164 272 164 142 q 174 375 164 325 l 257 840 q 228 844 250 840 q 179 849 207 849 q 112 838 139 849 q 63 797 85 826 q 49 781 56 788 q 35 775 42 775 q 24 789 24 775 q 26 807 24 799 q 28 818 28 815 q 97 924 40 883 q 231 964 153 964 q 282 961 246 964 q 350 957 314 957 q 386 959 369 957 q 410 961 403 961 q 444 964 432 964 q 388 747 417 917 l 322 371 q 313 268 313 317 q 453 100 313 100 q 598 179 546 100 q 681 446 650 258 l 747 863 q 776 916 751 889 q 837 960 801 943 q 904 978 872 978 q 922 975 917 978 q 928 963 928 972 q 918 936 928 953 q 892 851 899 897 l 825 425 q 746 193 804 293 q 602 40 688 93 q 418 -14 517 -14 m 486 1042 q 444 1058 461 1042 q 428 1099 428 1074 q 460 1169 428 1136 q 531 1201 493 1201 q 570 1187 554 1201 q 586 1147 586 1172 q 555 1076 586 1110 q 486 1042 524 1042 m 726 1042 q 685 1058 703 1042 q 668 1099 668 1074 q 700 1169 668 1136 q 772 1201 732 1201 q 812 1187 796 1201 q 828 1147 828 1172 q 796 1076 828 1110 q 726 1042 764 1042 z "},"Ù":{"ha":932,"x_min":24,"x_max":928,"o":"m 418 -14 q 231 64 297 -14 q 164 272 164 142 q 174 375 164 325 l 257 840 q 228 844 250 840 q 179 849 207 849 q 112 838 139 849 q 63 797 85 826 q 49 781 56 788 q 35 775 42 775 q 24 789 24 775 q 26 807 24 799 q 28 818 28 815 q 97 924 40 883 q 231 964 153 964 q 282 961 246 964 q 350 957 314 957 q 386 959 369 957 q 410 961 403 961 q 444 964 432 964 q 388 747 417 917 l 322 371 q 313 268 313 317 q 453 100 313 100 q 598 179 546 100 q 681 446 650 258 l 747 863 q 776 916 751 889 q 837 960 801 943 q 904 978 872 978 q 922 975 917 978 q 928 963 928 972 q 918 936 928 953 q 892 851 899 897 l 825 425 q 746 193 804 293 q 602 40 688 93 q 418 -14 517 -14 m 728 1042 q 615 1081 672 1046 q 522 1163 558 1115 q 485 1256 485 1211 q 492 1278 485 1272 q 521 1285 500 1285 q 579 1277 558 1285 q 607 1249 600 1269 q 651 1151 629 1183 q 713 1092 674 1118 q 734 1078 725 1083 q 748 1068 743 1072 q 753 1057 753 1064 q 746 1044 753 1049 q 728 1042 739 1040 z "},"Ý":{"ha":808,"x_min":65,"x_max":881,"o":"m 185 0 q 175 17 175 0 q 187 52 175 35 q 218 89 199 69 q 258 140 249 118 q 281 229 268 163 l 303 344 q 314 475 314 404 q 299 649 314 564 q 254 790 283 735 q 185 844 225 844 q 100 763 138 844 q 76 740 90 740 q 67 745 69 740 q 65 761 65 750 q 88 856 65 804 q 151 942 111 907 q 238 978 190 978 q 369 875 315 978 q 444 589 424 772 l 446 589 q 601 876 515 775 q 782 978 686 978 q 851 962 821 978 q 881 931 881 946 q 860 878 881 917 q 817 810 840 840 q 782 788 793 781 q 765 803 779 789 q 725 817 750 817 q 619 749 674 817 q 519 576 564 682 q 454 361 475 471 l 422 186 q 390 121 414 144 l 390 119 q 446 107 411 107 q 485 115 465 107 q 510 122 504 122 q 522 110 522 122 q 518 92 522 100 q 504 72 514 85 q 396 0 449 0 q 363 4 382 0 q 339 10 344 8 q 272 22 301 22 q 216 11 242 22 q 185 0 190 0 m 397 1042 q 379 1057 379 1042 q 384 1069 379 1064 q 398 1078 389 1074 q 418 1092 407 1083 q 479 1150 457 1118 q 524 1249 501 1182 q 551 1277 531 1269 q 608 1285 571 1285 q 637 1278 629 1285 q 644 1256 644 1272 q 608 1163 644 1211 q 514 1081 571 1115 q 401 1042 457 1046 l 397 1042 z "},"á":{"ha":654,"x_min":24,"x_max":613,"o":"m 115 -14 q 48 29 72 -14 q 24 144 24 72 q 80 381 24 260 q 233 581 136 501 q 443 661 331 661 q 515 653 479 661 q 572 632 550 644 q 556 582 560 601 q 550 557 551 563 q 522 405 540 507 q 486 210 503 303 q 478 146 478 168 q 483 124 478 131 q 497 117 488 117 q 540 145 521 117 q 582 225 560 174 q 589 239 585 233 q 600 244 593 244 q 613 225 613 244 q 611 210 613 215 q 575 105 604 157 q 503 19 546 53 q 417 -14 461 -14 q 360 13 381 -14 q 340 83 340 39 q 343 117 340 94 l 350 164 l 347 164 q 230 36 296 86 q 115 -14 164 -14 m 194 124 q 273 178 225 124 q 363 315 321 232 q 418 479 404 397 l 428 533 q 364 554 393 554 q 274 499 319 554 q 201 358 229 444 q 172 181 172 271 q 177 135 172 147 q 194 124 182 124 m 331 725 q 313 740 313 725 q 317 752 313 747 q 331 762 322 757 q 351 775 340 767 q 413 833 390 801 q 457 932 435 865 q 484 960 464 953 q 542 968 504 968 q 570 962 563 968 q 578 939 578 956 q 541 847 578 894 q 447 764 504 799 q 335 725 390 729 l 331 725 z "},"â":{"ha":654,"x_min":24,"x_max":647,"o":"m 115 -14 q 48 29 72 -14 q 24 144 24 72 q 80 381 24 260 q 233 581 136 501 q 443 661 331 661 q 515 653 479 661 q 572 632 550 644 q 556 582 560 601 q 550 557 551 563 q 522 405 540 507 q 486 210 503 303 q 478 146 478 168 q 483 124 478 131 q 497 117 488 117 q 540 145 521 117 q 582 225 560 174 q 589 239 585 233 q 600 244 593 244 q 613 225 613 244 q 611 210 613 215 q 575 105 604 157 q 503 19 546 53 q 417 -14 461 -14 q 360 13 381 -14 q 340 83 340 39 q 343 117 340 94 l 350 164 l 347 164 q 230 36 296 86 q 115 -14 164 -14 m 194 124 q 273 178 225 124 q 363 315 321 232 q 418 479 404 397 l 428 533 q 364 554 393 554 q 274 499 319 554 q 201 358 229 444 q 172 181 172 271 q 177 135 172 147 q 194 124 182 124 m 561 725 q 539 735 546 725 q 443 888 500 782 l 435 876 q 336 776 372 807 q 275 744 300 744 q 256 754 256 744 q 274 778 256 764 q 356 860 308 806 q 432 950 404 915 q 463 985 449 972 q 497 997 476 997 q 521 991 513 997 q 540 968 529 985 q 581 901 563 926 q 639 831 599 876 q 647 811 647 821 q 638 788 647 800 q 610 756 629 775 q 561 725 575 725 z "},"ä":{"ha":654,"x_min":24,"x_max":665,"o":"m 115 -14 q 48 29 72 -14 q 24 144 24 72 q 80 381 24 260 q 233 581 136 501 q 443 661 331 661 q 515 653 479 661 q 572 632 550 644 q 556 582 560 601 q 550 557 551 563 q 522 405 540 507 q 486 210 503 303 q 478 146 478 168 q 483 124 478 131 q 497 117 488 117 q 540 145 521 117 q 582 225 560 174 q 589 239 585 233 q 600 244 593 244 q 613 225 613 244 q 611 210 613 215 q 575 105 604 157 q 503 19 546 53 q 417 -14 461 -14 q 360 13 381 -14 q 340 83 340 39 q 343 117 340 94 l 350 164 l 347 164 q 230 36 296 86 q 115 -14 164 -14 m 194 124 q 273 178 225 124 q 363 315 321 232 q 418 479 404 397 l 428 533 q 364 554 393 554 q 274 499 319 554 q 201 358 229 444 q 172 181 172 271 q 177 135 172 147 q 194 124 182 124 m 324 725 q 282 741 299 725 q 265 782 265 757 q 298 852 265 819 q 368 885 331 885 q 408 870 392 885 q 424 831 424 856 q 392 759 424 793 q 324 725 361 725 m 564 725 q 523 741 540 725 q 506 782 506 757 q 538 852 506 819 q 610 885 569 885 q 649 870 633 885 q 665 831 665 856 q 633 759 665 793 q 564 725 601 725 z "},"à":{"ha":654,"x_min":24,"x_max":613,"o":"m 115 -14 q 48 29 72 -14 q 24 144 24 72 q 80 381 24 260 q 233 581 136 501 q 443 661 331 661 q 515 653 479 661 q 572 632 550 644 q 556 582 560 601 q 550 557 551 563 q 522 405 540 507 q 486 210 503 303 q 478 146 478 168 q 483 124 478 131 q 497 117 488 117 q 540 145 521 117 q 582 225 560 174 q 589 239 585 233 q 600 244 593 244 q 613 225 613 244 q 611 210 613 215 q 575 105 604 157 q 503 19 546 53 q 417 -14 461 -14 q 360 13 381 -14 q 340 83 340 39 q 343 117 340 94 l 350 164 l 347 164 q 230 36 296 86 q 115 -14 164 -14 m 194 124 q 273 178 225 124 q 363 315 321 232 q 418 479 404 397 l 428 533 q 364 554 393 554 q 274 499 319 554 q 201 358 229 444 q 172 181 172 271 q 177 135 172 147 q 194 124 182 124 m 565 725 q 453 764 510 729 q 359 847 396 799 q 322 939 322 894 q 330 962 322 956 q 358 968 338 968 q 417 960 396 968 q 444 932 438 953 q 489 834 467 867 q 550 775 511 801 q 572 761 563 767 q 585 751 581 756 q 590 740 590 747 q 583 728 590 732 q 565 725 576 724 z "},"å":{"ha":654,"x_min":24,"x_max":613,"o":"m 115 -14 q 48 29 72 -14 q 24 144 24 72 q 80 381 24 260 q 233 581 136 501 q 443 661 331 661 q 515 653 479 661 q 572 632 550 644 q 556 582 560 601 q 550 557 551 563 q 522 405 540 507 q 486 210 503 303 q 478 146 478 168 q 483 124 478 131 q 497 117 488 117 q 540 145 521 117 q 582 225 560 174 q 589 239 585 233 q 600 244 593 244 q 613 225 613 244 q 611 210 613 215 q 575 105 604 157 q 503 19 546 53 q 417 -14 461 -14 q 360 13 381 -14 q 340 83 340 39 q 343 117 340 94 l 350 164 l 347 164 q 230 36 296 86 q 115 -14 164 -14 m 194 124 q 273 178 225 124 q 363 315 321 232 q 418 479 404 397 l 428 533 q 364 554 393 554 q 274 499 319 554 q 201 358 229 444 q 172 181 172 271 q 177 135 172 147 q 194 124 182 124 m 440 725 q 356 751 388 725 q 325 821 325 776 q 347 899 325 863 q 409 959 369 936 q 497 982 449 982 q 581 957 551 982 q 611 885 611 932 q 589 808 611 844 q 528 748 567 771 q 440 725 489 725 m 454 782 q 502 806 483 782 q 521 871 521 831 q 510 911 521 896 q 483 926 500 926 q 434 900 454 926 q 414 835 414 874 q 425 797 414 811 q 454 782 436 782 z "},"ã":{"ha":654,"x_min":24,"x_max":643,"o":"m 115 -14 q 48 29 72 -14 q 24 144 24 72 q 80 381 24 260 q 233 581 136 501 q 443 661 331 661 q 515 653 479 661 q 572 632 550 644 q 556 582 560 601 q 550 557 551 563 q 522 405 540 507 q 486 210 503 303 q 478 146 478 168 q 483 124 478 131 q 497 117 488 117 q 540 145 521 117 q 582 225 560 174 q 589 239 585 233 q 600 244 593 244 q 613 225 613 244 q 611 210 613 215 q 575 105 604 157 q 503 19 546 53 q 417 -14 461 -14 q 360 13 381 -14 q 340 83 340 39 q 343 117 340 94 l 350 164 l 347 164 q 230 36 296 86 q 115 -14 164 -14 m 194 124 q 273 178 225 124 q 363 315 321 232 q 418 479 404 397 l 428 533 q 364 554 393 554 q 274 499 319 554 q 201 358 229 444 q 172 181 172 271 q 177 135 172 147 q 194 124 182 124 m 282 725 q 268 742 268 725 q 306 860 268 810 q 396 911 343 911 q 441 901 422 911 q 483 874 460 892 q 517 849 501 857 q 553 840 533 840 q 604 882 586 840 q 615 905 611 899 q 629 911 619 911 q 643 892 643 911 q 624 810 643 849 q 574 748 606 771 q 507 725 543 725 q 459 735 479 725 q 415 765 439 746 q 382 788 396 781 q 353 796 368 796 q 330 788 339 796 q 310 758 321 779 q 302 742 307 753 q 293 728 297 732 q 282 725 289 725 z "},"æ":{"ha":839,"x_min":24,"x_max":815,"o":"m 121 -14 q 50 23 76 -14 q 24 139 24 60 q 80 379 24 257 q 233 581 136 501 q 446 661 331 661 q 544 644 494 661 q 522 560 533 615 l 524 560 q 715 661 622 661 q 789 635 763 661 q 815 558 815 608 q 776 430 815 496 q 666 308 736 364 q 507 217 596 251 q 590 121 511 121 q 746 224 678 121 q 759 242 754 236 q 769 249 764 249 q 781 243 778 249 q 783 224 783 238 q 744 122 783 179 q 642 26 704 65 q 515 -14 581 -14 q 410 28 450 -14 q 364 144 369 71 l 364 164 l 361 164 q 235 32 297 78 q 121 -14 172 -14 m 192 122 q 271 177 222 122 q 362 315 319 232 q 418 479 404 399 l 428 532 q 364 551 392 551 q 274 497 319 551 q 201 356 229 443 q 172 174 172 268 q 176 133 172 144 q 192 122 181 122 m 540 331 q 603 351 571 331 q 656 408 635 372 q 676 483 676 443 q 639 533 676 533 q 560 479 596 533 q 515 335 525 425 q 540 331 525 331 z "},"ç":{"ha":510,"x_min":24,"x_max":500,"o":"m 403 661 q 473 644 446 661 q 500 597 500 626 q 476 533 500 576 q 453 514 465 514 q 436 522 443 514 q 351 560 399 560 q 259 521 300 560 q 195 415 218 482 q 172 264 172 347 q 192 155 172 189 q 257 121 213 121 q 388 224 331 121 q 399 244 394 239 q 411 249 404 249 q 425 224 425 249 q 399 139 425 185 q 330 55 374 93 q 238 -1 286 17 l 208 -57 q 311 -172 311 -90 q 266 -276 311 -235 q 143 -317 221 -317 q 83 -306 107 -317 q 58 -279 58 -296 q 78 -265 58 -265 q 117 -262 86 -264 q 167 -243 147 -261 q 188 -185 188 -225 q 176 -140 188 -156 q 133 -117 164 -125 q 113 -111 118 -114 q 108 -100 108 -108 l 108 -86 q 132 -37 108 -76 l 146 -12 q 56 47 89 -3 q 24 175 24 96 q 78 395 24 281 q 222 585 133 510 q 403 661 310 661 z "},"ð":{"ha":681,"x_min":42,"x_max":869,"o":"m 203 -14 q 85 43 128 -14 q 42 194 42 100 q 103 433 42 313 q 261 633 165 554 q 453 713 357 713 q 508 706 486 713 q 511 801 511 765 q 507 944 511 888 l 310 835 q 280 818 293 826 q 261 810 267 810 q 251 831 251 810 q 303 924 251 893 l 494 1028 q 457 1130 479 1096 q 394 1164 435 1164 q 328 1142 360 1164 q 272 1079 296 1119 q 263 1063 269 1075 q 251 1047 256 1051 q 243 1043 247 1043 q 230 1055 236 1043 q 225 1082 224 1067 q 269 1174 228 1124 q 367 1258 310 1224 q 475 1293 425 1293 q 629 1100 585 1293 l 815 1203 q 844 1219 829 1210 q 863 1229 858 1229 q 868 1223 867 1229 q 869 1208 869 1217 q 856 1150 869 1175 q 821 1114 843 1125 l 643 1018 q 654 853 654 929 l 653 803 q 624 567 647 701 q 568 347 600 432 q 469 159 529 242 q 339 31 408 76 q 203 -14 269 -14 m 275 100 q 403 230 346 100 q 488 576 460 360 q 396 606 442 606 q 294 564 339 606 q 224 447 250 522 q 194 275 197 372 q 215 144 193 188 q 275 100 236 100 z "},"é":{"ha":503,"x_min":24,"x_max":525,"o":"m 178 -14 q 65 35 106 -14 q 24 174 24 85 q 77 392 24 278 q 213 584 131 507 q 379 661 296 661 q 452 635 425 661 q 479 558 479 608 q 439 430 479 496 q 328 308 399 364 q 171 217 258 251 q 256 121 175 121 q 340 149 300 121 q 410 224 379 176 q 422 242 417 236 q 433 249 428 249 q 444 243 442 249 q 447 224 447 238 q 408 122 447 179 q 306 26 368 65 q 178 -14 243 -14 m 206 331 q 268 352 236 331 q 321 408 300 374 q 342 483 342 443 q 301 533 342 533 q 224 479 258 533 q 179 335 189 425 q 206 331 188 331 m 278 725 q 260 740 260 725 q 265 752 260 747 q 278 762 269 757 q 299 775 288 767 q 360 833 338 801 q 404 932 382 865 q 431 960 411 953 q 489 968 451 968 q 517 962 510 968 q 525 939 525 956 q 488 847 525 894 q 394 764 451 799 q 282 725 338 729 l 278 725 z "},"ê":{"ha":503,"x_min":24,"x_max":594,"o":"m 178 -14 q 65 35 106 -14 q 24 174 24 85 q 77 392 24 278 q 213 584 131 507 q 379 661 296 661 q 452 635 425 661 q 479 558 479 608 q 439 430 479 496 q 328 308 399 364 q 171 217 258 251 q 256 121 175 121 q 340 149 300 121 q 410 224 379 176 q 422 242 417 236 q 433 249 428 249 q 444 243 442 249 q 447 224 447 238 q 408 122 447 179 q 306 26 368 65 q 178 -14 243 -14 m 206 331 q 268 352 236 331 q 321 408 300 374 q 342 483 342 443 q 301 533 342 533 q 224 479 258 533 q 179 335 189 425 q 206 331 188 331 m 508 725 q 486 735 493 725 q 390 888 447 782 l 382 876 q 283 776 319 807 q 222 744 247 744 q 203 754 203 744 q 221 778 203 764 q 303 860 256 806 q 379 950 351 915 q 410 985 396 972 q 444 997 424 997 q 468 991 460 997 q 488 968 476 985 q 528 901 510 926 q 586 831 546 876 q 594 811 594 821 q 585 788 594 800 q 557 756 576 775 q 508 725 522 725 z "},"ë":{"ha":503,"x_min":24,"x_max":613,"o":"m 178 -14 q 65 35 106 -14 q 24 174 24 85 q 77 392 24 278 q 213 584 131 507 q 379 661 296 661 q 452 635 425 661 q 479 558 479 608 q 439 430 479 496 q 328 308 399 364 q 171 217 258 251 q 256 121 175 121 q 340 149 300 121 q 410 224 379 176 q 422 242 417 236 q 433 249 428 249 q 444 243 442 249 q 447 224 447 238 q 408 122 447 179 q 306 26 368 65 q 178 -14 243 -14 m 206 331 q 268 352 236 331 q 321 408 300 374 q 342 483 342 443 q 301 533 342 533 q 224 479 258 533 q 179 335 189 425 q 206 331 188 331 m 271 725 q 229 741 246 725 q 213 782 213 757 q 245 852 213 819 q 315 885 278 885 q 355 870 339 885 q 371 831 371 856 q 340 759 371 793 q 271 725 308 725 m 511 725 q 470 741 488 725 q 453 782 453 757 q 485 852 453 819 q 557 885 517 885 q 597 870 581 885 q 613 831 613 856 q 581 759 613 793 q 511 725 549 725 z "},"è":{"ha":503,"x_min":24,"x_max":538,"o":"m 178 -14 q 65 35 106 -14 q 24 174 24 85 q 77 392 24 278 q 213 584 131 507 q 379 661 296 661 q 452 635 425 661 q 479 558 479 608 q 439 430 479 496 q 328 308 399 364 q 171 217 258 251 q 256 121 175 121 q 340 149 300 121 q 410 224 379 176 q 422 242 417 236 q 433 249 428 249 q 444 243 442 249 q 447 224 447 238 q 408 122 447 179 q 306 26 368 65 q 178 -14 243 -14 m 206 331 q 268 352 236 331 q 321 408 300 374 q 342 483 342 443 q 301 533 342 533 q 224 479 258 533 q 179 335 189 425 q 206 331 188 331 m 513 725 q 400 764 457 729 q 306 847 343 799 q 269 939 269 894 q 277 962 269 956 q 306 968 285 968 q 364 960 343 968 q 392 932 385 953 q 436 834 414 867 q 497 775 458 801 q 519 761 510 767 q 533 751 528 756 q 538 740 538 747 q 531 728 538 732 q 513 725 524 724 z "},"ı":{"ha":336,"x_min":36,"x_max":297,"o":"m 126 -11 q 72 61 72 -11 q 78 117 72 89 l 131 388 q 133 413 133 407 q 124 428 133 428 q 99 412 113 428 q 65 358 86 396 q 58 345 64 356 q 46 335 53 335 q 36 353 36 335 q 63 427 36 383 q 131 502 90 471 q 208 533 171 533 q 254 471 254 533 q 247 408 254 440 l 192 119 q 190 107 190 115 q 201 94 190 94 q 235 117 217 94 q 269 182 253 140 q 276 193 272 189 q 283 197 279 197 q 293 169 297 197 q 264 88 290 131 q 200 17 238 46 q 126 -11 163 -11 z "},"í":{"ha":336,"x_min":36,"x_max":344,"o":"m 126 -11 q 72 61 72 -11 q 78 117 72 89 l 131 388 q 133 413 133 407 q 124 428 133 428 q 99 412 113 428 q 65 358 86 396 q 58 345 64 356 q 46 335 53 335 q 36 353 36 335 q 63 427 36 383 q 131 502 90 471 q 208 533 171 533 q 254 471 254 533 q 247 408 254 440 l 192 119 q 190 107 190 115 q 201 94 190 94 q 235 117 217 94 q 269 182 253 140 q 276 193 272 189 q 283 197 279 197 q 293 169 297 197 q 264 88 290 131 q 200 17 238 46 q 126 -11 163 -11 m 97 600 q 79 615 79 600 q 84 627 79 622 q 98 637 89 632 q 118 650 107 642 q 179 708 157 676 q 224 807 201 740 q 251 835 231 828 q 308 843 271 843 q 337 837 329 843 q 344 814 344 831 q 308 722 344 769 q 214 639 271 674 q 101 600 157 604 l 97 600 z "},"î":{"ha":336,"x_min":22,"x_max":414,"o":"m 126 -11 q 72 61 72 -11 q 78 117 72 89 l 131 388 q 133 413 133 407 q 124 428 133 428 q 99 412 113 428 q 65 358 86 396 q 58 345 64 356 q 46 335 53 335 q 36 353 36 335 q 63 427 36 383 q 131 502 90 471 q 208 533 171 533 q 254 471 254 533 q 247 408 254 440 l 192 119 q 190 107 190 115 q 201 94 190 94 q 235 117 217 94 q 269 182 253 140 q 276 193 272 189 q 283 197 279 197 q 293 169 297 197 q 264 88 290 131 q 200 17 238 46 q 126 -11 163 -11 m 328 600 q 306 610 313 600 q 210 763 267 657 l 201 751 q 103 651 139 682 q 42 619 67 619 q 22 629 22 619 q 40 653 22 639 q 123 735 75 681 q 199 825 171 790 q 229 860 215 847 q 264 872 243 872 q 288 866 279 872 q 307 843 296 860 q 347 776 329 801 q 406 706 365 751 q 414 686 414 696 q 405 663 414 675 q 376 631 396 650 q 328 600 342 600 z "},"ï":{"ha":336,"x_min":32,"x_max":432,"o":"m 126 -11 q 72 61 72 -11 q 78 117 72 89 l 131 388 q 133 413 133 407 q 124 428 133 428 q 99 412 113 428 q 65 358 86 396 q 58 345 64 356 q 46 335 53 335 q 36 353 36 335 q 63 427 36 383 q 131 502 90 471 q 208 533 171 533 q 254 471 254 533 q 247 408 254 440 l 192 119 q 190 107 190 115 q 201 94 190 94 q 235 117 217 94 q 269 182 253 140 q 276 193 272 189 q 283 197 279 197 q 293 169 297 197 q 264 88 290 131 q 200 17 238 46 q 126 -11 163 -11 m 90 600 q 49 616 65 600 q 32 657 32 632 q 65 727 32 694 q 135 760 97 760 q 174 745 158 760 q 190 706 190 731 q 159 634 190 668 q 90 600 128 600 m 331 600 q 290 616 307 600 q 272 657 272 632 q 304 727 272 694 q 376 760 336 760 q 416 745 400 760 q 432 706 432 731 q 400 634 432 668 q 331 600 368 600 z "},"ì":{"ha":336,"x_min":36,"x_max":357,"o":"m 126 -11 q 72 61 72 -11 q 78 117 72 89 l 131 388 q 133 413 133 407 q 124 428 133 428 q 99 412 113 428 q 65 358 86 396 q 58 345 64 356 q 46 335 53 335 q 36 353 36 335 q 63 427 36 383 q 131 502 90 471 q 208 533 171 533 q 254 471 254 533 q 247 408 254 440 l 192 119 q 190 107 190 115 q 201 94 190 94 q 235 117 217 94 q 269 182 253 140 q 276 193 272 189 q 283 197 279 197 q 293 169 297 197 q 264 88 290 131 q 200 17 238 46 q 126 -11 163 -11 m 332 600 q 219 639 276 604 q 126 722 163 674 q 89 814 89 769 q 97 837 89 831 q 125 843 104 843 q 183 835 163 843 q 211 807 204 828 q 256 709 233 742 q 317 650 278 676 q 338 636 329 642 q 352 626 347 631 q 357 615 357 622 q 350 603 357 607 q 332 600 343 599 z "},"ñ":{"ha":724,"x_min":44,"x_max":682,"o":"m 99 -14 q 76 1 76 -14 q 83 31 76 7 q 103 100 90 49 q 131 246 113 140 q 164 451 149 351 q 171 508 171 496 q 158 529 171 529 q 126 508 146 529 q 85 444 107 486 q 72 424 79 433 q 58 415 65 415 q 44 439 44 415 q 77 530 44 476 q 158 622 110 583 q 250 661 206 661 q 294 642 278 661 q 311 581 311 622 q 300 457 311 526 l 301 457 q 551 661 450 661 q 622 563 622 661 q 610 457 622 519 q 564 227 576 294 q 551 146 551 160 q 568 117 551 117 q 647 225 607 117 q 665 244 656 244 q 679 210 682 244 q 643 108 674 161 q 567 21 613 56 q 476 -14 522 -14 q 408 78 408 -14 q 417 165 408 114 q 442 297 425 217 q 462 406 453 351 q 472 493 471 460 l 472 504 q 458 526 472 526 q 393 477 435 526 q 315 354 351 428 q 264 213 278 281 l 242 100 q 188 22 233 58 q 99 -14 143 -14 m 236 725 q 222 742 222 725 q 260 860 222 810 q 350 911 297 911 q 395 901 376 911 q 438 874 414 892 q 472 849 456 857 q 507 840 488 840 q 558 882 540 840 q 569 905 565 899 q 583 911 574 911 q 597 892 597 911 q 578 810 597 849 q 528 748 560 771 q 461 725 497 725 q 413 735 433 725 q 369 765 393 746 q 336 788 350 781 q 307 796 322 796 q 284 788 293 796 q 264 758 275 779 q 256 742 261 753 q 247 728 251 732 q 236 725 243 725 z "},"ó":{"ha":557,"x_min":24,"x_max":544,"o":"m 164 -14 q 61 34 99 -14 q 24 172 24 82 q 80 399 24 285 q 222 587 136 513 q 388 661 307 661 q 489 613 453 661 q 525 476 525 564 q 472 254 525 369 q 334 63 418 139 q 164 -14 250 -14 m 239 107 q 310 148 278 107 q 360 258 342 189 q 378 410 378 328 q 363 510 378 479 q 315 540 347 540 q 245 502 278 540 q 192 397 213 464 q 172 249 172 331 q 239 107 172 107 m 297 725 q 279 740 279 725 q 284 752 279 747 q 298 762 289 757 q 318 775 307 767 q 379 833 357 801 q 424 932 401 865 q 451 960 431 953 q 508 968 471 968 q 537 962 529 968 q 544 939 544 956 q 508 847 544 894 q 414 764 471 799 q 301 725 357 729 l 297 725 z "},"ô":{"ha":557,"x_min":24,"x_max":614,"o":"m 164 -14 q 61 34 99 -14 q 24 172 24 82 q 80 399 24 285 q 222 587 136 513 q 388 661 307 661 q 489 613 453 661 q 525 476 525 564 q 472 254 525 369 q 334 63 418 139 q 164 -14 250 -14 m 239 107 q 310 148 278 107 q 360 258 342 189 q 378 410 378 328 q 363 510 378 479 q 315 540 347 540 q 245 502 278 540 q 192 397 213 464 q 172 249 172 331 q 239 107 172 107 m 528 725 q 506 735 513 725 q 410 888 467 782 l 401 876 q 303 776 339 807 q 242 744 267 744 q 222 754 222 744 q 240 778 222 764 q 323 860 275 806 q 399 950 371 915 q 429 985 415 972 q 464 997 443 997 q 488 991 479 997 q 507 968 496 985 q 547 901 529 926 q 606 831 565 876 q 614 811 614 821 q 605 788 614 800 q 576 756 596 775 q 528 725 542 725 z "},"ö":{"ha":557,"x_min":24,"x_max":632,"o":"m 164 -14 q 61 34 99 -14 q 24 172 24 82 q 80 399 24 285 q 222 587 136 513 q 388 661 307 661 q 489 613 453 661 q 525 476 525 564 q 472 254 525 369 q 334 63 418 139 q 164 -14 250 -14 m 239 107 q 310 148 278 107 q 360 258 342 189 q 378 410 378 328 q 363 510 378 479 q 315 540 347 540 q 245 502 278 540 q 192 397 213 464 q 172 249 172 331 q 239 107 172 107 m 290 725 q 249 741 265 725 q 232 782 232 757 q 265 852 232 819 q 335 885 297 885 q 374 870 358 885 q 390 831 390 856 q 359 759 390 793 q 290 725 328 725 m 531 725 q 490 741 507 725 q 472 782 472 757 q 504 852 472 819 q 576 885 536 885 q 616 870 600 885 q 632 831 632 856 q 600 759 632 793 q 531 725 568 725 z "},"ò":{"ha":557,"x_min":24,"x_max":525,"o":"m 164 -14 q 61 34 99 -14 q 24 172 24 82 q 80 399 24 285 q 222 587 136 513 q 388 661 307 661 q 489 613 453 661 q 525 476 525 564 q 472 254 525 369 q 334 63 418 139 q 164 -14 250 -14 m 239 107 q 310 148 278 107 q 360 258 342 189 q 378 410 378 328 q 363 510 378 479 q 315 540 347 540 q 245 502 278 540 q 192 397 213 464 q 172 249 172 331 q 239 107 172 107 m 492 725 q 379 764 436 729 q 285 847 322 799 q 249 939 249 894 q 256 962 249 956 q 285 968 264 968 q 343 960 322 968 q 371 932 364 953 q 415 834 393 867 q 476 775 438 801 q 498 761 489 767 q 512 751 507 756 q 517 740 517 747 q 510 728 517 732 q 492 725 503 724 z "},"ø":{"ha":557,"x_min":-90,"x_max":681,"o":"m 646 826 q 681 808 681 826 q 675 792 681 799 l 511 568 q 525 476 525 532 q 472 254 525 369 q 334 63 418 139 q 164 -14 250 -14 q 97 3 126 -14 l 35 -85 q -1 -109 24 -99 q -56 -119 -26 -119 q -81 -115 -71 -119 q -90 -101 -90 -110 q -83 -85 -90 -94 l 36 81 q 24 168 24 125 q 79 397 24 282 q 220 587 135 513 q 388 661 306 661 q 451 646 424 661 l 557 790 q 592 816 567 806 q 646 826 617 826 m 315 540 q 246 502 279 540 q 192 398 213 464 q 172 250 172 332 l 363 511 q 315 540 347 540 m 239 107 q 308 147 276 107 q 359 254 340 186 q 378 401 378 322 l 189 142 q 239 107 206 107 z "},"õ":{"ha":557,"x_min":24,"x_max":610,"o":"m 164 -14 q 61 34 99 -14 q 24 172 24 82 q 80 399 24 285 q 222 587 136 513 q 388 661 307 661 q 489 613 453 661 q 525 476 525 564 q 472 254 525 369 q 334 63 418 139 q 164 -14 250 -14 m 239 107 q 310 148 278 107 q 360 258 342 189 q 378 410 378 328 q 363 510 378 479 q 315 540 347 540 q 245 502 278 540 q 192 397 213 464 q 172 249 172 331 q 239 107 172 107 m 249 725 q 235 742 235 725 q 272 860 235 810 q 363 911 310 911 q 408 901 389 911 q 450 874 426 892 q 484 849 468 857 q 519 840 500 840 q 571 882 553 840 q 582 905 578 899 q 596 911 586 911 q 610 892 610 911 q 591 810 610 849 q 541 748 572 771 q 474 725 510 725 q 426 735 446 725 q 382 765 406 746 q 349 788 363 781 q 319 796 335 796 q 297 788 306 796 q 276 758 288 779 q 269 742 274 753 q 260 728 264 732 q 249 725 256 725 z "},"œ":{"ha":836,"x_min":24,"x_max":813,"o":"m 768 249 q 782 224 782 249 q 742 122 782 179 q 639 26 701 65 q 511 -14 576 -14 q 420 15 457 -14 q 368 96 383 43 q 164 -14 265 -14 q 61 34 99 -14 q 24 172 24 82 q 80 399 24 285 q 222 587 136 513 q 388 661 307 661 q 469 633 436 661 q 517 553 501 606 q 613 633 563 604 q 713 661 663 661 q 786 635 760 661 q 813 558 813 608 q 772 430 813 496 q 662 308 732 364 q 504 217 592 251 q 589 121 510 121 q 674 149 635 121 q 744 224 714 176 q 757 242 751 236 q 768 249 763 249 m 239 107 q 310 148 278 107 q 360 258 342 189 q 378 410 378 328 q 363 510 378 479 q 315 540 347 540 q 245 502 278 540 q 192 397 213 464 q 172 249 172 331 q 239 107 172 107 m 636 533 q 558 478 593 533 q 514 335 524 424 q 539 331 519 331 q 601 351 569 331 q 654 408 633 372 q 675 483 675 443 q 636 533 675 533 z "},"þ":{"ha":638,"x_min":-417,"x_max":708,"o":"m -192 -554 q -312 -524 -261 -554 q -390 -453 -364 -494 q -417 -382 -417 -412 q -397 -328 -417 -353 q -350 -287 -376 -303 q -307 -272 -324 -272 q -295 -276 -299 -272 q -287 -293 -292 -281 q -265 -385 -276 -350 q -226 -442 -253 -419 q -153 -465 -200 -465 q -56 -424 -93 -465 q 0 -315 -19 -383 q 36 -139 19 -246 l 167 733 q 255 1012 190 890 q 413 1201 319 1133 q 615 1268 506 1268 q 658 1265 635 1268 q 696 1257 682 1263 q 708 1243 708 1253 q 704 1228 708 1236 q 665 1169 688 1193 q 622 1146 643 1146 q 592 1151 615 1146 q 546 1157 568 1157 q 400 1073 457 1157 q 318 833 343 989 l 258 457 l 260 457 q 378 606 313 551 q 500 661 444 661 q 573 617 546 661 q 600 483 600 572 q 547 238 600 353 q 412 55 493 124 q 253 -14 331 -14 q 199 -3 229 -14 l 175 -129 q 102 -353 154 -257 q -26 -501 50 -449 q -192 -554 -101 -554 m 285 94 q 373 141 335 94 q 432 265 411 188 q 453 431 453 342 q 446 497 453 475 q 421 518 439 518 q 347 467 390 518 q 268 337 303 417 q 222 175 233 257 l 214 117 q 285 94 246 94 z "},"ß":{"ha":729,"x_min":-393,"x_max":742,"o":"m -189 -554 q -304 -522 -258 -554 q -372 -444 -350 -489 q -393 -368 -393 -400 q -372 -312 -393 -337 q -324 -273 -351 -287 q -279 -258 -296 -258 q -268 -263 -271 -258 q -264 -279 -265 -268 q -254 -373 -261 -336 q -223 -437 -247 -410 q -150 -465 -199 -465 q -74 -434 -103 -465 q -22 -333 -44 -403 q 24 -132 0 -264 l 156 572 q 242 815 181 710 q 390 976 304 919 q 569 1033 475 1033 q 695 996 649 1033 q 742 897 742 958 q 721 821 742 858 q 662 743 700 783 q 546 629 624 703 q 479 518 479 565 q 490 479 479 500 q 532 417 500 458 l 563 375 q 618 290 603 321 q 633 224 633 260 q 591 108 633 163 q 486 19 549 53 q 367 -14 424 -14 q 265 21 311 -14 q 246 44 246 33 q 253 58 246 51 l 322 128 q 335 139 329 135 q 346 143 340 143 q 367 131 354 143 q 407 98 389 108 q 446 88 425 88 q 501 153 501 88 q 491 198 501 176 q 446 271 481 219 l 417 311 q 366 397 381 363 q 351 465 351 432 q 372 546 351 508 q 439 629 393 583 l 460 649 q 557 753 524 707 q 590 856 590 799 q 571 913 590 899 q 515 928 551 928 q 420 899 458 928 q 356 803 382 871 q 307 617 329 736 l 182 -64 q 43 -422 142 -289 q -189 -554 -56 -554 z "},"ú":{"ha":726,"x_min":44,"x_max":681,"o":"m 182 -14 q 110 96 110 -14 q 122 213 110 138 l 165 467 q 171 514 171 494 q 158 532 171 532 q 128 513 144 532 q 85 444 113 494 q 72 424 79 433 q 58 415 65 415 q 44 439 44 415 q 78 528 44 475 q 159 622 111 582 q 251 661 207 661 q 298 642 282 661 q 314 589 314 624 q 311 561 314 581 l 251 163 l 251 149 q 254 133 251 138 q 265 128 257 128 q 341 179 297 128 q 422 310 385 231 q 475 472 460 390 l 489 544 q 540 628 499 596 q 632 661 582 661 q 648 658 643 661 q 653 647 653 656 q 646 625 653 642 q 631 563 639 608 q 560 200 618 514 q 553 143 553 169 q 569 117 553 117 q 607 141 592 117 q 651 225 622 165 q 668 244 658 244 q 681 221 681 244 q 651 119 681 175 q 574 25 621 64 q 479 -14 526 -14 q 414 68 414 -14 q 428 181 414 107 l 425 182 q 306 43 371 100 q 182 -14 240 -14 m 315 725 q 297 740 297 725 q 302 752 297 747 q 316 762 307 757 q 336 775 325 767 q 397 833 375 801 q 442 932 419 865 q 469 960 449 953 q 526 968 489 968 q 555 962 547 968 q 563 939 563 956 q 526 847 563 894 q 432 764 489 799 q 319 725 375 729 l 315 725 z "},"û":{"ha":726,"x_min":44,"x_max":681,"o":"m 182 -14 q 110 96 110 -14 q 122 213 110 138 l 165 467 q 171 514 171 494 q 158 532 171 532 q 128 513 144 532 q 85 444 113 494 q 72 424 79 433 q 58 415 65 415 q 44 439 44 415 q 78 528 44 475 q 159 622 111 582 q 251 661 207 661 q 298 642 282 661 q 314 589 314 624 q 311 561 314 581 l 251 163 l 251 149 q 254 133 251 138 q 265 128 257 128 q 341 179 297 128 q 422 310 385 231 q 475 472 460 390 l 489 544 q 540 628 499 596 q 632 661 582 661 q 648 658 643 661 q 653 647 653 656 q 646 625 653 642 q 631 563 639 608 q 560 200 618 514 q 553 143 553 169 q 569 117 553 117 q 607 141 592 117 q 651 225 622 165 q 668 244 658 244 q 681 221 681 244 q 651 119 681 175 q 574 25 621 64 q 479 -14 526 -14 q 414 68 414 -14 q 428 181 414 107 l 425 182 q 306 43 371 100 q 182 -14 240 -14 m 546 725 q 524 735 531 725 q 428 888 485 782 l 419 876 q 321 776 357 807 q 260 744 285 744 q 240 754 240 744 q 258 778 240 764 q 341 860 293 806 q 417 950 389 915 q 447 985 433 972 q 482 997 461 997 q 506 991 497 997 q 525 968 514 985 q 565 901 547 926 q 624 831 583 876 q 632 811 632 821 q 623 788 632 800 q 594 756 614 775 q 546 725 560 725 z "},"ü":{"ha":726,"x_min":44,"x_max":681,"o":"m 182 -14 q 110 96 110 -14 q 122 213 110 138 l 165 467 q 171 514 171 494 q 158 532 171 532 q 128 513 144 532 q 85 444 113 494 q 72 424 79 433 q 58 415 65 415 q 44 439 44 415 q 78 528 44 475 q 159 622 111 582 q 251 661 207 661 q 298 642 282 661 q 314 589 314 624 q 311 561 314 581 l 251 163 l 251 149 q 254 133 251 138 q 265 128 257 128 q 341 179 297 128 q 422 310 385 231 q 475 472 460 390 l 489 544 q 540 628 499 596 q 632 661 582 661 q 648 658 643 661 q 653 647 653 656 q 646 625 653 642 q 631 563 639 608 q 560 200 618 514 q 553 143 553 169 q 569 117 553 117 q 607 141 592 117 q 651 225 622 165 q 668 244 658 244 q 681 221 681 244 q 651 119 681 175 q 574 25 621 64 q 479 -14 526 -14 q 414 68 414 -14 q 428 181 414 107 l 425 182 q 306 43 371 100 q 182 -14 240 -14 m 308 725 q 267 741 283 725 q 250 782 250 757 q 283 852 250 819 q 353 885 315 885 q 392 870 376 885 q 408 831 408 856 q 377 759 408 793 q 308 725 346 725 m 549 725 q 508 741 525 725 q 490 782 490 757 q 522 852 490 819 q 594 885 554 885 q 634 870 618 885 q 650 831 650 856 q 618 759 650 793 q 549 725 586 725 z "},"ù":{"ha":726,"x_min":44,"x_max":681,"o":"m 182 -14 q 110 96 110 -14 q 122 213 110 138 l 165 467 q 171 514 171 494 q 158 532 171 532 q 128 513 144 532 q 85 444 113 494 q 72 424 79 433 q 58 415 65 415 q 44 439 44 415 q 78 528 44 475 q 159 622 111 582 q 251 661 207 661 q 298 642 282 661 q 314 589 314 624 q 311 561 314 581 l 251 163 l 251 149 q 254 133 251 138 q 265 128 257 128 q 341 179 297 128 q 422 310 385 231 q 475 472 460 390 l 489 544 q 540 628 499 596 q 632 661 582 661 q 648 658 643 661 q 653 647 653 656 q 646 625 653 642 q 631 563 639 608 q 560 200 618 514 q 553 143 553 169 q 569 117 553 117 q 607 141 592 117 q 651 225 622 165 q 668 244 658 244 q 681 221 681 244 q 651 119 681 175 q 574 25 621 64 q 479 -14 526 -14 q 414 68 414 -14 q 428 181 414 107 l 425 182 q 306 43 371 100 q 182 -14 240 -14 m 550 725 q 438 764 494 729 q 344 847 381 799 q 307 939 307 894 q 315 962 307 956 q 343 968 322 968 q 401 960 381 968 q 429 932 422 953 q 474 834 451 867 q 535 775 496 801 q 556 761 547 767 q 570 751 565 756 q 575 740 575 747 q 568 728 575 732 q 550 725 561 724 z "},"ý":{"ha":724,"x_min":-79,"x_max":703,"o":"m 110 -554 q 6 -524 49 -554 q -58 -448 -37 -493 q -79 -358 -79 -403 q -56 -276 -79 -311 q -5 -224 -33 -242 q 38 -207 24 -207 q 46 -211 43 -207 q 49 -229 49 -215 q 77 -389 50 -340 q 178 -437 104 -437 q 343 -324 290 -437 q 363 -264 356 -296 q 390 -142 371 -232 l 422 14 l 450 144 l 447 144 q 346 28 394 69 q 260 -14 297 -14 q 186 163 183 -14 l 194 479 q 191 526 196 514 q 172 539 186 539 q 147 526 158 539 q 117 482 135 513 q 97 452 103 460 q 83 444 92 444 q 72 449 75 444 q 69 467 69 454 q 97 552 69 506 q 166 630 124 599 q 251 661 208 661 q 314 624 296 661 q 332 508 332 588 q 331 454 332 474 l 324 278 q 321 210 321 222 q 326 157 321 171 q 343 143 332 143 q 399 190 367 143 q 463 313 432 238 q 511 465 493 388 l 531 547 q 585 626 540 590 q 675 661 631 661 q 703 643 703 661 q 697 626 703 638 q 686 597 692 614 q 647 453 668 551 l 574 92 l 560 25 q 518 -164 533 -104 q 480 -273 503 -224 q 415 -375 457 -322 q 265 -508 346 -461 q 110 -554 185 -554 m 340 725 q 322 740 322 725 q 327 752 322 747 q 341 762 332 757 q 361 775 350 767 q 422 833 400 801 q 467 932 444 865 q 494 960 474 953 q 551 968 514 968 q 580 962 572 968 q 588 939 588 956 q 551 847 588 894 q 457 764 514 799 q 344 725 400 729 l 340 725 z "},"ÿ":{"ha":724,"x_min":-79,"x_max":703,"o":"m 110 -554 q 6 -524 49 -554 q -58 -448 -37 -493 q -79 -358 -79 -403 q -56 -276 -79 -311 q -5 -224 -33 -242 q 38 -207 24 -207 q 46 -211 43 -207 q 49 -229 49 -215 q 77 -389 50 -340 q 178 -437 104 -437 q 343 -324 290 -437 q 363 -264 356 -296 q 390 -142 371 -232 l 422 14 l 450 144 l 447 144 q 346 28 394 69 q 260 -14 297 -14 q 186 163 183 -14 l 194 479 q 191 526 196 514 q 172 539 186 539 q 147 526 158 539 q 117 482 135 513 q 97 452 103 460 q 83 444 92 444 q 72 449 75 444 q 69 467 69 454 q 97 552 69 506 q 166 630 124 599 q 251 661 208 661 q 314 624 296 661 q 332 508 332 588 q 331 454 332 474 l 324 278 q 321 210 321 222 q 326 157 321 171 q 343 143 332 143 q 399 190 367 143 q 463 313 432 238 q 511 465 493 388 l 531 547 q 585 626 540 590 q 675 661 631 661 q 703 643 703 661 q 697 626 703 638 q 686 597 692 614 q 647 453 668 551 l 574 92 l 560 25 q 518 -164 533 -104 q 480 -273 503 -224 q 415 -375 457 -322 q 265 -508 346 -461 q 110 -554 185 -554 m 333 725 q 292 741 308 725 q 275 782 275 757 q 308 852 275 819 q 378 885 340 885 q 417 870 401 885 q 433 831 433 856 q 402 759 433 793 q 333 725 371 725 m 574 725 q 533 741 550 725 q 515 782 515 757 q 547 852 515 819 q 619 885 579 885 q 659 870 643 885 q 675 831 675 856 q 643 759 675 793 q 574 725 611 725 z "},"ª":{"ha":522,"x_min":58,"x_max":504,"o":"m 146 514 q 81 546 104 514 q 58 632 58 578 q 97 796 58 715 q 202 927 135 876 q 351 978 269 978 q 413 970 383 978 q 461 953 442 963 q 454 933 460 949 q 444 899 449 918 q 424 778 435 861 l 414 717 q 407 653 407 668 q 410 631 407 638 q 424 624 414 624 q 450 641 436 624 q 476 696 464 658 q 493 710 482 710 q 504 688 504 710 q 485 612 504 653 q 432 542 465 571 q 358 514 399 514 q 321 532 335 514 q 307 582 307 550 q 308 601 307 594 l 314 640 l 311 640 q 233 552 281 590 q 146 514 185 514 m 207 629 q 274 692 242 629 q 328 856 306 756 l 335 889 q 294 896 314 896 q 240 866 265 896 q 198 786 214 836 q 182 679 182 736 q 207 629 182 629 z "},"º":{"ha":414,"x_min":58,"x_max":433,"o":"m 175 514 q 89 548 119 514 q 58 650 58 582 q 99 804 58 728 q 201 929 139 881 q 322 978 263 978 q 404 944 375 978 q 433 853 433 910 q 395 693 433 772 q 297 564 357 614 q 175 514 238 514 m 222 613 q 283 665 260 613 q 307 803 307 718 q 297 859 307 840 q 271 878 288 878 q 213 837 240 878 q 185 697 185 796 q 194 635 185 657 q 222 613 204 613 z "},"¹":{"ha":400,"x_min":44,"x_max":303,"o":"m 51 468 q 46 472 47 468 q 44 482 44 476 q 51 513 44 497 q 72 540 58 529 q 88 550 79 544 q 107 563 97 556 q 124 583 119 572 q 131 610 128 593 l 169 836 l 160 829 q 125 808 140 817 q 100 800 110 800 q 83 810 89 800 q 64 846 76 819 q 63 853 63 849 q 65 860 63 857 q 71 864 68 864 q 215 961 176 938 q 240 974 228 969 q 271 978 251 978 q 303 975 278 978 l 249 617 q 239 577 244 592 q 222 551 233 563 l 222 549 q 251 542 239 542 q 274 544 265 542 q 286 547 282 547 q 292 544 290 547 q 293 535 293 540 q 286 510 293 522 q 253 474 269 481 q 217 468 236 468 q 188 473 208 468 q 138 478 167 478 q 81 473 104 478 q 51 468 58 468 z "},"²":{"ha":408,"x_min":-10,"x_max":343,"o":"m 0 482 q -8 485 -6 482 q -10 497 -10 489 q 15 554 -10 526 q 68 604 33 574 q 175 716 138 667 q 213 824 213 765 q 157 883 213 883 q 76 846 114 883 q 53 832 63 832 q 44 843 44 832 q 60 882 44 856 q 126 951 85 925 q 217 978 168 978 q 307 943 272 978 q 342 853 342 908 q 300 739 342 796 q 153 585 258 682 l 153 583 q 169 584 163 585 q 179 583 175 583 q 197 582 189 583 q 210 579 204 581 q 229 576 218 578 q 256 575 240 575 q 293 578 279 575 q 317 596 307 582 q 323 603 319 599 q 329 608 326 608 q 339 597 335 608 q 343 572 343 586 q 315 506 343 531 q 239 482 286 482 q 174 490 218 482 q 92 501 124 501 q 30 492 54 501 q 0 482 6 482 z "},"³":{"ha":408,"x_min":-3,"x_max":350,"o":"m 135 482 q 38 505 79 482 q -3 568 -3 528 q 12 606 -3 590 q 45 630 26 622 q 74 638 64 638 q 78 636 76 638 q 81 632 81 635 q 87 609 82 628 q 107 576 92 590 q 150 561 122 561 q 215 644 215 561 q 167 711 215 711 l 122 710 q 104 713 107 710 q 103 731 101 717 q 109 760 106 747 q 119 775 113 774 q 151 776 124 775 q 202 794 179 776 q 225 847 225 811 q 178 896 225 896 q 108 868 143 896 q 97 856 103 863 q 86 850 90 850 q 78 864 78 850 q 89 903 78 881 q 151 957 110 936 q 238 978 192 978 q 320 950 290 978 q 350 875 350 922 q 274 760 350 803 l 274 757 q 320 724 301 743 q 339 664 339 706 q 312 578 339 621 q 238 509 285 536 q 135 482 192 482 z "},"⁴":{"ha":417,"x_min":-8,"x_max":386,"o":"m 165 489 q 147 491 151 489 q 144 499 143 493 l 160 613 l 40 613 q -7 656 -8 613 l -6 682 l 57 781 q 88 831 68 800 q 121 883 107 863 q 130 895 126 892 q 139 899 133 899 q 162 887 150 899 q 181 860 174 875 q 185 840 188 846 q 129 750 164 804 l 96 699 l 181 699 l 215 904 q 254 955 221 932 q 328 978 288 978 q 341 976 338 978 q 344 968 344 974 q 336 942 344 963 q 324 892 328 921 l 294 699 l 318 699 q 356 706 338 699 q 378 713 374 713 q 386 699 386 713 q 374 665 386 686 q 341 628 363 644 q 293 613 319 613 l 279 613 l 265 522 q 229 498 264 507 q 165 489 194 489 z "},"⁄":{"ha":249,"x_min":-186,"x_max":403,"o":"m -158 0 q -186 13 -186 0 q -182 24 -186 18 l 274 853 q 309 883 283 871 q 372 894 335 894 q 397 888 390 894 q 396 869 403 881 l -60 42 q -95 11 -69 22 q -158 0 -121 0 z "},"½":{"ha":860,"x_min":58,"x_max":781,"o":"m 65 468 q 60 472 61 468 q 58 482 58 476 q 65 513 58 497 q 86 540 72 529 q 102 550 93 544 q 121 563 111 556 q 138 583 133 572 q 144 610 142 593 l 183 836 l 174 829 q 139 808 154 817 q 114 800 124 800 q 97 810 103 800 q 78 846 90 819 q 76 853 76 849 q 79 860 76 857 q 85 864 82 864 q 229 961 190 938 q 253 974 242 969 q 285 978 265 978 q 317 975 292 978 l 263 617 q 253 577 258 592 q 236 551 247 563 l 236 549 q 265 542 253 542 q 288 544 279 542 q 300 547 296 547 q 306 544 304 547 q 307 535 307 540 q 300 510 307 522 q 267 474 283 481 q 231 468 250 468 q 201 473 222 468 q 151 478 181 478 q 95 473 118 478 q 65 468 72 468 m 121 0 q 95 6 101 0 q 96 24 89 13 l 553 853 q 588 883 563 872 q 651 894 613 894 q 678 881 678 894 q 674 869 678 876 l 217 42 q 183 11 208 22 q 121 0 158 0 m 438 -7 q 430 -3 432 -7 q 428 8 428 0 q 453 65 428 38 q 506 115 471 85 q 613 227 575 178 q 650 335 650 276 q 594 394 650 394 q 514 357 551 394 q 490 343 500 343 q 482 354 482 343 q 497 393 482 367 q 564 463 522 436 q 654 489 606 489 q 744 454 710 489 q 779 364 779 419 q 738 250 779 307 q 590 96 696 193 l 590 94 q 606 95 600 96 q 617 94 613 94 q 634 93 626 94 q 647 90 642 92 q 667 88 656 89 q 693 86 678 86 q 731 90 717 86 q 754 107 744 93 q 760 115 757 110 q 767 119 764 119 q 776 108 772 119 q 781 83 781 97 q 752 17 781 42 q 676 -7 724 -7 q 611 1 656 -7 q 529 13 561 13 q 467 3 492 13 q 438 -7 443 -7 z "},"¼":{"ha":875,"x_min":58,"x_max":796,"o":"m 65 468 q 60 472 61 468 q 58 482 58 476 q 65 513 58 497 q 86 540 72 529 q 102 550 93 544 q 121 563 111 556 q 138 583 133 572 q 144 610 142 593 l 183 836 l 174 829 q 139 808 154 817 q 114 800 124 800 q 97 810 103 800 q 78 846 90 819 q 76 853 76 849 q 79 860 76 857 q 85 864 82 864 q 229 961 190 938 q 253 974 242 969 q 285 978 265 978 q 317 975 292 978 l 263 617 q 253 577 258 592 q 236 551 247 563 l 236 549 q 265 542 253 542 q 288 544 279 542 q 300 547 296 547 q 306 544 304 547 q 307 535 307 540 q 300 510 307 522 q 267 474 283 481 q 231 468 250 468 q 201 473 222 468 q 151 478 181 478 q 95 473 118 478 q 65 468 72 468 m 122 0 q 96 13 96 0 q 100 24 96 18 l 554 853 q 590 883 565 871 q 653 894 615 894 q 681 881 681 894 q 676 869 681 876 l 221 42 q 186 11 211 22 q 122 0 161 0 m 575 0 q 557 2 561 0 q 554 10 553 4 l 569 124 l 450 124 q 403 167 401 124 l 404 193 l 467 292 q 497 342 478 311 q 531 394 517 374 q 540 406 536 403 q 549 410 543 410 q 572 398 560 410 q 590 372 583 386 q 594 351 597 357 q 539 261 574 315 l 506 210 l 590 210 l 625 415 q 664 466 631 443 q 738 489 697 489 q 751 487 747 489 q 754 479 754 485 q 746 453 754 474 q 733 403 738 432 l 704 210 l 728 210 q 765 217 747 210 q 788 224 783 224 q 796 210 796 224 q 784 176 796 197 q 751 140 772 156 q 703 124 729 124 l 689 124 l 675 33 q 639 9 674 18 q 575 0 604 0 z "},"¾":{"ha":928,"x_min":60,"x_max":850,"o":"m 197 482 q 101 505 142 482 q 60 568 60 528 q 74 606 60 590 q 108 630 89 622 q 136 638 126 638 q 141 636 139 638 q 143 632 143 635 q 149 609 144 628 q 169 576 154 590 q 213 561 185 561 q 278 644 278 561 q 229 711 278 711 l 185 710 q 167 713 169 710 q 165 731 164 717 q 172 760 168 747 q 182 775 175 774 q 214 776 186 775 q 265 794 242 776 q 288 847 288 811 q 240 896 288 896 q 171 868 206 896 q 159 856 165 863 q 149 850 153 850 q 140 864 140 850 q 151 903 140 881 q 213 957 172 936 q 300 978 254 978 q 383 950 353 978 q 413 875 413 922 q 336 760 413 803 l 336 757 q 383 724 364 743 q 401 664 401 706 q 374 578 401 621 q 301 509 347 536 q 197 482 254 482 m 174 0 q 147 13 147 0 q 151 24 147 18 l 608 853 q 642 883 617 871 q 704 894 667 894 q 726 891 718 894 q 733 881 733 888 q 729 869 733 876 l 272 42 q 174 0 251 0 m 629 0 q 611 2 615 0 q 608 10 607 4 l 624 124 l 504 124 q 457 167 456 124 l 458 193 l 521 292 q 551 342 532 311 q 585 394 571 374 q 594 406 590 403 q 603 410 597 410 q 626 398 614 410 q 644 372 638 386 q 649 351 651 357 q 593 261 628 315 l 560 210 l 644 210 l 679 415 q 718 466 685 443 q 792 489 751 489 q 805 487 801 489 q 808 479 808 485 q 800 453 808 474 q 788 403 792 432 l 758 210 l 782 210 q 819 217 801 210 q 842 224 838 224 q 850 210 850 224 q 838 176 850 197 q 805 140 826 156 q 757 124 783 124 l 743 124 l 729 33 q 693 9 728 18 q 629 0 658 0 z "},".":{"ha":257,"x_min":3,"x_max":185,"o":"m 65 -14 q 21 3 39 -14 q 3 50 3 21 q 21 106 3 78 q 67 153 39 135 q 122 172 94 172 q 167 155 150 172 q 185 108 185 138 q 167 52 185 81 q 122 5 150 24 q 65 -14 94 -14 z "},",":{"ha":256,"x_min":-31,"x_max":182,"o":"m -14 -225 q -31 -214 -31 -225 q -22 -197 -31 -207 q -3 -178 -14 -187 q 69 -24 69 -97 q 60 22 69 6 q 36 53 51 38 q 22 69 26 61 q 17 86 17 76 q 45 135 17 113 q 107 158 74 158 q 160 133 138 158 q 182 56 182 107 q 136 -97 182 -19 q 22 -214 90 -174 q -14 -225 4 -225 z "},":":{"ha":325,"x_min":44,"x_max":281,"o":"m 164 461 q 118 478 136 461 q 100 525 100 496 q 118 581 100 553 q 164 628 136 610 q 218 647 192 647 q 264 631 247 647 q 281 583 281 614 q 263 527 281 556 q 219 480 246 499 q 164 461 192 461 m 108 0 q 63 17 81 0 q 44 64 44 35 q 63 120 44 92 q 108 167 81 149 q 164 186 136 186 q 208 169 192 186 q 225 122 225 151 q 208 66 225 94 q 163 19 190 38 q 108 0 136 0 z "},";":{"ha":308,"x_min":-14,"x_max":264,"o":"m 144 461 q 99 478 117 461 q 81 525 81 496 q 99 581 81 553 q 145 628 117 610 q 201 647 174 647 q 247 630 229 647 q 264 583 264 613 q 246 527 264 556 q 200 480 228 499 q 144 461 172 461 m 3 -225 q -14 -214 -14 -225 q -8 -201 -14 -208 q 3 -187 -3 -193 q 14 -178 10 -182 q 86 -24 86 -106 q 78 20 86 4 q 54 53 69 36 q 40 69 44 61 q 35 86 35 76 q 63 135 35 113 q 124 158 90 158 q 178 133 156 158 q 200 56 200 107 q 154 -94 200 -18 q 40 -214 108 -171 q 3 -225 22 -225 z "},"…":{"ha":1083,"x_min":-25,"x_max":983,"o":"m 38 -14 q -7 3 11 -14 q -25 50 -25 21 q -7 106 -25 78 q 39 153 11 135 q 94 172 67 172 q 140 155 122 172 q 157 108 157 138 q 140 52 157 81 q 94 5 122 24 q 38 -14 67 -14 m 451 -14 q 407 3 425 -14 q 389 50 389 21 q 407 106 389 78 q 453 153 425 135 q 508 172 481 172 q 553 155 536 172 q 571 108 571 138 q 553 52 571 81 q 508 5 536 24 q 451 -14 481 -14 m 864 -14 q 819 3 838 -14 q 801 50 801 21 q 819 106 801 78 q 865 153 838 135 q 921 172 893 172 q 966 155 949 172 q 983 108 983 138 q 966 52 983 81 q 921 5 949 24 q 864 -14 893 -14 z "},"!":{"ha":353,"x_min":58,"x_max":322,"o":"m 160 229 q 130 240 139 229 q 122 267 121 251 q 142 495 136 429 q 151 585 149 561 q 162 710 158 643 q 172 942 165 776 q 258 983 174 983 q 307 976 292 983 q 322 950 322 968 q 225 349 322 913 l 215 293 q 197 246 210 263 q 160 229 185 229 m 122 -14 q 76 3 94 -14 q 58 50 58 21 q 76 106 58 78 q 120 153 93 135 q 175 172 147 172 q 222 155 204 172 q 239 107 239 138 q 222 51 239 79 q 178 4 206 22 q 122 -14 151 -14 z "},"¡":{"ha":353,"x_min":58,"x_max":322,"o":"m 258 665 q 304 648 286 665 q 322 601 322 631 q 305 545 322 574 q 260 498 288 517 q 206 479 233 479 q 159 497 176 479 q 142 544 142 514 q 158 601 142 572 q 202 647 175 629 q 258 665 229 665 m 221 422 q 251 411 242 422 q 258 385 260 400 q 238 156 244 222 q 229 67 232 90 q 219 -58 222 8 q 208 -290 215 -125 q 122 -332 207 -332 q 74 -324 89 -332 q 58 -299 58 -317 q 156 303 58 -261 l 165 358 q 183 406 171 389 q 221 422 196 422 z "},"?":{"ha":508,"x_min":93,"x_max":543,"o":"m 150 257 q 131 275 139 257 q 124 324 124 293 q 141 411 124 371 q 192 493 158 451 q 293 611 225 535 q 367 710 346 671 q 389 801 389 749 q 307 897 389 897 q 178 803 225 897 q 166 782 171 789 q 156 775 161 775 q 119 799 139 775 q 100 851 100 824 q 132 919 100 886 q 219 972 164 951 q 342 993 275 993 q 491 948 439 993 q 543 824 543 903 q 523 735 543 775 q 474 667 503 696 q 397 599 446 639 q 305 510 335 547 q 275 424 275 474 q 280 385 275 404 q 285 361 285 367 q 257 324 285 349 q 197 278 229 299 q 150 257 164 257 m 157 -14 q 111 3 129 -14 q 93 51 93 21 q 110 108 93 79 q 156 154 128 136 q 213 172 183 172 q 256 155 239 172 q 274 107 274 138 q 257 51 274 79 q 213 4 240 22 q 157 -14 186 -14 z "},"¿":{"ha":508,"x_min":-7,"x_max":443,"o":"m 379 696 q 425 678 407 696 q 443 631 443 661 q 426 574 443 603 q 381 528 408 546 q 324 510 353 510 q 280 527 297 510 q 263 575 263 544 q 279 631 263 603 q 323 678 296 660 q 379 696 350 696 m 386 425 q 405 407 397 425 q 413 358 413 389 q 395 271 413 311 q 344 189 378 231 q 243 71 311 147 q 169 -28 190 11 q 147 -119 147 -67 q 229 -215 147 -215 q 358 -121 311 -215 q 370 -100 365 -107 q 381 -93 375 -93 q 417 -117 397 -93 q 436 -169 436 -142 q 404 -237 436 -204 q 317 -290 372 -269 q 194 -311 261 -311 q 45 -266 97 -311 q -7 -142 -7 -221 q 13 -53 -7 -93 q 62 15 33 -14 q 139 83 90 43 q 231 172 201 135 q 261 258 261 208 q 256 297 261 278 q 251 321 251 315 q 279 358 251 333 q 340 404 307 383 q 386 425 372 425 z "},"·":{"ha":325,"x_min":72,"x_max":253,"o":"m 135 253 q 90 271 108 253 q 72 317 72 289 q 90 373 72 344 q 136 420 108 401 q 192 439 164 439 q 236 422 219 439 q 253 375 253 404 q 235 319 253 347 q 191 272 218 290 q 135 253 164 253 z "},"•":{"ha":431,"x_min":72,"x_max":358,"o":"m 194 169 q 105 201 138 169 q 72 292 72 233 q 119 407 72 361 q 236 453 165 453 q 326 422 293 453 q 358 332 358 390 q 312 215 358 261 q 194 169 265 169 z "},"*":{"ha":444,"x_min":114,"x_max":465,"o":"m 278 658 q 235 665 251 658 q 221 686 218 672 l 232 756 l 165 715 q 139 704 147 704 q 126 713 133 704 q 114 751 114 735 q 126 775 114 769 l 225 828 l 144 881 q 139 893 139 885 q 147 917 139 903 q 165 942 154 931 q 183 951 175 951 q 206 940 190 951 l 258 899 l 271 971 q 292 990 272 983 q 336 997 311 997 q 356 994 350 997 q 360 981 361 992 l 346 899 l 414 940 q 439 951 432 951 q 453 942 447 951 q 465 903 465 922 q 453 881 465 888 l 353 828 l 433 775 q 440 763 440 771 q 414 713 440 742 q 396 703 404 703 q 383 708 390 703 q 374 715 376 713 l 321 756 l 307 676 q 297 662 304 665 q 278 658 290 658 z "},"#":{"ha":765,"x_min":31,"x_max":785,"o":"m 618 508 l 572 354 l 644 354 q 697 358 675 354 q 725 361 718 361 q 739 347 739 361 q 717 310 739 331 q 664 274 696 289 q 603 260 632 260 l 543 260 l 496 100 q 442 18 481 50 q 367 -14 403 -14 q 347 1 347 -14 q 352 19 347 6 q 364 56 357 33 l 425 260 l 292 260 l 244 100 q 190 18 229 50 q 114 -14 150 -14 q 94 1 94 -14 q 99 18 94 6 q 113 56 104 31 l 174 260 l 126 260 q 72 256 93 260 q 44 253 51 253 q 31 265 31 253 q 51 303 31 282 q 104 340 72 325 q 167 354 136 354 l 201 354 l 247 508 l 172 508 q 118 505 139 508 q 92 501 97 501 q 78 514 78 501 q 99 551 78 531 q 151 588 119 572 q 214 603 183 603 l 275 603 l 324 768 q 378 850 339 818 q 453 882 417 882 q 472 867 472 882 q 468 849 472 863 q 457 813 464 836 l 394 603 l 526 603 l 575 768 q 630 850 590 818 q 706 882 669 882 q 725 867 725 882 q 719 848 725 863 q 708 813 714 833 l 646 603 l 690 603 q 744 606 724 603 q 772 610 765 610 q 785 596 785 610 q 764 558 785 579 q 711 523 743 538 q 649 508 679 508 l 618 508 m 499 508 l 367 508 l 321 354 l 453 354 l 499 508 z "},"/":{"ha":529,"x_min":-93,"x_max":622,"o":"m -65 -135 q -93 -124 -93 -135 q -87 -108 -93 -115 l 483 924 q 527 952 493 940 q 594 964 561 964 q 622 953 622 964 q 618 940 622 947 l 44 -93 q 1 -122 35 -110 q -65 -135 -32 -135 z "},"\\":{"ha":532,"x_min":-92,"x_max":624,"o":"m 594 -135 q 528 -122 563 -135 q 483 -93 493 -110 l -87 940 q -92 953 -92 949 q -65 964 -92 964 q 1 952 -32 964 q 44 924 35 940 l 618 -108 q 624 -122 624 -115 q 594 -135 624 -135 z "},"(":{"ha":424,"x_min":76,"x_max":563,"o":"m 257 -169 q 238 -160 246 -169 q 229 -149 231 -150 q 116 103 156 -39 q 76 389 76 246 q 131 715 76 551 q 282 1015 186 879 q 497 1229 378 1151 q 539 1243 517 1243 q 563 1232 563 1243 q 532 1189 563 1219 q 359 963 426 1069 q 255 730 292 857 q 218 443 218 603 q 248 203 218 308 q 347 -24 278 99 q 364 -58 364 -51 q 344 -101 364 -75 q 298 -149 324 -128 q 257 -169 272 -169 z "},")":{"ha":424,"x_min":-87,"x_max":400,"o":"m 218 1243 q 246 1222 231 1243 q 363 981 325 1125 q 400 686 400 838 q 345 358 400 524 q 194 56 290 192 q -22 -156 99 -79 q -64 -169 -46 -169 q -87 -158 -87 -169 q -57 -114 -87 -147 q 117 108 49 0 q 221 343 185 215 q 257 632 257 471 q 228 872 257 767 q 128 1099 199 978 q 113 1133 113 1124 q 133 1176 113 1150 q 178 1223 153 1203 q 218 1243 203 1243 z "},"{":{"ha":415,"x_min":3,"x_max":529,"o":"m 229 -381 q 125 -342 164 -381 q 86 -236 86 -303 q 97 -141 86 -204 q 128 25 107 -78 q 159 191 149 128 q 169 286 169 254 q 147 343 169 328 q 64 358 125 358 l 19 358 q 3 372 3 358 q 17 400 3 382 q 67 448 40 431 q 115 465 93 465 l 136 465 q 193 515 176 488 q 217 593 210 543 q 238 775 225 643 q 309 1017 249 922 q 471 1149 369 1111 q 514 1160 497 1160 q 529 1149 529 1160 q 507 1119 529 1139 q 424 1024 450 1071 q 388 928 397 976 q 374 790 379 879 q 368 710 371 738 q 353 597 364 639 q 315 518 343 556 q 232 444 288 481 q 307 310 307 406 q 296 197 307 267 q 263 18 285 128 q 234 -135 247 -61 q 221 -244 221 -210 q 241 -309 221 -294 q 296 -325 261 -324 q 315 -339 315 -325 q 289 -368 315 -356 q 229 -381 263 -381 z "},"}":{"ha":415,"x_min":-100,"x_max":425,"o":"m 200 1160 q 304 1120 265 1160 q 343 1014 343 1081 q 330 907 343 982 q 301 754 317 832 q 273 600 286 675 q 260 493 260 525 q 282 436 260 451 q 365 421 304 421 l 410 421 q 425 407 425 421 q 411 379 425 393 q 314 314 360 314 l 293 314 q 235 263 253 290 q 209 181 217 235 q 192 3 201 128 q 119 -236 179 -142 q -42 -371 58 -331 q -85 -382 -72 -382 q -100 -371 -100 -382 q -90 -352 -100 -361 q -78 -342 -79 -343 q 6 -244 -21 -292 q 42 -145 33 -196 q 56 -1 50 -94 l 60 69 q 75 182 65 140 q 113 260 85 224 q 196 335 140 297 q 122 468 122 372 q 134 583 122 511 q 167 761 146 654 q 199 929 189 871 q 208 1024 208 988 q 187 1089 208 1074 q 132 1104 165 1104 q 118 1107 122 1104 q 114 1118 114 1110 q 140 1147 114 1135 q 200 1160 167 1160 z "},"[":{"ha":400,"x_min":-15,"x_max":582,"o":"m 14 -389 q -10 -383 -4 -389 q -12 -360 -15 -376 l 206 1019 q 217 1053 208 1039 q 243 1085 225 1067 l 288 1128 q 312 1144 300 1140 q 347 1149 324 1149 l 558 1149 q 577 1145 572 1149 q 582 1135 582 1142 q 559 1099 582 1125 q 515 1050 536 1072 q 494 1035 504 1039 q 465 1032 483 1032 l 335 1032 l 128 -272 l 342 -272 q 359 -275 354 -272 q 364 -286 364 -278 q 342 -323 364 -297 q 296 -372 321 -349 q 272 -385 285 -382 q 238 -389 260 -389 l 14 -389 z "},"]":{"ha":400,"x_min":-182,"x_max":417,"o":"m -157 -389 q -182 -374 -182 -389 q -150 -326 -182 -360 q -114 -289 -118 -293 q -94 -276 -104 -279 q -65 -272 -83 -272 l 67 -272 l 272 1032 l 58 1032 q 42 1035 47 1032 q 38 1047 38 1039 q 106 1132 38 1064 q 128 1145 117 1142 q 163 1149 140 1149 l 388 1149 q 410 1142 404 1149 q 414 1119 417 1135 l 196 -260 q 185 -292 193 -279 q 158 -325 176 -306 l 114 -368 q 88 -385 100 -382 q 51 -389 76 -389 l -157 -389 z "},"-":{"ha":581,"x_min":49,"x_max":543,"o":"m 63 286 q 51 289 54 286 q 49 301 49 292 q 92 369 49 339 q 181 400 135 400 l 461 400 q 501 403 481 400 q 529 407 522 407 q 543 389 543 407 q 499 323 543 353 q 408 293 456 293 l 129 293 q 83 290 99 293 q 63 286 68 286 z "},"­":{"ha":581,"x_min":49,"x_max":543,"o":"m 63 286 q 51 289 54 286 q 49 301 49 292 q 92 369 49 339 q 181 400 135 400 l 461 400 q 501 403 481 400 q 529 407 522 407 q 543 389 543 407 q 499 323 543 353 q 408 293 456 293 l 129 293 q 83 290 99 293 q 63 286 68 286 z "},"–":{"ha":1290,"x_min":49,"x_max":1251,"o":"m 63 286 q 51 289 54 286 q 49 301 49 292 q 92 369 49 339 q 181 400 135 400 l 1171 400 q 1211 403 1190 400 q 1239 407 1232 407 q 1251 389 1251 407 q 1208 323 1251 353 q 1118 293 1164 293 l 129 293 q 83 290 99 293 q 63 286 68 286 z "},"—":{"ha":1401,"x_min":49,"x_max":1364,"o":"m 63 286 q 51 289 54 286 q 49 301 49 292 q 92 369 49 339 q 181 400 135 400 l 1283 400 q 1323 403 1303 400 q 1350 407 1343 407 q 1361 403 1358 407 q 1364 389 1364 399 q 1320 323 1364 353 q 1229 293 1276 293 l 129 293 q 83 290 99 293 q 63 286 68 286 z "},"_":{"ha":708,"x_min":-51,"x_max":643,"o":"m -37 -169 q -51 -156 -51 -169 q -34 -113 -51 -137 q 13 -72 -17 -89 q 76 -56 42 -56 l 560 -56 q 599 -52 581 -56 q 625 -49 617 -49 q 643 -65 643 -49 q 626 -106 643 -83 q 579 -146 608 -129 q 517 -162 550 -162 l 29 -162 q -10 -166 10 -162 q -37 -169 -29 -169 z "},"‚":{"ha":256,"x_min":-58,"x_max":154,"o":"m -42 -226 q -58 -215 -58 -226 q -50 -199 -58 -208 q -31 -179 -42 -189 q 42 -25 42 -99 q 33 20 42 4 q 8 51 24 36 q -6 67 -1 60 q -11 85 -11 75 q 17 134 -11 111 q 79 157 46 157 q 132 131 110 157 q 154 54 154 106 q 108 -98 154 -21 q -6 -215 63 -175 q -42 -226 -24 -226 z "},"„":{"ha":460,"x_min":-58,"x_max":360,"o":"m -42 -226 q -58 -215 -58 -226 q -50 -199 -58 -208 q -31 -179 -42 -189 q 42 -25 42 -99 q 33 20 42 4 q 8 51 24 36 q -6 67 -1 60 q -11 85 -11 75 q 17 134 -11 111 q 79 157 46 157 q 132 131 110 157 q 154 54 154 106 q 108 -98 154 -21 q -6 -215 63 -175 q -42 -226 -24 -226 m 164 -226 q 147 -215 147 -226 q 156 -199 147 -208 q 175 -179 164 -189 q 247 -25 247 -99 q 238 20 247 4 q 214 51 229 36 q 199 67 204 60 q 194 85 194 75 q 223 134 194 111 q 285 157 251 157 q 338 131 315 157 q 360 54 360 106 q 314 -98 360 -21 q 200 -215 268 -175 q 164 -226 182 -226 z "},"“":{"ha":460,"x_min":93,"x_max":511,"o":"m 289 1010 q 306 999 306 1010 q 297 982 306 992 q 278 963 289 972 q 206 808 206 882 q 214 764 206 779 q 239 732 222 749 q 253 717 249 724 q 258 699 258 710 q 230 649 258 672 q 168 626 201 626 q 115 653 138 626 q 93 729 93 679 q 139 881 93 804 q 253 999 185 958 q 289 1010 271 1010 m 494 1010 q 511 999 511 1010 q 503 982 511 992 q 483 963 494 972 q 411 808 411 882 q 419 764 411 779 q 444 732 428 749 q 459 717 454 724 q 464 699 464 710 q 435 649 464 672 q 374 626 407 626 q 321 653 343 626 q 299 729 299 679 q 344 881 299 804 q 458 999 390 958 q 494 1010 476 1010 z "},"”":{"ha":461,"x_min":39,"x_max":457,"o":"m 56 621 q 39 632 39 621 q 47 649 39 639 q 67 668 56 658 q 139 822 139 749 q 130 867 139 851 q 106 899 121 883 q 91 915 96 907 q 86 932 86 922 q 115 981 86 958 q 176 1004 143 1004 q 229 978 207 1004 q 251 901 251 953 q 206 749 251 826 q 92 632 160 672 q 56 621 74 621 m 261 621 q 244 632 244 621 q 253 649 244 639 q 272 668 261 658 q 344 822 344 749 q 335 867 344 851 q 311 899 326 883 q 297 915 301 907 q 292 932 292 922 q 320 981 292 958 q 382 1004 349 1004 q 435 978 413 1004 q 457 901 457 953 q 411 749 457 826 q 297 632 365 672 q 261 621 279 621 z "},"‘":{"ha":256,"x_min":93,"x_max":306,"o":"m 289 1006 q 306 994 306 1006 q 297 978 306 988 q 278 958 289 968 q 206 804 206 878 q 214 760 206 775 q 239 728 222 744 q 253 713 249 719 q 258 694 258 706 q 230 645 258 668 q 168 622 201 622 q 115 649 138 622 q 93 725 93 675 q 139 877 93 800 q 253 994 185 954 q 289 1006 271 1006 z "},"’":{"ha":256,"x_min":39,"x_max":251,"o":"m 56 621 q 39 632 39 621 q 47 649 39 639 q 67 668 56 658 q 139 822 139 749 q 130 867 139 851 q 106 899 121 883 q 91 915 96 907 q 86 932 86 922 q 115 981 86 958 q 176 1004 143 1004 q 229 978 207 1004 q 251 901 251 953 q 206 749 251 826 q 92 632 160 672 q 56 621 74 621 z "},"«":{"ha":1089,"x_min":44,"x_max":1054,"o":"m 458 57 q 444 63 453 57 q 431 71 435 68 l 86 292 q 65 301 76 297 q 49 308 54 304 q 44 318 44 311 q 66 357 44 332 q 106 390 88 382 l 546 561 q 578 574 558 567 q 603 582 597 582 q 610 579 608 582 q 613 568 613 576 q 578 515 613 546 q 514 472 544 483 l 221 361 l 526 169 q 536 164 529 168 q 543 156 543 160 q 533 136 543 151 q 493 83 515 108 q 458 57 471 57 m 899 57 q 884 63 893 57 q 871 71 875 68 l 526 292 q 508 300 517 297 q 492 308 499 303 q 486 318 486 313 q 507 357 486 332 q 546 390 528 382 l 988 561 q 1017 574 999 565 q 1043 582 1036 582 q 1054 568 1054 582 q 1019 515 1054 546 q 954 472 985 483 l 661 361 l 968 169 q 977 163 971 168 q 983 156 983 158 q 975 136 983 149 q 935 83 958 108 q 899 57 913 57 z "},"»":{"ha":1089,"x_min":63,"x_max":1072,"o":"m 218 582 q 233 576 224 582 q 246 568 242 571 l 590 347 q 609 339 600 342 q 624 331 618 336 q 631 321 631 326 q 610 282 631 307 q 571 249 589 257 l 129 78 q 99 65 118 74 q 74 57 81 57 q 63 71 63 57 q 97 124 63 93 q 163 167 132 156 l 456 278 l 149 469 q 140 476 146 471 q 133 483 133 481 q 142 503 133 490 q 181 556 158 531 q 218 582 204 582 m 658 582 q 673 576 664 582 q 686 568 682 571 l 1031 347 q 1051 338 1040 342 q 1067 331 1063 335 q 1072 321 1072 328 q 1051 282 1072 307 q 1011 249 1029 257 l 571 78 q 539 65 558 72 q 514 57 519 57 q 506 60 508 57 q 504 71 504 63 q 538 124 504 93 q 603 167 572 156 l 896 278 l 590 469 q 581 475 588 471 q 574 483 574 479 q 583 503 574 489 q 624 556 601 531 q 658 582 646 582 z "},"‹":{"ha":647,"x_min":44,"x_max":613,"o":"m 458 57 q 444 63 453 57 q 431 71 435 68 l 86 292 q 65 301 76 297 q 49 308 54 304 q 44 318 44 311 q 66 357 44 332 q 106 390 88 382 l 546 561 q 578 574 558 567 q 603 582 597 582 q 610 579 608 582 q 613 568 613 576 q 578 515 613 546 q 514 472 544 483 l 221 361 l 526 169 q 536 164 529 168 q 543 156 543 160 q 533 136 543 151 q 493 83 515 108 q 458 57 471 57 z "},"›":{"ha":647,"x_min":63,"x_max":631,"o":"m 217 582 q 231 576 222 582 q 244 568 240 571 l 589 347 q 610 338 599 342 q 626 331 621 335 q 631 321 631 328 q 609 282 631 307 q 569 249 588 257 l 129 78 q 97 65 117 72 q 72 57 78 57 q 65 60 67 57 q 63 71 63 63 q 97 124 63 93 q 161 167 131 156 l 454 278 l 149 469 q 139 475 146 471 q 132 483 132 479 q 142 503 132 489 q 182 556 160 531 q 217 582 204 582 z "},"\"":{"ha":547,"x_min":89,"x_max":510,"o":"m 113 651 q 89 667 89 651 q 95 688 89 671 q 110 733 101 704 q 142 949 128 794 l 144 981 q 172 1007 146 997 q 232 1017 197 1017 q 281 989 283 1017 l 278 947 q 259 851 272 904 q 232 763 246 797 q 179 682 213 713 q 113 651 146 651 m 339 651 q 317 667 317 651 q 323 688 317 671 q 338 733 329 704 q 368 949 351 786 l 372 981 q 399 1007 374 997 q 460 1017 425 1017 q 507 989 510 1017 l 503 947 q 486 851 499 904 q 460 763 474 797 q 406 682 439 713 q 339 651 374 651 z "},"'":{"ha":322,"x_min":89,"x_max":283,"o":"m 113 651 q 89 667 89 651 q 95 688 89 671 q 110 733 101 704 q 142 949 128 794 l 144 981 q 172 1007 146 997 q 232 1017 197 1017 q 281 989 283 1017 l 278 947 q 259 851 272 904 q 232 763 246 797 q 179 682 213 713 q 113 651 146 651 z "}," ":{"ha":389,"x_min":0,"x_max":0,"o":""},"¢":{"ha":510,"x_min":24,"x_max":500,"o":"m 404 661 q 474 644 447 661 q 500 596 500 626 q 476 533 500 567 q 453 514 467 514 q 436 522 444 514 q 372 558 406 553 l 304 132 q 388 224 351 153 q 399 244 394 239 q 411 249 404 249 q 422 243 419 249 q 425 224 425 238 q 389 121 425 176 q 297 29 353 65 l 278 -94 q 240 -176 269 -142 q 178 -210 211 -210 q 167 -207 171 -210 q 164 -196 164 -204 q 172 -163 164 -189 q 185 -106 179 -137 l 200 -11 q 171 -14 181 -14 q 63 37 103 -14 q 24 175 24 88 q 61 356 24 263 q 163 526 99 450 q 301 638 226 603 l 315 733 q 353 810 321 774 q 415 846 386 846 q 431 832 431 846 q 422 798 431 825 q 408 740 413 771 l 396 661 l 404 661 m 294 547 q 206 442 239 519 q 172 260 172 364 q 186 165 172 197 q 229 124 200 132 l 294 547 z "},"¤":{"ha":774,"x_min":72,"x_max":701,"o":"m 679 776 q 695 753 689 769 q 701 721 701 738 q 689 683 701 700 l 621 597 q 651 475 651 543 q 632 366 651 421 q 578 264 613 311 l 660 160 q 672 119 672 143 q 667 89 672 104 q 651 65 661 74 q 639 61 643 61 q 624 72 632 61 l 518 199 q 335 122 431 122 q 235 150 278 122 l 175 78 q 149 63 168 69 q 110 57 129 57 q 81 63 90 57 q 72 75 72 69 q 79 93 72 82 l 172 211 q 138 339 138 265 q 157 448 138 392 q 211 551 176 504 l 129 653 q 117 690 117 669 q 123 724 117 708 q 139 747 129 740 q 150 751 144 751 q 167 740 158 751 l 269 617 q 451 689 353 689 q 560 660 510 689 l 651 772 q 667 782 661 782 q 679 776 671 782 m 389 238 q 490 286 451 238 q 529 411 529 335 q 492 530 529 486 q 396 574 456 574 q 294 526 332 574 q 256 403 256 479 q 292 283 256 328 q 389 238 328 238 z "},"$":{"ha":654,"x_min":3,"x_max":640,"o":"m 486 978 q 600 942 560 974 q 640 856 640 910 q 633 809 640 832 q 615 768 626 786 q 588 735 600 744 q 563 725 576 725 q 542 738 547 725 q 533 775 536 751 q 513 847 529 819 q 456 882 496 874 l 408 582 l 468 514 q 539 410 517 460 q 561 304 561 360 q 497 123 561 206 q 333 6 432 40 l 318 -94 q 281 -175 311 -140 q 207 -210 251 -210 q 196 -207 199 -210 q 193 -196 193 -204 q 201 -164 193 -189 q 215 -106 210 -139 l 231 -14 l 222 -14 q 106 11 156 -14 q 31 73 57 36 q 3 146 6 110 q 23 222 3 181 q 71 292 43 263 q 114 321 99 321 q 124 304 121 321 q 146 176 135 219 q 184 110 157 133 q 263 86 211 86 l 315 426 l 210 551 q 167 619 179 588 q 156 689 156 650 q 215 865 156 785 q 382 969 275 944 l 389 1010 q 426 1088 396 1054 q 500 1121 456 1121 q 514 1107 514 1121 q 506 1076 514 1101 q 493 1017 499 1051 l 486 978 m 350 649 l 388 882 q 315 844 340 874 q 289 772 289 815 q 300 719 289 743 q 335 667 311 694 l 350 649 m 418 231 q 408 294 418 265 q 374 356 397 322 l 332 96 q 397 146 375 111 q 418 231 418 181 z "},"€":{"ha":907,"x_min":10,"x_max":876,"o":"m 683 978 q 824 945 771 978 q 876 856 876 913 q 849 768 876 819 q 825 737 836 749 q 800 725 814 725 q 783 735 788 725 q 776 763 779 746 q 771 789 774 779 q 642 874 750 874 q 474 808 546 874 q 363 629 401 743 l 589 629 q 628 633 608 629 q 656 636 649 636 q 667 632 664 636 q 669 619 669 628 q 649 580 669 600 q 596 546 628 560 q 536 532 564 532 l 338 532 q 328 450 329 479 l 547 450 q 588 453 567 450 q 615 457 608 457 q 629 440 629 457 q 608 401 629 421 q 554 367 586 381 q 494 353 522 353 l 325 353 q 372 172 329 231 q 501 114 414 114 q 646 163 592 114 q 742 285 700 211 q 771 308 754 308 q 785 290 785 308 q 776 250 785 278 q 648 57 740 128 q 435 -14 556 -14 q 231 76 303 -14 q 160 342 160 165 l 160 353 l 92 353 q 45 349 61 353 q 24 346 29 346 q 10 361 10 346 q 31 401 10 381 q 83 436 51 422 q 143 450 115 450 l 167 450 q 183 532 174 493 l 132 532 q 87 528 103 532 q 65 525 71 525 q 51 540 51 525 q 72 581 51 560 q 125 615 93 601 q 185 629 157 629 l 215 629 q 409 883 282 789 q 683 978 536 978 z "},"£":{"ha":760,"x_min":-62,"x_max":753,"o":"m 742 194 q 753 179 753 194 q 702 96 753 138 q 573 27 651 54 q 415 0 494 0 q 276 11 382 0 q 203 18 264 13 q 93 24 142 24 q 21 19 46 24 q -22 7 -4 14 q -49 0 -40 0 q -62 15 -62 0 q -40 69 -62 43 q 15 108 -19 93 q 81 128 50 122 l 108 135 q 190 209 163 167 q 228 311 217 251 q 246 476 239 371 l 160 476 q 114 474 129 476 q 93 471 99 471 q 79 486 79 471 q 100 526 79 506 q 152 560 121 546 q 213 574 183 574 l 251 574 q 397 879 272 767 q 631 978 504 978 q 732 951 688 978 q 746 933 746 943 q 724 896 746 922 q 676 847 703 869 q 632 825 649 825 q 615 832 624 825 q 533 865 572 865 q 445 809 475 865 q 404 632 415 753 l 399 574 l 561 574 q 601 577 581 574 q 629 581 622 581 q 643 565 643 581 q 622 525 643 546 q 569 490 600 504 q 508 476 538 476 l 390 476 q 369 322 382 379 q 324 219 356 265 q 232 128 293 172 l 232 126 q 336 118 261 122 q 453 114 411 114 q 597 132 538 114 q 710 181 656 150 q 724 188 714 182 q 742 194 735 194 z "},"¥":{"ha":808,"x_min":65,"x_max":881,"o":"m 782 978 q 851 962 821 978 q 881 931 881 946 q 860 878 881 917 q 817 810 840 840 q 782 788 793 781 q 765 803 779 789 q 725 817 750 817 q 592 714 661 817 q 481 468 524 611 l 574 468 q 613 472 593 468 q 640 475 633 475 q 654 460 654 475 q 610 408 654 433 q 519 382 565 382 l 458 382 l 454 361 l 446 317 l 560 317 q 599 320 579 317 q 626 324 619 324 q 640 308 640 324 q 596 256 640 282 q 507 231 551 231 l 431 231 l 422 186 q 390 121 414 144 l 390 119 q 446 107 411 107 q 485 115 465 107 q 510 122 504 122 q 522 110 522 122 q 518 92 522 100 q 504 72 514 85 q 396 0 449 0 q 363 4 382 0 q 339 10 344 8 q 272 22 301 22 q 216 11 242 22 q 185 0 190 0 q 175 17 175 0 q 187 52 175 35 q 218 89 199 69 q 258 140 249 118 q 281 229 268 163 l 281 231 l 206 231 q 159 227 175 231 q 138 224 143 224 q 128 228 132 224 q 124 239 124 232 q 169 291 124 265 q 258 317 214 317 l 297 317 l 303 344 q 308 382 306 354 l 218 382 q 173 378 189 382 q 151 375 157 375 q 142 379 146 375 q 138 390 138 383 q 183 443 138 418 q 272 468 228 468 l 314 468 q 300 644 315 557 q 255 788 285 732 q 185 844 225 844 q 100 763 138 844 q 76 740 90 740 q 67 745 69 740 q 65 761 65 750 q 88 856 65 804 q 151 942 111 907 q 238 978 190 978 q 369 875 315 978 q 444 589 424 772 l 446 589 q 601 876 515 775 q 782 978 686 978 z "},"∕":{"ha":593,"x_min":-93,"x_max":694,"o":"m -60 -135 q -93 -122 -93 -135 q -87 -108 -93 -119 l 547 924 q 589 953 558 942 q 653 964 619 964 q 682 940 694 964 l 44 -93 q 3 -123 33 -111 q -60 -135 -26 -135 z "},"+":{"ha":708,"x_min":44,"x_max":683,"o":"m 669 451 q 683 433 683 451 q 640 366 683 396 q 550 336 597 336 l 415 336 l 389 172 q 345 90 382 122 q 260 58 308 58 q 242 60 247 58 q 238 71 238 63 q 245 94 238 76 q 257 136 253 113 l 288 336 l 126 336 q 86 333 106 336 q 57 329 67 329 q 47 333 50 329 q 44 344 44 336 q 88 413 44 382 q 178 444 131 444 l 306 444 l 329 600 q 375 681 339 650 q 458 713 411 713 q 476 710 471 713 q 481 701 481 708 q 474 676 481 696 q 464 636 468 657 l 433 444 l 603 444 q 642 448 622 444 q 669 451 661 451 z "},"−":{"ha":708,"x_min":44,"x_max":683,"o":"m 58 329 q 44 346 44 329 q 88 413 44 382 q 178 444 132 444 l 603 444 q 642 448 622 444 q 669 451 661 451 q 683 433 683 451 q 640 366 683 396 q 550 336 597 336 l 126 336 q 85 333 106 336 q 58 329 65 329 z "},"×":{"ha":647,"x_min":63,"x_max":606,"o":"m 560 686 q 594 677 582 686 q 606 653 606 668 q 602 643 606 647 q 584 628 599 639 q 553 596 569 617 l 385 394 l 533 207 q 544 190 542 197 q 547 174 547 183 q 528 117 547 147 q 488 88 510 88 q 479 91 482 88 q 469 108 476 94 q 446 143 463 122 l 314 310 l 139 101 q 107 88 125 88 q 74 100 86 88 q 63 132 63 113 q 70 143 63 139 q 88 154 78 147 q 114 181 99 161 l 268 367 l 114 561 q 101 593 101 581 q 122 650 101 621 q 165 679 143 679 q 174 672 172 679 q 182 653 176 664 q 201 624 188 642 l 339 451 l 514 661 q 560 686 533 686 z "},"÷":{"ha":708,"x_min":44,"x_max":683,"o":"m 358 507 q 313 524 331 507 q 294 568 294 540 q 331 652 294 613 q 410 692 367 692 q 454 674 436 692 q 472 626 472 656 q 437 545 472 583 q 358 507 401 507 m 58 329 q 44 346 44 329 q 88 413 44 382 q 178 444 132 444 l 603 444 q 642 448 622 444 q 669 451 661 451 q 683 433 683 451 q 640 366 683 396 q 550 336 597 336 l 126 336 q 85 333 106 336 q 58 329 65 329 m 303 92 q 257 108 275 92 q 239 156 239 125 q 275 238 239 199 q 354 278 311 278 q 399 260 381 278 q 417 213 417 242 q 381 131 417 169 q 303 92 346 92 z "},"=":{"ha":735,"x_min":44,"x_max":711,"o":"m 86 450 q 76 453 79 450 q 72 465 72 457 q 115 533 72 503 q 206 563 158 563 l 631 563 q 669 566 650 563 q 697 569 689 569 q 711 554 711 569 q 667 487 711 517 q 576 457 624 457 l 153 457 q 113 453 132 457 q 86 450 93 450 m 58 251 q 44 268 44 251 q 88 336 44 306 q 178 367 132 367 l 603 367 q 642 370 622 367 q 669 374 661 374 q 683 357 683 374 q 640 290 683 321 q 550 258 596 258 l 126 258 q 85 255 106 258 q 58 251 65 251 z "},">":{"ha":647,"x_min":44,"x_max":613,"o":"m 58 71 q 44 85 44 71 q 72 136 44 107 q 129 179 100 165 l 443 342 q 397 372 417 357 q 354 404 376 388 l 131 594 q 114 619 114 608 q 122 640 114 628 q 160 686 138 664 q 196 708 182 708 q 222 696 207 708 l 457 494 q 521 443 494 463 q 589 396 547 424 q 608 380 604 385 q 613 368 613 375 q 581 331 613 349 l 113 92 q 58 71 75 71 z "},"<":{"ha":647,"x_min":63,"x_max":631,"o":"m 617 669 q 631 656 631 669 q 603 604 631 633 q 546 561 575 575 l 232 399 q 278 368 258 383 q 321 336 299 353 l 544 146 q 561 121 561 132 q 553 100 561 113 q 515 54 538 76 q 479 32 493 32 q 453 44 468 32 l 218 246 q 154 297 181 278 q 86 344 128 317 q 67 360 71 356 q 63 372 63 365 q 94 410 63 392 l 563 649 q 617 669 600 669 z "},"±":{"ha":761,"x_min":44,"x_max":726,"o":"m 713 533 q 726 517 726 533 q 683 449 726 479 q 594 418 640 418 l 460 418 l 438 282 q 394 201 431 232 q 308 169 357 169 q 291 172 296 169 q 286 181 286 174 q 294 204 286 186 q 304 246 301 222 l 331 418 l 169 418 q 130 415 150 418 q 100 411 110 411 q 88 428 88 411 q 131 496 88 465 q 222 526 175 526 l 349 526 l 368 654 q 415 737 378 706 q 500 768 453 768 q 515 766 511 768 q 519 756 519 764 q 513 733 519 751 q 503 690 507 714 l 476 526 l 646 526 q 687 530 668 526 q 713 533 706 533 m 669 114 q 683 99 683 114 q 640 30 683 60 q 550 0 597 0 l 126 0 q 86 -3 106 0 q 57 -7 67 -7 q 44 8 44 -7 q 88 76 44 46 q 178 107 131 107 l 603 107 q 642 110 622 107 q 669 114 661 114 z "},"~":{"ha":742,"x_min":58,"x_max":701,"o":"m 518 221 q 449 238 483 221 q 372 296 414 256 l 332 335 q 301 363 324 342 q 261 392 279 383 q 222 400 243 400 q 149 365 174 400 q 107 272 124 331 q 98 248 101 254 q 85 242 94 242 q 58 293 58 242 q 84 399 58 344 q 154 490 110 454 q 250 525 199 525 q 326 505 290 525 q 400 447 361 485 l 439 410 q 499 359 478 372 q 544 346 521 346 q 613 381 590 346 q 651 472 636 417 q 663 498 658 492 q 676 504 667 504 q 701 451 701 504 q 678 344 701 397 q 614 256 656 290 q 518 221 572 221 z "},"¬":{"ha":863,"x_min":44,"x_max":856,"o":"m 672 174 q 656 176 661 174 q 651 188 651 179 q 659 212 651 193 q 669 251 667 231 l 703 458 l 126 458 q 85 455 106 458 q 58 451 65 451 q 47 454 49 451 q 44 467 44 457 q 88 536 44 504 q 178 568 132 568 l 856 568 l 813 300 q 764 211 806 249 q 672 174 722 174 z "},"^":{"ha":856,"x_min":135,"x_max":697,"o":"m 593 361 q 565 381 572 361 l 460 597 q 410 724 428 671 l 246 440 q 201 392 229 411 q 150 374 174 374 q 138 377 140 374 q 135 386 135 381 q 145 418 135 397 q 182 483 156 439 l 228 561 l 385 833 q 427 870 394 849 q 475 892 460 892 q 501 867 492 892 q 590 667 529 793 l 694 461 q 697 444 697 453 q 680 413 697 428 q 618 371 663 397 q 593 361 600 361 z "},"%":{"ha":1032,"x_min":72,"x_max":1000,"o":"m 207 -51 q 182 -48 189 -51 q 175 -37 175 -44 q 178 -26 175 -31 l 789 1006 q 828 1035 799 1024 q 892 1047 858 1047 q 926 1035 926 1047 q 921 1024 926 1032 l 311 -10 q 270 -40 300 -28 q 207 -51 240 -51 m 213 429 q 110 472 149 429 q 72 594 72 515 q 119 768 72 682 q 240 909 165 854 q 389 964 314 964 q 486 922 453 964 q 519 803 519 881 q 474 621 519 707 q 356 482 428 535 q 213 429 285 429 m 275 531 q 354 585 322 531 q 386 733 386 639 q 368 828 386 797 q 321 858 350 858 q 264 829 290 858 q 222 751 238 800 q 207 646 207 703 q 275 531 207 531 m 692 -14 q 590 29 628 -14 q 551 151 551 72 q 598 326 551 240 q 719 467 644 413 q 869 522 793 522 q 967 481 933 522 q 1000 361 1000 439 q 954 178 1000 265 q 836 39 908 92 q 692 -14 764 -14 m 754 88 q 834 144 803 88 q 865 301 865 200 q 848 387 865 358 q 801 415 831 415 q 743 386 769 415 q 701 308 717 357 q 686 203 686 260 q 706 115 686 142 q 754 88 725 88 z "},"↑":{"ha":672,"x_min":174,"x_max":497,"o":"m 303 613 q 174 538 258 576 l 174 589 q 321 774 271 675 l 350 774 q 497 589 394 678 l 497 538 q 368 613 415 572 l 368 -42 l 303 -42 l 303 613 z "},"↓":{"ha":672,"x_min":174,"x_max":497,"o":"m 321 -42 q 174 142 267 61 l 174 194 q 303 117 269 146 l 303 774 l 368 774 l 368 117 q 497 194 407 151 l 497 142 q 350 -42 399 58 l 321 -42 z "},"@":{"ha":932,"x_min":49,"x_max":883,"o":"m 285 -203 q 113 -119 178 -203 q 49 124 49 -35 q 124 454 49 294 q 331 713 200 614 q 618 811 461 811 q 817 737 750 811 q 883 517 883 663 q 844 292 883 400 q 741 116 806 183 q 606 49 676 49 q 515 178 515 49 q 517 221 515 206 l 515 221 q 338 44 432 44 q 260 165 260 44 q 305 353 260 261 q 422 502 350 444 q 567 560 493 560 q 615 553 592 560 q 633 549 619 551 q 665 546 647 546 q 619 231 631 350 l 617 186 q 622 156 617 164 q 636 149 626 149 q 688 194 663 149 q 731 315 714 240 q 747 472 747 390 q 708 650 747 592 q 586 708 668 708 q 400 635 488 708 q 255 438 313 561 q 188 172 197 314 q 186 132 186 158 q 224 -40 186 22 q 336 -101 263 -101 q 517 -10 421 -101 q 541 9 533 4 q 557 14 549 14 q 571 -3 571 14 q 567 -24 571 -11 q 507 -108 550 -67 q 405 -176 464 -150 q 285 -203 346 -203 m 401 175 q 467 251 424 175 q 502 331 489 294 q 531 428 515 368 q 533 446 533 439 q 520 449 528 446 q 504 451 513 451 q 433 394 469 451 q 401 310 414 361 q 388 214 388 258 q 401 175 388 175 z "},"&":{"ha":1000,"x_min":24,"x_max":1079,"o":"m 236 -14 q 83 44 142 -14 q 24 203 24 101 q 88 403 24 308 q 272 569 153 499 q 249 714 249 664 q 281 847 249 786 q 370 942 314 907 q 494 978 426 978 q 595 946 558 978 q 632 851 632 914 q 579 713 632 781 q 418 571 526 644 q 439 504 424 542 q 547 560 488 543 q 708 576 607 576 l 824 575 q 931 598 893 575 q 968 689 968 621 q 962 733 968 718 q 947 759 956 749 q 939 775 939 769 q 958 814 939 789 q 1002 858 978 839 q 1040 878 1026 878 q 1054 869 1047 878 q 1074 823 1068 849 q 1079 763 1079 797 q 1035 610 1079 676 q 912 505 992 543 q 729 467 832 467 l 722 467 q 575 182 679 300 q 613 124 597 142 q 646 107 629 107 q 722 160 679 107 q 747 181 738 181 q 757 161 757 181 q 756 143 757 150 q 697 35 744 83 q 596 -14 649 -14 q 474 78 535 -14 q 236 -14 357 -14 m 397 644 q 501 808 501 721 q 485 872 501 844 q 440 899 469 899 q 394 867 410 899 q 378 781 378 836 q 397 644 378 729 m 308 86 q 374 100 343 86 q 439 142 406 114 q 360 313 393 235 q 294 496 328 392 q 210 392 240 453 q 181 256 181 331 q 213 131 181 175 q 308 86 246 86 m 533 265 q 580 376 561 321 q 604 471 599 431 l 597 471 q 465 438 507 471 q 517 306 483 376 q 526 285 521 294 q 533 265 531 275 z "},"¶":{"ha":725,"x_min":72,"x_max":760,"o":"m 149 -237 q 135 -235 139 -237 q 132 -224 132 -232 q 139 -196 132 -217 q 156 -131 151 -154 l 250 453 q 115 538 158 488 q 72 656 72 588 q 331 932 72 832 l 344 1018 q 385 1099 351 1064 q 458 1133 418 1133 q 472 1131 468 1133 q 475 1119 475 1128 q 467 1088 475 1113 q 453 1028 460 1063 l 440 954 q 466 958 447 956 q 500 961 485 961 l 508 1018 q 549 1098 517 1063 q 625 1133 582 1133 q 640 1119 640 1133 q 633 1091 640 1113 q 618 1028 626 1069 l 606 961 q 738 933 692 951 q 747 928 740 932 q 757 922 754 925 q 760 913 760 918 q 740 881 760 901 q 700 835 715 850 q 674 819 685 819 q 646 829 668 819 q 589 847 614 844 l 536 533 q 592 551 563 538 q 644 579 621 565 q 679 596 668 596 q 692 579 692 596 q 668 533 692 557 q 603 481 643 506 q 519 444 564 456 l 431 -121 q 390 -202 424 -167 q 314 -237 356 -237 q 301 -235 304 -237 q 299 -224 299 -232 q 304 -196 299 -218 q 321 -131 313 -165 l 414 428 l 389 428 q 357 429 368 428 l 265 -121 q 225 -201 258 -164 q 149 -237 192 -237 m 431 526 l 482 856 q 424 854 444 856 l 374 533 q 429 526 399 526 l 431 526 z "},"§":{"ha":717,"x_min":17,"x_max":713,"o":"m 249 -89 q 119 -58 172 -89 q 42 13 67 -28 q 17 81 17 53 q 38 130 17 107 q 90 166 60 153 q 139 179 119 179 q 155 174 150 179 q 163 156 160 168 q 178 68 168 101 q 216 13 189 35 q 293 -8 243 -8 q 404 36 364 -8 q 444 156 444 81 q 425 236 444 207 q 354 310 406 265 q 303 354 325 333 q 194 481 229 422 q 158 603 158 539 q 185 715 158 661 q 261 815 211 769 q 222 877 233 847 q 210 946 210 907 q 249 1079 210 1019 q 356 1172 288 1139 q 514 1206 425 1206 q 659 1171 606 1206 q 713 1078 713 1136 q 669 993 713 1029 q 618 971 642 971 q 599 983 603 971 q 593 1032 594 996 q 584 1078 590 1058 q 553 1115 578 1099 q 479 1132 529 1132 q 373 1097 410 1132 q 336 999 336 1061 q 354 931 336 960 q 428 854 372 901 l 507 785 q 640 540 640 667 q 616 429 640 486 q 547 321 592 372 q 569 272 563 296 q 576 215 576 247 q 532 64 576 133 q 412 -47 488 -6 q 249 -89 336 -89 m 493 382 q 513 435 507 410 q 519 493 519 461 q 508 560 519 533 q 474 613 497 588 q 394 689 450 638 l 347 732 l 315 761 q 282 658 282 718 q 296 588 282 618 q 333 533 310 558 q 418 447 357 507 q 493 382 481 393 z "},"©":{"ha":1004,"x_min":49,"x_max":956,"o":"m 464 -14 q 253 46 347 -14 q 103 212 158 106 q 49 453 49 318 q 115 730 49 603 q 293 931 181 857 q 536 1006 406 1006 q 750 945 654 1006 q 901 778 846 885 q 956 536 956 671 q 889 261 956 388 q 709 60 822 135 q 464 -14 596 -14 m 471 88 q 656 147 571 88 q 792 310 742 207 q 842 533 842 413 q 801 726 842 642 q 691 858 761 811 q 532 904 621 904 q 346 844 432 904 q 210 681 260 783 q 160 457 160 578 q 200 264 160 347 q 311 134 240 181 q 471 88 382 88 m 451 196 q 313 251 363 196 q 264 410 264 306 q 306 596 264 508 q 424 737 347 683 q 597 790 500 790 q 699 763 671 790 q 728 704 728 736 q 718 651 728 688 q 703 624 713 635 q 681 613 693 613 q 663 621 669 613 q 651 641 656 629 q 643 658 646 653 q 614 694 632 682 q 567 706 596 706 q 447 630 492 706 q 401 440 401 554 q 425 330 401 365 q 501 294 449 294 q 578 319 549 294 q 633 382 608 343 q 660 403 647 403 q 675 385 675 403 q 669 354 675 379 q 592 240 650 283 q 451 196 533 196 z "},"®":{"ha":789,"x_min":49,"x_max":740,"o":"m 368 256 q 203 300 275 256 q 90 423 131 344 q 49 601 49 501 q 98 805 49 711 q 233 954 147 899 q 422 1010 318 1010 q 588 965 515 1010 q 700 840 660 919 q 740 658 740 760 q 690 453 740 546 q 556 308 640 361 q 368 256 471 256 m 372 328 q 514 368 451 328 q 613 482 576 408 q 649 651 649 556 q 583 859 649 781 q 410 938 517 938 q 269 894 331 938 q 174 776 208 851 q 139 606 139 700 q 202 402 139 476 q 372 328 265 328 m 500 418 q 460 433 476 418 q 431 479 443 447 l 394 575 q 387 595 392 583 q 377 609 382 607 q 358 611 372 611 l 342 507 q 332 482 336 489 q 346 476 340 476 q 360 478 354 476 q 368 481 365 481 q 374 474 374 481 q 364 454 374 464 q 318 425 335 425 q 298 431 313 425 q 271 438 283 438 q 243 431 258 438 q 224 425 228 425 q 217 436 217 425 q 236 468 217 453 q 251 485 249 479 q 257 513 254 492 q 261 543 257 525 l 294 753 q 325 787 297 771 q 379 803 353 803 q 390 801 385 803 q 394 796 394 800 q 389 780 394 793 q 381 754 383 767 l 367 663 q 382 660 372 660 q 440 685 418 660 q 461 754 461 711 q 442 808 461 792 q 381 825 424 825 q 308 812 343 825 q 242 763 274 799 q 235 757 240 761 q 225 753 231 753 q 218 765 218 753 q 240 818 218 790 q 305 865 263 846 q 401 885 347 885 q 511 855 469 885 q 553 772 553 825 q 524 692 553 729 q 447 636 496 656 q 483 586 474 617 l 507 526 q 522 492 517 501 q 538 483 528 483 q 551 488 544 483 q 563 500 558 492 q 575 511 571 511 q 582 500 582 511 q 558 442 582 465 q 500 418 533 418 z "},"™":{"ha":1211,"x_min":76,"x_max":1342,"o":"m 192 482 q 179 497 179 482 q 197 538 179 524 q 217 554 215 553 q 233 576 229 565 q 240 600 238 588 q 243 618 242 613 l 288 868 l 256 868 q 185 861 207 868 q 164 832 164 854 q 172 806 164 818 q 181 789 181 793 q 147 742 181 772 q 92 711 113 711 q 83 717 85 711 q 76 775 76 732 q 133 912 76 860 q 282 964 189 964 l 504 964 q 535 969 525 964 q 544 989 544 975 q 532 1020 544 1006 q 519 1039 519 1035 q 544 1085 519 1051 q 583 1118 569 1118 q 614 1080 601 1118 q 625 1010 626 1042 q 568 903 621 939 q 431 868 515 868 l 414 868 l 372 636 q 363 601 369 618 q 350 576 357 583 l 350 575 q 360 571 353 574 q 375 568 368 568 q 398 572 386 568 q 415 575 410 575 q 424 565 424 575 q 408 531 424 549 q 338 482 368 482 q 310 486 326 482 q 249 493 268 493 q 213 488 228 493 q 192 482 197 482 m 610 482 q 602 485 604 482 q 600 497 600 489 q 607 522 600 511 q 636 554 614 532 q 650 576 646 564 q 657 601 654 589 q 661 618 660 613 l 715 867 l 710 867 q 688 869 701 867 q 663 871 674 871 q 600 846 628 871 q 586 838 590 838 q 578 846 578 838 q 582 864 578 854 q 632 937 596 911 q 718 963 668 963 q 750 960 731 963 q 794 957 775 957 q 835 960 819 957 q 856 963 851 963 l 856 914 q 882 767 856 851 l 899 718 q 907 694 906 699 q 910 683 908 689 l 1054 949 q 1111 1047 1092 1022 q 1160 1078 1131 1071 q 1272 1089 1190 1086 q 1311 1093 1286 1089 q 1333 1099 1332 1099 q 1342 1085 1342 1099 q 1320 1049 1342 1065 q 1261 1031 1299 1033 q 1194 1019 1214 1025 q 1163 992 1175 1013 q 1147 928 1151 972 q 1136 799 1144 910 q 1125 640 1126 654 q 1122 617 1125 636 q 1104 576 1118 597 l 1104 575 q 1126 568 1113 568 q 1144 571 1136 568 q 1156 574 1151 574 q 1165 561 1165 574 q 1154 532 1165 547 q 1119 492 1132 503 q 1093 482 1107 482 q 1078 483 1086 482 q 1063 486 1069 485 q 1019 493 1039 493 q 987 488 1004 493 q 963 482 969 482 q 950 500 950 482 q 978 554 950 538 q 998 570 992 563 q 1007 596 1004 578 q 1019 689 1014 626 q 1026 754 1021 721 l 1021 754 l 976 674 q 932 593 943 615 q 892 532 913 557 q 856 507 871 507 q 849 513 850 507 q 847 526 847 518 q 835 631 847 576 q 806 724 822 686 l 794 754 l 792 754 l 769 617 q 751 574 765 589 l 751 572 q 775 567 761 567 q 792 568 786 567 q 803 569 799 569 q 813 560 813 569 q 799 529 813 547 q 767 492 779 503 q 740 482 754 482 q 708 488 733 482 q 668 493 683 493 q 633 488 651 493 q 610 482 615 482 z "},"°":{"ha":382,"x_min":79,"x_max":421,"o":"m 186 619 q 108 649 136 619 q 79 731 79 678 q 113 844 79 789 q 201 935 147 900 q 311 969 254 969 q 392 942 363 969 q 421 861 421 914 q 387 748 421 804 q 298 656 353 692 q 186 619 243 619 m 232 713 q 285 744 261 713 q 308 818 308 776 q 297 860 308 846 q 267 875 286 875 q 215 845 238 875 q 192 772 192 815 q 202 728 192 744 q 232 713 213 713 z "},"′":{"ha":239,"x_min":89,"x_max":283,"o":"m 113 651 q 89 667 89 651 q 95 688 89 671 q 110 733 101 704 q 125 818 117 760 q 142 949 133 876 l 144 981 q 172 1007 146 997 q 232 1017 197 1017 q 281 989 283 1017 l 278 947 q 260 852 274 906 q 232 763 247 799 q 179 682 213 713 q 113 651 146 651 z "},"″":{"ha":460,"x_min":89,"x_max":503,"o":"m 113 651 q 89 667 89 651 q 95 688 89 671 q 110 733 101 704 q 142 949 128 794 l 144 981 q 172 1007 146 997 q 232 1017 197 1017 q 281 989 283 1017 l 278 947 q 259 851 272 904 q 232 763 246 797 q 179 682 213 713 q 113 651 146 651 m 335 651 q 311 667 311 651 q 317 688 311 671 q 332 733 324 704 q 347 818 339 760 q 364 949 356 876 l 367 981 q 394 1007 368 997 q 454 1017 419 1017 q 492 1010 482 1017 q 501 989 503 1003 l 497 947 q 482 852 494 906 q 454 763 469 799 q 401 682 435 713 q 335 651 368 651 z "},"|":{"ha":342,"x_min":6,"x_max":336,"o":"m 35 -347 q 11 -340 17 -347 q 8 -314 6 -332 l 203 1042 q 242 1074 204 1057 q 307 1090 279 1090 q 330 1082 324 1090 q 335 1056 336 1074 l 139 -300 q 101 -332 138 -317 q 35 -347 64 -347 z "},"¦":{"ha":342,"x_min":6,"x_max":336,"o":"m 157 507 q 134 515 140 507 q 131 540 128 522 l 203 1042 q 242 1074 204 1057 q 307 1090 279 1090 q 330 1082 324 1090 q 335 1056 336 1074 l 261 554 q 223 522 260 538 q 157 507 186 507 m 35 -347 q 11 -340 17 -347 q 8 -314 6 -332 l 79 188 q 119 220 82 204 q 185 236 157 236 q 211 214 211 236 q 210 201 211 206 l 139 -300 q 101 -332 138 -317 q 35 -347 64 -347 z "},"ʼ":{"ha":361,"x_min":74,"x_max":288,"o":"m 92 619 q 78 625 83 619 q 74 638 74 631 q 99 668 74 647 q 154 745 135 704 q 174 824 174 786 q 165 864 174 849 q 142 896 157 879 q 126 915 131 907 q 121 933 121 922 q 149 982 121 960 q 210 1004 178 1004 q 265 977 243 1004 q 288 901 288 950 q 240 750 288 828 q 124 632 193 672 q 92 619 106 619 z "},"ʻ":{"ha":361,"x_min":74,"x_max":288,"o":"m 151 725 q 96 752 118 725 q 74 826 74 779 q 124 978 74 899 q 238 1097 174 1058 q 272 1110 260 1110 q 283 1104 279 1110 q 288 1092 288 1099 q 265 1061 288 1083 q 189 906 189 983 q 197 864 189 878 q 221 832 204 850 q 237 813 232 821 q 242 796 242 806 q 213 747 242 769 q 151 725 185 725 z "},"̈":{"ha":0,"x_min":-175,"x_max":225,"o":"m -117 725 q -158 741 -142 725 q -175 782 -175 757 q -142 852 -175 819 q -72 885 -110 885 q -33 870 -49 885 q -17 831 -17 856 q -48 759 -17 793 q -117 725 -79 725 m 124 725 q 83 741 100 725 q 65 782 65 757 q 97 852 65 819 q 169 885 129 885 q 209 870 193 885 q 225 831 225 856 q 193 759 225 793 q 124 725 161 725 z "},"̀":{"ha":0,"x_min":-119,"x_max":149,"o":"m 124 725 q 11 764 68 729 q -83 847 -46 799 q -119 939 -119 894 q -112 962 -119 956 q -83 968 -104 968 q -25 960 -46 968 q 3 932 -4 953 q 47 834 25 867 q 108 775 69 801 q 130 761 121 767 q 144 751 139 756 q 149 740 149 747 q 142 728 149 732 q 124 725 135 724 z "},"́":{"ha":0,"x_min":-128,"x_max":138,"o":"m -110 725 q -128 740 -128 725 q -123 752 -128 747 q -109 762 -118 757 q -89 775 -100 767 q -28 833 -50 801 q 17 932 -6 865 q 44 960 24 953 q 101 968 64 968 q 130 962 122 968 q 138 939 138 956 q 101 847 138 894 q 7 764 64 799 q -106 725 -50 729 l -110 725 z "},"̃":{"ha":0,"x_min":-172,"x_max":203,"o":"m -158 725 q -172 742 -172 725 q -135 860 -172 810 q -44 911 -97 911 q 1 901 -18 911 q 43 874 19 892 q 77 849 61 857 q 113 840 93 840 q 164 882 146 840 q 175 905 171 899 q 189 911 179 911 q 203 892 203 911 q 184 810 203 849 q 134 748 165 771 q 67 725 103 725 q 19 735 39 725 q -25 765 -1 746 q -58 788 -44 781 q -87 796 -72 796 q -110 788 -101 796 q -131 758 -119 779 q -138 742 -133 753 q -147 728 -143 732 q -158 725 -151 725 z "},"̄":{"ha":0,"x_min":-217,"x_max":244,"o":"m -200 746 q -217 761 -217 746 q -178 822 -217 799 q -93 846 -140 846 l 163 846 q 201 849 182 846 q 228 853 221 853 q 244 838 244 853 q 207 776 244 800 q 121 753 169 753 l -135 753 q -174 749 -154 753 q -200 746 -193 746 z "},"̉":{"ha":0,"x_min":-124,"x_max":169,"o":"m -33 713 q -56 733 -56 713 q -42 782 -56 761 q 1 833 -28 803 q 38 876 26 860 q 49 913 49 892 q -1 954 49 954 q -93 906 -51 954 q -110 896 -103 896 q -124 913 -124 896 q -110 954 -124 935 q -47 1013 -87 992 q 43 1033 -7 1033 q 135 1005 101 1033 q 169 932 169 976 q 155 877 169 900 q 110 822 140 854 q 76 785 89 801 q 58 749 64 768 q 25 723 58 733 q -33 713 -8 713 z "},"̣":{"ha":0,"x_min":-112,"x_max":65,"o":"m -46 -267 q -94 -249 -75 -267 q -112 -203 -112 -232 q -95 -149 -112 -176 q -51 -104 -78 -122 q 3 -86 -24 -86 q 47 -104 29 -86 q 65 -150 65 -122 q 49 -203 65 -176 q 7 -249 33 -231 q -46 -267 -19 -267 z "},"´":{"ha":438,"x_min":86,"x_max":351,"o":"m 104 725 q 86 740 86 725 q 91 752 86 747 q 105 762 96 757 q 125 775 114 767 q 186 833 164 801 q 231 932 208 865 q 258 960 238 953 q 315 968 278 968 q 344 962 336 968 q 351 939 351 956 q 315 847 351 894 q 221 764 278 799 q 108 725 164 729 l 104 725 z "},"¸":{"ha":422,"x_min":83,"x_max":336,"o":"m 168 -317 q 108 -306 132 -317 q 83 -279 83 -296 q 103 -265 83 -265 q 142 -262 111 -264 q 192 -243 172 -261 q 213 -185 213 -225 q 201 -140 213 -156 q 158 -117 189 -125 q 138 -111 143 -114 q 133 -100 133 -108 l 133 -86 q 157 -37 133 -76 l 197 38 l 283 38 l 233 -57 q 336 -172 336 -90 q 291 -276 336 -235 q 168 -317 246 -317 z "},"ˆ":{"ha":561,"x_min":86,"x_max":478,"o":"m 392 725 q 369 735 376 725 q 274 888 331 782 l 265 876 q 167 776 203 807 q 106 744 131 744 q 86 754 86 744 q 104 778 86 764 q 187 860 139 806 q 263 950 235 915 q 293 985 279 972 q 328 997 307 997 q 351 991 343 997 q 371 968 360 985 q 411 901 393 926 q 469 831 429 876 q 478 811 478 821 q 469 788 478 800 q 440 756 460 775 q 392 725 406 725 z "},"¨":{"ha":572,"x_min":86,"x_max":486,"o":"m 144 725 q 103 741 119 725 q 86 782 86 757 q 119 852 86 819 q 189 885 151 885 q 229 870 214 885 q 244 831 244 856 q 213 759 244 793 q 144 725 182 725 m 385 725 q 344 741 360 725 q 328 782 328 757 q 358 852 328 819 q 429 885 389 885 q 469 869 453 885 q 486 831 486 854 q 455 759 486 793 q 385 725 424 725 z "},"`":{"ha":438,"x_min":86,"x_max":354,"o":"m 329 725 q 217 764 274 729 q 123 847 160 799 q 86 939 86 894 q 94 962 86 956 q 122 968 101 968 q 181 960 160 968 q 208 932 201 953 q 253 834 231 867 q 314 775 275 801 q 335 761 326 767 q 349 751 344 756 q 354 740 354 747 q 347 728 354 732 q 329 725 340 724 z "},"¯":{"ha":631,"x_min":85,"x_max":546,"o":"m 101 719 q 85 735 85 719 q 123 796 85 772 q 208 819 161 819 l 464 819 q 503 823 483 819 q 529 826 522 826 q 546 811 546 826 q 508 750 546 774 q 422 726 471 726 l 167 726 q 128 723 147 726 q 101 719 108 719 z "},"˚":{"ha":457,"x_min":86,"x_max":372,"o":"m 201 725 q 117 751 149 725 q 86 821 86 776 q 108 899 86 863 q 170 959 131 936 q 258 982 210 982 q 342 957 313 982 q 372 885 372 932 q 350 808 372 844 q 289 748 328 771 q 201 725 250 725 m 215 782 q 263 806 244 782 q 282 871 282 831 q 272 911 282 896 q 244 926 261 926 q 195 900 215 926 q 175 835 175 874 q 186 797 175 811 q 215 782 197 782 z "},"˜":{"ha":544,"x_min":85,"x_max":460,"o":"m 99 725 q 85 742 85 725 q 122 860 85 810 q 213 911 160 911 q 258 901 239 911 q 300 874 276 892 q 334 849 318 857 q 369 840 350 840 q 421 882 403 840 q 432 905 428 899 q 446 911 436 911 q 460 892 460 911 q 441 810 460 849 q 391 748 422 771 q 324 725 360 725 q 276 735 296 725 q 232 765 256 746 q 199 788 213 781 q 169 796 185 796 q 147 788 156 796 q 126 758 138 779 q 119 742 124 753 q 110 728 114 732 q 99 725 106 725 z "}}}
